<?xml version="1.0" encoding="UTF-8"?>
<svg width="659px" height="607px" viewBox="0 0 659 607" version="1.1" xmlns="http://www.w3.org/2000/svg" xmlns:xlink="http://www.w3.org/1999/xlink">
    <title>logo</title>
    <g id="Page-1" stroke="none" stroke-width="1" fill="none" fill-rule="evenodd">
        <g id="Artboard" transform="translate(-2123.000000, -149.000000)" fill="#5046E4">
            <path d="M2204.06977,629 C2272.09899,284.364473 2508.15722,183.046748 2595,157.058839 C2580.11182,151.754053 2564.08586,149 2547.22159,149 L2357.31782,149 C2306.31648,149 2262.56974,174.304016 2237.06907,218.424314 L2142.10471,382.835727 C2116.63176,427.011475 2116.63176,477.517848 2142.10471,521.693596 L2204.06977,629 Z M2667.96085,218.378039 L2762.86951,382.964119 C2788.39592,427.179342 2788.36727,477.758597 2762.84086,521.94607 L2760.10605,526.746844 C2699.95783,496.647192 2646.68499,455.271734 2607.00116,398.9482 C2607.00116,398.9482 2636.99347,490.791913 2729.4908,579.758861 L2697.03448,636.063895 C2623.97379,554.543234 2569.88854,457.658246 2565.61211,347.554941 C2565.61211,347.554941 2517.29224,529.475608 2635.20785,725.465596 C2616.50136,740.857674 2594.03415,750.801474 2569.29241,754.427492 C2509.36047,596.778947 2473.46599,403.369722 2563.77012,251.354456 C2563.77012,251.354456 2362.8851,433.441624 2430.31536,756 L2357.79535,756 C2349.3229,756 2341.04083,755.324747 2333,753.93724 C2347.61861,574.995087 2403.0292,279.631848 2605.56582,161 C2631.25583,172.562558 2652.82929,192.181907 2667.96085,218.378039 L2667.96085,218.378039 Z" id="logo"></path>
        </g>
    </g>
</svg>