<?xml version="1.0" encoding="UTF-8"?>
<!DOCTYPE svg PUBLIC "-//W3C//DTD SVG 1.1//EN" "http://www.w3.org/Graphics/SVG/1.1/DTD/svg11.dtd">
<svg xmlns="http://www.w3.org/2000/svg" version="1.1" width="345px" height="119px" style="shape-rendering:geometricPrecision; text-rendering:geometricPrecision; image-rendering:optimizeQuality; fill-rule:evenodd; clip-rule:evenodd" xmlns:xlink="http://www.w3.org/1999/xlink">
<g><path style="opacity:1" fill="#fdfefe" d="M -0.5,-0.5 C 114.5,-0.5 229.5,-0.5 344.5,-0.5C 344.5,39.1667 344.5,78.8333 344.5,118.5C 229.5,118.5 114.5,118.5 -0.5,118.5C -0.5,78.8333 -0.5,39.1667 -0.5,-0.5 Z"/></g>
<g><path style="opacity:1" fill="#6e8ba3" d="M 121.5,10.5 C 123.655,10.372 125.655,10.872 127.5,12C 130.5,15 133.5,18 136.5,21C 139.961,21.1347 143.294,20.8014 146.5,20C 150.356,23.357 154.356,26.5237 158.5,29.5C 159.664,36.4763 159.831,43.4763 159,50.5C 150.818,44.4075 142.818,38.0741 135,31.5C 134.805,29.7928 134.805,28.1261 135,26.5C 130,22.5 125,18.5 120,14.5C 119.7,12.9343 120.2,11.601 121.5,10.5 Z"/></g>
<g><path style="opacity:1" fill="#1f466e" d="M 222.5,5.5 C 223.097,5.7352 223.43,6.2352 223.5,7C 221.739,11.3554 219.572,15.5221 217,19.5C 208.037,30.132 198.703,40.4654 189,50.5C 188.333,44.5 188.333,38.5 189,32.5C 198.167,24.6667 207.333,16.8333 216.5,9C 218.727,8.05898 220.727,6.89232 222.5,5.5 Z"/></g>
<g><path style="opacity:1" fill="#b9bfc5" d="M 161.5,39.5 C 162.779,48.3195 163.279,57.3195 163,66.5C 161.894,57.5326 161.394,48.5326 161.5,39.5 Z"/></g>
<g><path style="opacity:1" fill="#6f89a1" d="M 188.5,53.5 C 191.789,55.6158 194.956,57.9491 198,60.5C 197.948,62.9111 197.615,65.2445 197,67.5C 202,71.1667 207,74.8333 212,78.5C 212.035,83.3904 209.868,84.5571 205.5,82C 202.133,78.2974 198.466,74.964 194.5,72C 192.536,71.376 190.869,71.876 189.5,73.5C 188.503,66.8665 188.17,60.1998 188.5,53.5 Z"/></g>
<g><path style="opacity:1" fill="#274a6f" d="M 158.5,58.5 C 159.641,61.6399 159.808,64.9733 159,68.5C 153.273,72.7719 148.107,77.6053 143.5,83C 139.032,83.696 137.198,81.8627 138,77.5C 145.03,71.3005 151.863,64.9672 158.5,58.5 Z"/></g>
<g><path style="opacity:1" fill="#a2b3c0" d="M 184.5,71.5 C 184.768,73.099 184.434,74.4324 183.5,75.5C 176.646,75.176 169.979,75.5093 163.5,76.5C 163.167,76.5 162.833,76.5 162.5,76.5C 162.5,74.8333 162.5,73.1667 162.5,71.5C 169.833,71.5 177.167,71.5 184.5,71.5 Z"/></g>
<g><path style="opacity:1" fill="#f4f6f8" d="M 183.5,75.5 C 183.611,76.1174 183.944,76.6174 184.5,77C 177.321,77.8213 170.321,77.6546 163.5,76.5C 169.979,75.5093 176.646,75.176 183.5,75.5 Z"/></g>
<g><path style="opacity:1" fill="#c3c9cf" d="M 162.5,76.5 C 162.833,76.5 163.167,76.5 163.5,76.5C 170.321,77.6546 177.321,77.8213 184.5,77C 183.944,76.6174 183.611,76.1174 183.5,75.5C 184.434,74.4324 184.768,73.099 184.5,71.5C 184.334,64.825 184.5,58.1583 185,51.5C 185.5,60.4938 185.666,69.4938 185.5,78.5C 177.427,79.1318 169.76,78.4651 162.5,76.5 Z"/></g>
<g><path style="opacity:1" fill="#aeb7bf" d="M 3.5,84.5 C 116.169,84.1667 228.835,84.5 341.5,85.5C 285.167,85.8333 228.833,86.1667 172.5,86.5C 115.829,86.5 59.496,85.8333 3.5,84.5 Z"/></g>
<g><path style="opacity:1" fill="#c1c9d2" d="M 278.5,91.5 C 277.5,90.1667 276.5,90.1667 275.5,91.5C 273.712,91.7852 272.045,91.4519 270.5,90.5C 274.833,89.1667 279.167,89.1667 283.5,90.5C 281.955,91.4519 280.288,91.7852 278.5,91.5 Z"/></g>
<g><path style="opacity:1" fill="#a4acb6" d="M 7.5,91.5 C 10.5199,88.8191 13.5199,88.9857 16.5,92C 13.5865,91.7097 10.5865,91.5431 7.5,91.5 Z"/></g>
<g><path style="opacity:1" fill="#65737e" d="M 136.5,91.5 C 137.386,90.2241 138.386,90.2241 139.5,91.5C 138.767,92.087 137.767,92.087 136.5,91.5 Z"/></g>
<g><path style="opacity:1" fill="#a8afb8" d="M 79.5,97.5 C 78.8333,97.1667 78.1667,96.8333 77.5,96.5C 79.4611,94.0365 81.6278,91.7032 84,89.5C 82.8306,92.2151 81.3306,94.8817 79.5,97.5 Z"/></g>
<g><path style="opacity:1" fill="#f4f6f9" d="M 259.5,100.5 C 257.396,100.799 255.396,100.466 253.5,99.5C 254.309,97.9291 254.643,96.2624 254.5,94.5C 255.158,93.6016 255.824,92.6016 256.5,91.5C 257.798,94.4222 258.798,97.4222 259.5,100.5 Z"/></g>
<g><path style="opacity:1" fill="#27425d" d="M 96.5,90.5 C 97.1167,96.5982 96.45,102.265 94.5,107.5C 93.8833,101.402 94.55,95.7351 96.5,90.5 Z"/></g>
<g><path style="opacity:1" fill="#3c536f" d="M 183.5,105.5 C 183.5,105.833 183.5,106.167 183.5,106.5C 178.521,103.374 177.355,99.0408 180,93.5C 181.113,91.6707 182.613,90.8374 184.5,91C 180.831,95.5504 180.498,100.384 183.5,105.5 Z"/></g>
<g><path style="opacity:1" fill="#2c4967" d="M 53.5,106.5 C 53.1667,106.5 52.8333,106.5 52.5,106.5C 49.124,104.932 47.7907,102.265 48.5,98.5C 47.763,94.111 49.4297,91.611 53.5,91C 49.5808,96.1611 49.5808,101.328 53.5,106.5 Z"/></g>
<g><path style="opacity:1" fill="#2d4a67" d="M 129.5,101.5 C 129.158,102.338 128.492,102.672 127.5,102.5C 127.335,99.4816 127.502,96.4816 128,93.5C 129.263,91.2031 131.097,90.3698 133.5,91C 131.667,91.5 130.5,92.6667 130,94.5C 129.503,96.8098 129.337,99.1432 129.5,101.5 Z"/></g>
<g><path style="opacity:1" fill="#a8b3bd" d="M 237.5,93.5 C 237.245,96.0163 236.411,98.3496 235,100.5C 234.705,97.7583 235.538,95.425 237.5,93.5 Z"/></g>
<g><path style="opacity:1" fill="#3d5674" d="M 315.5,106.5 C 315.167,106.5 314.833,106.5 314.5,106.5C 316.445,102.394 316.945,98.0607 316,93.5C 312.477,89.2986 309.477,89.6319 307,94.5C 306.333,97.5 306.333,100.5 307,103.5C 307.278,104.416 307.778,105.082 308.5,105.5C 308.5,106.167 308.167,106.5 307.5,106.5C 302.569,101.935 302.235,96.9354 306.5,91.5C 316.515,88 320.682,91.6667 319,102.5C 318.34,104.324 317.173,105.657 315.5,106.5 Z"/></g>
<g><path style="opacity:1" fill="#f9fafc" d="M 314.5,106.5 C 312.379,106.675 310.379,106.341 308.5,105.5C 307.778,105.082 307.278,104.416 307,103.5C 306.333,100.5 306.333,97.5 307,94.5C 309.477,89.6319 312.477,89.2986 316,93.5C 316.945,98.0607 316.445,102.394 314.5,106.5 Z"/></g>
<g><path style="opacity:1" fill="#415770" d="M 330.5,93.5 C 330.158,92.6618 329.492,92.3284 328.5,92.5C 329.077,90.3484 330.244,90.015 332,91.5C 334.079,95.9926 336.412,100.326 339,104.5C 339.333,99.8333 339.667,95.1667 340,90.5C 340.499,96.1569 340.666,101.824 340.5,107.5C 339.178,107.67 338.011,107.337 337,106.5C 334.807,102.114 332.64,97.7802 330.5,93.5 Z"/></g>
<g><path style="opacity:1" fill="#d0d6db" d="M 161.5,90.5 C 170.638,89.9574 171.971,89.9574 165.5,90.5C 165.5,92.5 165.5,94.5 165.5,96.5C 167.288,96.2148 168.955,96.5481 170.5,97.5C 168.604,98.4656 166.604,98.7989 164.5,98.5C 164.5,95.8333 164.5,93.1667 164.5,90.5C 163.5,90.5 162.5,90.5 161.5,90.5 Z"/></g>
<g><path style="opacity:1" fill="#2a4a68" d="M 190.5,106.5 C 190.167,106.5 189.833,106.5 189.5,106.5C 193.434,101.369 193.434,96.2028 189.5,91C 191.768,90.9101 193.268,92.0768 194,94.5C 194.667,97.5 194.667,100.5 194,103.5C 192.961,104.71 191.794,105.71 190.5,106.5 Z"/></g>
<g><path style="opacity:1" fill="#475f77" d="M 224.5,90.5 C 225.833,90.5 227.167,90.5 228.5,90.5C 229.969,95.5738 231.636,100.574 233.5,105.5C 232.5,105.5 231.5,105.5 230.5,105.5C 226.205,89.4704 224.372,90.1371 225,107.5C 224.501,101.843 224.334,96.1764 224.5,90.5 Z"/></g>
<g><path style="opacity:1" fill="#365370" d="M 59.5,106.5 C 59.5,106.167 59.5,105.833 59.5,105.5C 62.4259,100.416 62.0925,95.5828 58.5,91C 62.1404,91.6555 64.1404,93.9889 64.5,98C 64.0664,100.634 63.233,103.134 62,105.5C 61.3292,106.252 60.4959,106.586 59.5,106.5 Z"/></g>
<g><path style="opacity:1" fill="#a0b0c1" d="M 96.5,90.5 C 94.55,95.7351 93.8833,101.402 94.5,107.5C 93.5104,101.69 93.1771,95.69 93.5,89.5C 94.791,89.2627 95.791,89.596 96.5,90.5 Z"/></g>
<g><path style="opacity:1" fill="#b6c2cc" d="M 109.5,90.5 C 108.325,90.281 107.325,90.6143 106.5,91.5C 107.193,92.5178 107.859,93.5178 108.5,94.5C 107.834,98.6845 107.167,103.018 106.5,107.5C 105.504,101.537 105.171,95.5368 105.5,89.5C 107.099,89.2322 108.432,89.5655 109.5,90.5 Z"/></g>
<g><path style="opacity:1" fill="#2c4c6f" d="M 161.5,90.5 C 162.5,90.5 163.5,90.5 164.5,90.5C 164.5,93.1667 164.5,95.8333 164.5,98.5C 164.5,101.5 164.5,104.5 164.5,107.5C 163.5,107.5 162.5,107.5 161.5,107.5C 161.5,101.833 161.5,96.1667 161.5,90.5 Z"/></g>
<g><path style="opacity:1" fill="#9aa9b7" d="M 238.5,91.5 C 239.797,96.2669 239.797,100.934 238.5,105.5C 238.817,101.298 238.483,97.2984 237.5,93.5C 237.328,92.5084 237.662,91.8417 238.5,91.5 Z"/></g>
<g><path style="opacity:1" fill="#36536f" d="M 259.5,101.5 C 259.5,101.167 259.5,100.833 259.5,100.5C 258.798,97.4222 257.798,94.4222 256.5,91.5C 255.824,92.6016 255.158,93.6016 254.5,94.5C 254.5,93.1667 254.5,91.8333 254.5,90.5C 256.467,90.2606 258.301,90.5939 260,91.5C 261.346,96.5515 262.846,101.552 264.5,106.5C 263.675,107.386 262.675,107.719 261.5,107.5C 261.741,105.102 261.074,103.102 259.5,101.5 Z"/></g>
<g><path style="opacity:1" fill="#385573" d="M 278.5,91.5 C 278.5,96.8333 278.5,102.167 278.5,107.5C 277.5,107.5 276.5,107.5 275.5,107.5C 275.5,102.167 275.5,96.8333 275.5,91.5C 276.5,90.1667 277.5,90.1667 278.5,91.5 Z"/></g>
<g><path style="opacity:1" fill="#364f6d" d="M 7.5,91.5 C 5.91849,96.6716 6.25182,101.672 8.5,106.5C 8.16667,106.5 7.83333,106.5 7.5,106.5C 4.59745,104.695 3.26412,102.029 3.5,98.5C 3.08104,94.9877 4.41438,92.6544 7.5,91.5 Z"/></g>
<g><path style="opacity:1" fill="#3a526f" d="M 35.5,106.5 C 35.1667,106.5 34.8333,106.5 34.5,106.5C 36.5216,102.462 37.0216,98.1289 36,93.5C 32.6404,89.4952 29.6404,89.8285 27,94.5C 26.1122,98.4021 26.6122,102.069 28.5,105.5C 28.5,105.833 28.5,106.167 28.5,106.5C 26.1119,105.781 24.6119,104.115 24,101.5C 23.3776,92.1147 27.5443,88.6147 36.5,91C 39.3181,94.3379 40.1515,98.1712 39,102.5C 38.34,104.324 37.1733,105.657 35.5,106.5 Z"/></g>
<g><path style="opacity:1" fill="#f8fafb" d="M 34.5,106.5 C 32.3792,106.675 30.3792,106.341 28.5,105.5C 26.6122,102.069 26.1122,98.4021 27,94.5C 29.6404,89.8285 32.6404,89.4952 36,93.5C 37.0216,98.1289 36.5216,102.462 34.5,106.5 Z"/></g>
<g><path style="opacity:1" fill="#26496b" d="M 238.5,105.5 C 239.797,100.934 239.797,96.2669 238.5,91.5C 239.209,90.596 240.209,90.2627 241.5,90.5C 241.5,96.1667 241.5,101.833 241.5,107.5C 239.821,107.715 238.821,107.048 238.5,105.5 Z"/></g>
<g><path style="opacity:1" fill="#b8c5d2" d="M 294.5,107.5 C 293.833,84.8333 293.167,84.8333 292.5,107.5C 291.51,101.69 291.177,95.69 291.5,89.5C 292.833,89.5 294.167,89.5 295.5,89.5C 295.823,95.69 295.49,101.69 294.5,107.5 Z"/></g>
<g><path style="opacity:1" fill="#244463" d="M 294.5,107.5 C 293.833,107.5 293.167,107.5 292.5,107.5C 293.167,84.8333 293.833,84.8333 294.5,107.5 Z"/></g>
<g><path style="opacity:1" fill="#9fa6b0" d="M 254.5,94.5 C 254.643,96.2624 254.309,97.9291 253.5,99.5C 255.396,100.466 257.396,100.799 259.5,100.5C 259.5,100.833 259.5,101.167 259.5,101.5C 257.167,101.5 254.833,101.5 252.5,101.5C 252.41,98.8478 253.076,96.5145 254.5,94.5 Z"/></g>
<g><path style="opacity:1" fill="#9ba8b5" d="M 328.5,92.5 C 329.492,92.3284 330.158,92.6618 330.5,93.5C 329.674,97.9819 329.174,102.649 329,107.5C 328.501,102.511 328.334,97.5111 328.5,92.5 Z"/></g>
<g><path style="opacity:1" fill="#697e8f" d="M 72.5,91.5 C 72.8587,96.7486 73.8587,101.749 75.5,106.5C 74.791,107.404 73.791,107.737 72.5,107.5C 72.5,102.167 72.5,96.8333 72.5,91.5 Z"/></g>
<g><path style="opacity:1" fill="#607183" d="M 129.5,101.5 C 130.398,105.053 132.732,106.719 136.5,106.5C 136.833,106.5 137.167,106.5 137.5,106.5C 132.915,108.503 129.581,107.169 127.5,102.5C 128.492,102.672 129.158,102.338 129.5,101.5 Z"/></g>
<g><path style="opacity:1" fill="#25435e" d="M 137.5,99.5 C 139.344,101.279 140.01,103.612 139.5,106.5C 138.833,106.5 138.167,106.5 137.5,106.5C 137.167,106.5 136.833,106.5 136.5,106.5C 137.369,104.283 137.702,101.95 137.5,99.5 Z"/></g>
<g><path style="opacity:1" fill="#36516e" d="M 203.5,90.5 C 204.5,90.5 205.5,90.5 206.5,90.5C 206.5,93.1667 206.5,95.8333 206.5,98.5C 212.488,98.336 213.821,95.836 210.5,91C 211.784,90.3162 212.951,90.4829 214,91.5C 215.121,94.991 214.287,97.8244 211.5,100C 212.417,102.581 213.751,104.914 215.5,107C 214.207,107.49 212.873,107.657 211.5,107.5C 207.981,97.5458 206.315,97.5458 206.5,107.5C 205.5,107.5 204.5,107.5 203.5,107.5C 203.5,101.833 203.5,96.1667 203.5,90.5 Z"/></g>
<g><path style="opacity:1" fill="#304e6d" d="M 72.5,91.5 C 73.209,90.596 74.209,90.2627 75.5,90.5C 75.3359,93.1873 75.5026,95.854 76,98.5C 76.7172,97.9558 77.2172,97.2891 77.5,96.5C 78.1667,96.8333 78.8333,97.1667 79.5,97.5C 80.8539,101.032 82.8539,104.198 85.5,107C 84.0563,107.781 82.723,107.614 81.5,106.5C 80.1891,103.865 78.5224,101.531 76.5,99.5C 75.5258,101.743 75.1924,104.076 75.5,106.5C 73.8587,101.749 72.8587,96.7486 72.5,91.5 Z"/></g>
<g><path style="opacity:1" fill="#344e69" d="M 109.5,90.5 C 111.733,95.2987 114.233,99.9654 117,104.5C 117.333,99.8333 117.667,95.1667 118,90.5C 118.499,96.1569 118.666,101.824 118.5,107.5C 117.178,107.67 116.011,107.337 115,106.5C 113.075,102.313 110.908,98.3133 108.5,94.5C 107.859,93.5178 107.193,92.5178 106.5,91.5C 107.325,90.6143 108.325,90.281 109.5,90.5 Z"/></g>
<g><path style="opacity:1" fill="#95a4b4" d="M 137.5,99.5 C 138.209,98.596 139.209,98.2627 140.5,98.5C 140.806,101.385 140.473,104.052 139.5,106.5C 140.01,103.612 139.344,101.279 137.5,99.5 Z"/></g>
<g><path style="opacity:1" fill="#9aa2ad" d="M 7.5,106.5 C 7.83333,106.5 8.16667,106.5 8.5,106.5C 18.538,106.309 18.2047,106.309 7.5,106.5 Z"/></g>
<g><path style="opacity:1" fill="#9fa5af" d="M 28.5,105.5 C 30.3792,106.341 32.3792,106.675 34.5,106.5C 34.8333,106.5 35.1667,106.5 35.5,106.5C 33.1667,107.833 30.8333,107.833 28.5,106.5C 28.5,106.167 28.5,105.833 28.5,105.5 Z"/></g>
<g><path style="opacity:1" fill="#99a0ae" d="M 59.5,105.5 C 59.5,105.833 59.5,106.167 59.5,106.5C 57.1667,107.833 54.8333,107.833 52.5,106.5C 52.8333,106.5 53.1667,106.5 53.5,106.5C 55.6208,106.675 57.6208,106.341 59.5,105.5 Z"/></g>
<g><path style="opacity:1" fill="#9ca6b0" d="M 183.5,105.5 C 185.379,106.341 187.379,106.675 189.5,106.5C 189.833,106.5 190.167,106.5 190.5,106.5C 188.167,107.833 185.833,107.833 183.5,106.5C 183.5,106.167 183.5,105.833 183.5,105.5 Z"/></g>
<g><path style="opacity:1" fill="#959ca3" d="M 252.5,101.5 C 252.435,103.696 251.768,105.696 250.5,107.5C 250.167,107.333 249.833,107.167 249.5,107C 250.229,104.942 251.229,103.109 252.5,101.5 Z"/></g>
<g><path style="opacity:1" fill="#9ea8b5" d="M 308.5,105.5 C 310.379,106.341 312.379,106.675 314.5,106.5C 314.833,106.5 315.167,106.5 315.5,106.5C 312.833,107.833 310.167,107.833 307.5,106.5C 308.167,106.5 308.5,106.167 308.5,105.5 Z"/></g>
<g><path style="opacity:1" fill="#aab3bc" d="M 3.5,110.5 C 116.169,110.167 228.835,110.5 341.5,111.5C 285.167,111.833 228.833,112.167 172.5,112.5C 115.829,112.5 59.496,111.833 3.5,110.5 Z"/></g>
</svg>
