<?xml version="1.0" encoding="UTF-8"?>
<!DOCTYPE svg PUBLIC "-//W3C//DTD SVG 1.1//EN" "http://www.w3.org/Graphics/SVG/1.1/DTD/svg11.dtd">
<svg xmlns="http://www.w3.org/2000/svg" version="1.1" width="112px" height="86px" style="shape-rendering:geometricPrecision; text-rendering:geometricPrecision; image-rendering:optimizeQuality; fill-rule:evenodd; clip-rule:evenodd" xmlns:xlink="http://www.w3.org/1999/xlink">
<g><path style="opacity:0.113" fill="#020202" d="M 107.5,3.5 C 108.649,3.79106 109.316,4.62439 109.5,6C 108.2,11.766 105.7,16.9327 102,21.5C 93.2033,31.9652 84.0367,42.1319 74.5,52C 76.7632,53.617 78.7632,55.4503 80.5,57.5C 77.5251,56.3449 74.8584,54.6782 72.5,52.5C 72.44,51.9569 72.1067,51.6236 71.5,51.5C 70.1812,58.656 70.1812,65.656 71.5,72.5C 73.1703,72.2488 74.6703,71.5822 76,70.5C 79.7988,73.2969 83.2988,76.4636 86.5,80C 92.8364,84.2796 95.5031,82.7796 94.5,75.5C 96.7351,76.2858 97.7351,77.9524 97.5,80.5C 97.7516,83.7467 96.2516,85.0801 93,84.5C 91.0326,84.4581 89.1992,83.9581 87.5,83C 84.5,80 81.5,77 78.5,74C 75.8806,74.0833 73.214,74.25 70.5,74.5C 70.5,76.1667 70.5,77.8333 70.5,79.5C 61.7663,80.135 53.4329,79.4684 45.5,77.5C 52.8333,77.5 60.1667,77.5 67.5,77.5C 68.4614,75.7354 68.7947,73.7354 68.5,71.5C 69.032,57.8322 69.1987,44.1655 69,30.5C 68.2828,29.9558 67.7828,29.2891 67.5,28.5C 69.4044,28.7376 70.7377,29.7376 71.5,31.5C 70.8333,31.5 70.5,31.8333 70.5,32.5C 70.1707,38.5368 70.5041,44.5368 71.5,50.5C 72.1067,50.3764 72.44,50.0431 72.5,49.5C 82.4678,38.6945 92.3012,27.6945 102,16.5C 104.403,12.3653 106.237,8.03194 107.5,3.5 Z"/></g>
<g><path style="opacity:0.037" fill="#121313" d="M 9.5,9.5 C 14.0896,12.0864 18.0896,15.4198 21.5,19.5C 16.6187,17.2906 12.6187,13.9573 9.5,9.5 Z"/></g>
<g><path style="opacity:0.057" fill="#060607" d="M 2.5,14.5 C 7.28562,17.4454 11.9523,20.6121 16.5,24C 17.2524,24.6708 17.5858,25.5041 17.5,26.5C 13.3845,24.2245 9.38452,21.7245 5.5,19C 3.85883,17.871 2.85883,16.371 2.5,14.5 Z"/></g>
<g><path style="opacity:0.018" fill="#0a0a0a" d="M 28.5,17.5 C 30.0269,17.427 31.0269,18.0937 31.5,19.5C 29.9731,19.573 28.9731,18.9063 28.5,17.5 Z"/></g>
<g><path style="opacity:0.035" fill="#050505" d="M 31.5,19.5 C 33.4044,19.7376 34.7377,20.7376 35.5,22.5C 33.5956,22.2624 32.2623,21.2624 31.5,19.5 Z"/></g>
<g><path style="opacity:0.1" fill="#0a0b0b" d="M 35.5,22.5 C 39.6117,24.219 42.945,26.8856 45.5,30.5C 45.6716,31.4916 45.3382,32.1583 44.5,32.5C 44.2331,38.6324 44.2331,44.9657 44.5,51.5C 41.7743,51.7361 39.441,50.9028 37.5,49C 30.2988,43.6226 23.6322,37.7893 17.5,31.5C 25.7459,37.0666 33.7459,43.0666 41.5,49.5C 42.6644,42.5237 42.8311,35.5237 42,28.5C 39.3363,27.0016 37.1696,25.0016 35.5,22.5 Z"/></g>
<g><path style="opacity:0.04" fill="#1c1c1c" d="M 46.5,29.5 C 53.175,29.3337 59.8417,29.5004 66.5,30C 67.8228,30.8159 68.4894,31.9826 68.5,33.5C 66.1799,31.7739 63.5133,31.1072 60.5,31.5C 60.1667,31.5 59.8333,31.5 59.5,31.5C 57.5853,31.2155 55.9187,31.5489 54.5,32.5C 54.8269,42.015 54.4936,51.3483 53.5,60.5C 53.5,50.8333 53.5,41.1667 53.5,31.5C 51.8333,31.5 50.1667,31.5 48.5,31.5C 47.596,32.209 47.2627,33.209 47.5,34.5C 46.1667,35.1667 46.1667,35.8333 47.5,36.5C 47.1439,44.2382 47.6439,51.9048 49,59.5C 49.3001,50.4976 49.1335,41.4976 48.5,32.5C 49.8001,34.223 50.4668,36.3897 50.5,39C 51.2282,46.4839 51.5615,53.9839 51.5,61.5C 49.8212,61.2852 48.8212,61.9519 48.5,63.5C 47.2227,62.3064 46.5561,60.6397 46.5,58.5C 45.9065,49.8107 45.2398,41.1441 44.5,32.5C 45.3382,32.1583 45.6716,31.4916 45.5,30.5C 45.5,29.8333 45.8333,29.5 46.5,29.5 Z"/></g>
<g><path style="opacity:1" fill="#24466b" d="M 107.5,3.5 C 106.237,8.03194 104.403,12.3653 102,16.5C 92.3012,27.6945 82.4678,38.6945 72.5,49.5C 71.8333,43.8333 71.1667,38.1667 70.5,32.5C 70.5,31.8333 70.8333,31.5 71.5,31.5C 80.4686,23.6743 89.4686,15.841 98.5,8C 101.411,6.23891 104.411,4.73891 107.5,3.5 Z"/></g>
<g><path style="opacity:1" fill="#748796" d="M 9.5,9.5 C 12.6187,13.9573 16.6187,17.2906 21.5,19.5C 23.8333,18.8333 26.1667,18.1667 28.5,17.5C 28.9731,18.9063 29.9731,19.573 31.5,19.5C 32.2623,21.2624 33.5956,22.2624 35.5,22.5C 37.1696,25.0016 39.3363,27.0016 42,28.5C 42.8311,35.5237 42.6644,42.5237 41.5,49.5C 33.7459,43.0666 25.7459,37.0666 17.5,31.5C 17.5,29.8333 17.5,28.1667 17.5,26.5C 17.5858,25.5041 17.2524,24.6708 16.5,24C 11.9523,20.6121 7.28562,17.4454 2.5,14.5C 2.47649,9.16525 4.80983,7.49858 9.5,9.5 Z"/></g>
<g><path style="opacity:1" fill="#6a88a2" d="M 25.5,19.5 C 26.552,19.3505 27.552,19.5172 28.5,20C 32.9747,22.8141 37.1414,25.9808 41,29.5C 41.7991,34.0868 41.6324,38.5868 40.5,43C 37.4427,43.5539 35.2761,42.3873 34,39.5C 33.6667,40.1667 33.3333,40.8333 33,41.5C 31.635,39.1402 29.635,37.4735 27,36.5C 26.1392,33.6318 24.4725,31.2985 22,29.5C 20.0139,25.1268 21.1805,21.7935 25.5,19.5 Z"/></g>
<g><path style="opacity:0.241" fill="#c8c8c8" d="M 59.5,31.5 C 59.8333,31.5 60.1667,31.5 60.5,31.5C 60.5,31.8333 60.5,32.1667 60.5,32.5C 60.8264,41.3494 60.493,50.0161 59.5,58.5C 58.628,49.4756 58.628,40.4756 59.5,31.5 Z"/></g>
<g><path style="opacity:0.239" fill="#9da6ad" d="M 70.5,32.5 C 71.1667,38.1667 71.8333,43.8333 72.5,49.5C 72.44,50.0431 72.1067,50.3764 71.5,50.5C 70.5041,44.5368 70.1707,38.5368 70.5,32.5 Z"/></g>
<g><path style="opacity:0.086" fill="#bfbfc0" d="M 48.5,31.5 C 48.5,31.8333 48.5,32.1667 48.5,32.5C 49.1335,41.4976 49.3001,50.4976 49,59.5C 47.6439,51.9048 47.1439,44.2382 47.5,36.5C 47.5,35.8333 47.5,35.1667 47.5,34.5C 47.2627,33.209 47.596,32.209 48.5,31.5 Z"/></g>
<g><path style="opacity:0.141" fill="#010102" d="M 42.5,57.5 C 43.1667,57.5 43.8333,57.5 44.5,57.5C 44.5,58.8333 44.5,60.1667 44.5,61.5C 44.6641,64.1873 44.4974,66.854 44,69.5C 38.7905,74.0086 33.9572,78.8419 29.5,84C 27.1667,84.6667 24.8333,84.6667 22.5,84C 20.5743,83.5776 19.5743,82.4109 19.5,80.5C 24.403,83.9588 27.903,82.9588 30,77.5C 33.0228,75.3024 35.8562,72.969 38.5,70.5C 39.7942,69.7101 40.9609,68.7101 42,67.5C 42.4983,64.1832 42.665,60.8499 42.5,57.5 Z"/></g>
<g><path style="opacity:0.102" fill="#020202" d="M 80.5,57.5 C 84.734,59.3845 85.4007,62.2178 82.5,66C 83.7101,67.0391 84.7101,68.2058 85.5,69.5C 80.4114,68.0665 79.4114,65.2331 82.5,61C 81.695,59.8873 81.0283,58.7206 80.5,57.5 Z"/></g>
<g><path style="opacity:1" fill="#41566e" d="M 42.5,57.5 C 42.665,60.8499 42.4983,64.1832 42,67.5C 40.9609,68.7101 39.7942,69.7101 38.5,70.5C 39.1667,68.1667 39.8333,65.8333 40.5,63.5C 37.0504,62.7564 35.3838,64.0897 35.5,67.5C 33.5,67.8333 31.5,68.1667 29.5,68.5C 33.5344,64.4645 37.8677,60.7978 42.5,57.5 Z"/></g>
<g><path style="opacity:0.165" fill="#c4cdd6" d="M 72.5,52.5 C 71.5093,58.979 71.176,65.6457 71.5,72.5C 70.1812,65.656 70.1812,58.656 71.5,51.5C 72.1067,51.6236 72.44,51.9569 72.5,52.5 Z"/></g>
<g><path style="opacity:1" fill="#6f8496" d="M 72.5,52.5 C 74.8584,54.6782 77.5251,56.3449 80.5,57.5C 81.0283,58.7206 81.695,59.8873 82.5,61C 79.4114,65.2331 80.4114,68.0665 85.5,69.5C 87.674,69.7497 89.3406,70.7497 90.5,72.5C 91.2623,74.2624 92.5956,75.2624 94.5,75.5C 95.5031,82.7796 92.8364,84.2796 86.5,80C 83.2988,76.4636 79.7988,73.2969 76,70.5C 74.6703,71.5822 73.1703,72.2488 71.5,72.5C 71.176,65.6457 71.5093,58.979 72.5,52.5 Z"/></g>
<g><path style="opacity:0.729" fill="#afb6b9" d="M 67.5,28.5 C 67.7828,29.2891 68.2828,29.9558 69,30.5C 69.1987,44.1655 69.032,57.8322 68.5,71.5C 67.7326,72.172 67.0659,73.0053 66.5,74C 59.8085,74.1691 53.1419,74.6691 46.5,75.5C 53.6553,76.1667 60.6553,76.8334 67.5,77.5C 60.1667,77.5 52.8333,77.5 45.5,77.5C 45.8214,71.9738 45.4881,66.6405 44.5,61.5C 44.5,60.1667 44.5,58.8333 44.5,57.5C 44.5,55.5 44.5,53.5 44.5,51.5C 44.2331,44.9657 44.2331,38.6324 44.5,32.5C 45.2398,41.1441 45.9065,49.8107 46.5,58.5C 46.5561,60.6397 47.2227,62.3064 48.5,63.5C 55.0221,63.8235 61.3554,63.4902 67.5,62.5C 67.5,56.8333 67.5,51.1667 67.5,45.5C 68.4834,41.7016 68.8168,37.7016 68.5,33.5C 68.4894,31.9826 67.8228,30.8159 66.5,30C 59.8417,29.5004 53.175,29.3337 46.5,29.5C 53.3288,27.7793 60.3288,27.4459 67.5,28.5 Z M 66.5,68.5 C 60.7069,70.5087 54.7069,70.842 48.5,69.5C 51.0866,68.1836 54.0866,67.517 57.5,67.5C 60.6862,67.502 63.6862,67.8353 66.5,68.5 Z"/></g>
<g><path style="opacity:0.023" fill="#040404" d="M 66.5,68.5 C 63.6862,67.8353 60.6862,67.502 57.5,67.5C 54.0866,67.517 51.0866,68.1836 48.5,69.5C 48.44,70.0431 48.1067,70.3764 47.5,70.5C 46.5481,68.9547 46.2148,67.288 46.5,65.5C 53.175,65.3337 59.8417,65.5004 66.5,66C 67.7736,66.9772 67.7736,67.8106 66.5,68.5 Z"/></g>
<g><path style="opacity:0.035" fill="#2d2d2e" d="M 67.5,45.5 C 67.5,51.1667 67.5,56.8333 67.5,62.5C 66.5,62.5 65.5,62.5 64.5,62.5C 64.3335,53.1607 64.5002,43.8274 65,34.5C 67.2768,37.6986 68.1102,41.3652 67.5,45.5 Z"/></g>
<g><path style="opacity:0.026" fill="#000000" d="M 60.5,32.5 C 62.4711,41.1045 63.1377,50.1045 62.5,59.5C 61.209,59.7373 60.209,59.404 59.5,58.5C 60.493,50.0161 60.8264,41.3494 60.5,32.5 Z"/></g>
<g><path style="opacity:0.035" fill="#000000" d="M 54.5,32.5 C 56.4743,42.1107 57.141,52.1107 56.5,62.5C 54.8212,62.7148 53.8212,62.0481 53.5,60.5C 54.4936,51.3483 54.8269,42.015 54.5,32.5 Z"/></g>
<g><path style="opacity:0.034" fill="#0b0b0b" d="M 90.5,72.5 C 92.4044,72.7376 93.7377,73.7376 94.5,75.5C 92.5956,75.2624 91.2623,74.2624 90.5,72.5 Z"/></g>
<g><path style="opacity:0.555" fill="#4e5155" d="M 68.5,71.5 C 68.7947,73.7354 68.4614,75.7354 67.5,77.5C 60.6553,76.8334 53.6553,76.1667 46.5,75.5C 53.1419,74.6691 59.8085,74.1691 66.5,74C 67.0659,73.0053 67.7326,72.172 68.5,71.5 Z"/></g>
<g><path style="opacity:1" fill="#1b446b" d="M 38.5,70.5 C 37.8826,70.3893 37.3826,70.056 37,69.5C 34.2891,71.8444 31.4557,74.0111 28.5,76C 27.6634,77.0113 27.33,78.1779 27.5,79.5C 25.8333,79.5 24.1667,79.5 22.5,79.5C 22.281,78.325 22.6143,77.325 23.5,76.5C 24.6951,74.703 26.3618,73.703 28.5,73.5C 28.6287,71.7839 28.962,70.1172 29.5,68.5C 31.5,68.1667 33.5,67.8333 35.5,67.5C 35.3838,64.0897 37.0504,62.7564 40.5,63.5C 39.8333,65.8333 39.1667,68.1667 38.5,70.5 Z"/></g>
<g><path style="opacity:1" fill="#384f66" d="M 29.5,68.5 C 28.962,70.1172 28.6287,71.7839 28.5,73.5C 26.3618,73.703 24.6951,74.703 23.5,76.5C 22.6143,77.325 22.281,78.325 22.5,79.5C 24.1667,79.5 25.8333,79.5 27.5,79.5C 27.33,78.1779 27.6634,77.0113 28.5,76C 31.4557,74.0111 34.2891,71.8444 37,69.5C 37.3826,70.056 37.8826,70.3893 38.5,70.5C 35.8562,72.969 33.0228,75.3024 30,77.5C 27.903,82.9588 24.403,83.9588 19.5,80.5C 19.4914,78.6916 19.9914,77.0249 21,75.5C 23.9981,73.3323 26.8314,70.9989 29.5,68.5 Z"/></g>
</svg>
