<?xml version="1.0" encoding="UTF-8"?>
<!DOCTYPE svg PUBLIC "-//W3C//DTD SVG 1.1//EN" "http://www.w3.org/Graphics/SVG/1.1/DTD/svg11.dtd">
<svg xmlns="http://www.w3.org/2000/svg" version="1.1" width="296px" height="243px" style="shape-rendering:geometricPrecision; text-rendering:geometricPrecision; image-rendering:optimizeQuality; fill-rule:evenodd; clip-rule:evenodd" xmlns:xlink="http://www.w3.org/1999/xlink">
<g><path style="opacity:0.157" fill="#fbf6d0" d="M 127.5,19.5 C 118.339,17.0558 109.339,13.8892 100.5,10C 90.8918,7.91066 81.2251,5.91066 71.5,4C 58.2054,2.59262 45.2054,3.75929 32.5,7.5C 34.6489,5.25421 37.3156,3.75421 40.5,3C 49.4297,0.277854 58.4297,-0.0554797 67.5,2C 85.3195,4.45488 102.653,8.78821 119.5,15C 122.391,16.2742 125.058,17.7742 127.5,19.5 Z"/></g>
<g><path style="opacity:1" fill="#fbe994" d="M 127.5,19.5 C 132.492,24.4878 137.825,29.1545 143.5,33.5C 144.654,36.3196 145.987,38.9862 147.5,41.5C 149.416,46.4402 147.583,48.7736 142,48.5C 140.5,48 139,47.5 137.5,47C 135.5,43.1556 132.5,40.6556 128.5,39.5C 128.881,37.0582 128.214,36.3915 126.5,37.5C 122.994,35.9456 119.661,34.1123 116.5,32C 112.693,32.008 109.693,30.508 107.5,27.5C 102.004,26.9467 97.0044,25.1133 92.5,22C 87.3233,20.0392 81.99,18.7058 76.5,18C 75.386,16.4301 74.0526,15.0968 72.5,14C 64.2356,14.0659 55.9023,13.2325 47.5,11.5C 44.7131,10.5233 41.7131,10.19 38.5,10.5C 38.719,9.32496 38.3857,8.32496 37.5,7.5C 35.4714,8.84355 33.4714,10.1769 31.5,11.5C 31.8333,10.1667 32.1667,8.83333 32.5,7.5C 45.2054,3.75929 58.2054,2.59262 71.5,4C 81.2251,5.91066 90.8918,7.91066 100.5,10C 109.339,13.8892 118.339,17.0558 127.5,19.5 Z"/></g>
<g><path style="opacity:1" fill="#f6e8bd" d="M 32.5,7.5 C 32.1667,8.83333 31.8333,10.1667 31.5,11.5C 25.6621,14.5243 20.4954,18.5243 16,23.5C 13.043,31.9487 12.043,40.6154 13,49.5C 15.7082,53.576 18.2082,53.9094 20.5,50.5C 20.5,51.8333 20.5,53.1667 20.5,54.5C 20.1583,55.3382 19.4916,55.6716 18.5,55.5C 16.2163,55.0248 14.2163,54.0248 12.5,52.5C 10.139,49.2412 9.13903,45.5745 9.5,41.5C 8.82443,31.3213 12.1578,22.8213 19.5,16C 24.2036,13.6537 28.537,10.8204 32.5,7.5 Z"/></g>
<g><path style="opacity:1" fill="#fbd584" d="M 47.5,11.5 C 55.9023,13.2325 64.2356,14.0659 72.5,14C 74.0526,15.0968 75.386,16.4301 76.5,18C 81.99,18.7058 87.3233,20.0392 92.5,22C 97.0044,25.1133 102.004,26.9467 107.5,27.5C 109.693,30.508 112.693,32.008 116.5,32C 119.661,34.1123 122.994,35.9456 126.5,37.5C 128.214,36.3915 128.881,37.0582 128.5,39.5C 132.5,40.6556 135.5,43.1556 137.5,47C 139,47.5 140.5,48 142,48.5C 147.583,48.7736 149.416,46.4402 147.5,41.5C 149.38,41.2291 150.713,41.8958 151.5,43.5C 150.836,46.7128 148.836,48.8794 145.5,50C 138.919,51.886 132.252,53.386 125.5,54.5C 136.076,57.9041 146.576,61.5708 157,65.5C 158.762,65.0556 158.595,64.5556 156.5,64C 157,63.8333 157.5,63.6667 158,63.5C 161.561,64.3655 164.727,65.8655 167.5,68C 170.167,68.3333 172.833,68.6667 175.5,69C 179.895,71.2419 184.229,72.7419 188.5,73.5C 187.833,74.8333 186.833,75.8333 185.5,76.5C 181.799,78.0116 178.466,80.0116 175.5,82.5C 171.818,82.7109 168.818,84.0442 166.5,86.5C 164.565,85.8505 162.565,85.5172 160.5,85.5C 158.004,83.1937 155.004,81.6937 151.5,81C 149.934,80.235 148.601,80.4017 147.5,81.5C 145.079,78.8792 142.746,76.0458 140.5,73C 135.007,72.8345 129.673,72.0012 124.5,70.5C 120.426,69.0449 116.926,66.7116 114,63.5C 108.649,61.4539 103.149,59.9539 97.5,59C 94.0847,56.3496 90.2513,54.5162 86,53.5C 85.586,53.9574 85.086,54.2907 84.5,54.5C 83.1667,53.5 81.8333,52.5 80.5,51.5C 79.3926,52.0219 78.2259,52.3552 77,52.5C 74.4313,51.1316 71.9313,49.6316 69.5,48C 62.8406,47.8349 56.5073,46.3349 50.5,43.5C 48.2466,44.2531 46.4133,45.5864 45,47.5C 39.3486,42.9293 32.8486,40.4293 25.5,40C 24.2159,36.3846 21.8826,33.7179 18.5,32C 19.1136,30.87 19.1136,29.5366 18.5,28C 19.2529,26.1227 20.0862,24.2893 21,22.5C 25.7838,22.1999 28.9505,19.8666 30.5,15.5C 32.288,15.7852 33.9547,15.4519 35.5,14.5C 36.09,13.2011 37.09,12.3678 38.5,12C 41.4816,11.502 44.4816,11.3354 47.5,11.5 Z"/></g>
<g><path style="opacity:1" fill="#503412" d="M 48.5,61.5 C 48.5,62.8333 48.5,64.1667 48.5,65.5C 48.6309,66.3764 48.2975,67.0431 47.5,67.5C 46.8319,65.0312 46.1653,62.6979 45.5,60.5C 43.0036,50.504 36.6703,46.3373 26.5,48C 24.2663,49.6379 22.933,51.8045 22.5,54.5C 21.8333,54.5 21.1667,54.5 20.5,54.5C 20.5,53.1667 20.5,51.8333 20.5,50.5C 22.7574,44.372 27.0907,41.872 33.5,43C 42.0028,46.3353 47.0028,52.502 48.5,61.5 Z"/></g>
<g><path style="opacity:1" fill="#fce994" d="M 151.5,43.5 C 155.811,45.6557 160.145,47.8223 164.5,50C 171.934,50.7718 178.601,53.4385 184.5,58C 186.041,59.5793 187.208,61.4127 188,63.5C 188.744,66.89 189.577,70.2233 190.5,73.5C 189.833,73.5 189.167,73.5 188.5,73.5C 184.229,72.7419 179.895,71.2419 175.5,69C 172.833,68.6667 170.167,68.3333 167.5,68C 164.727,65.8655 161.561,64.3655 158,63.5C 157.5,63.6667 157,63.8333 156.5,64C 158.595,64.5556 158.762,65.0556 157,65.5C 146.576,61.5708 136.076,57.9041 125.5,54.5C 132.252,53.386 138.919,51.886 145.5,50C 148.836,48.8794 150.836,46.7128 151.5,43.5 Z"/></g>
<g><path style="opacity:1" fill="#ebcb8e" d="M 45.5,60.5 C 48.1727,69.4916 45.0061,74.1583 36,74.5C 33.2248,74.5908 30.7248,73.9241 28.5,72.5C 25.6769,71.0077 24.0102,68.6743 23.5,65.5C 22.7564,61.8815 22.423,58.2148 22.5,54.5C 22.933,51.8045 24.2663,49.6379 26.5,48C 36.6703,46.3373 43.0036,50.504 45.5,60.5 Z"/></g>
<g><path style="opacity:0.169" fill="#030201" d="M 12.5,52.5 C 14.2163,54.0248 16.2163,55.0248 18.5,55.5C 20.1708,58.9236 21.8374,62.2569 23.5,65.5C 24.0102,68.6743 25.6769,71.0077 28.5,72.5C 30.0391,75.1061 32.3724,76.4395 35.5,76.5C 42.2816,74.601 48.6149,71.9343 54.5,68.5C 61.077,70.8193 67.7436,73.1527 74.5,75.5C 74.8333,75.5 75.1667,75.5 75.5,75.5C 76.9303,76.5375 78.597,77.2041 80.5,77.5C 84.9399,79.5376 89.6066,81.2042 94.5,82.5C 100.615,84.8701 106.949,86.8701 113.5,88.5C 114.263,89.2679 115.263,89.7679 116.5,90C 117.085,91.3024 117.751,92.469 118.5,93.5C 121.274,105.027 128.274,109.694 139.5,107.5C 140.605,106.4 141.938,105.733 143.5,105.5C 145.298,103.888 147.298,102.388 149.5,101C 156.47,99.8385 163.47,99.0052 170.5,98.5C 174.509,100.421 178.843,101.588 183.5,102C 184.984,102.662 186.317,103.496 187.5,104.5C 187.703,106.044 188.37,107.378 189.5,108.5C 189,108.833 188.5,109.167 188,109.5C 177.365,106.706 166.531,105.873 155.5,107C 154.263,107.232 153.263,107.732 152.5,108.5C 148.511,110.667 144.178,111.834 139.5,112C 138.177,112.816 137.511,113.983 137.5,115.5C 136.5,116.167 135.5,116.833 134.5,117.5C 126.22,113.36 117.886,109.193 109.5,105C 105.831,103.721 102.164,102.554 98.5,101.5C 94.8333,101.5 91.1667,101.5 87.5,101.5C 83.8892,99.0692 79.8892,97.4025 75.5,96.5C 75.5,98.1667 75.5,99.8333 75.5,101.5C 68.7006,100.844 62.3673,98.6776 56.5,95C 53.4245,94.6543 50.4245,93.9876 47.5,93C 38.5694,88.5178 29.5694,84.1844 20.5,80C 15.7431,74.9122 12.2431,69.0789 10,62.5C 9.6956,58.9075 10.5289,55.5742 12.5,52.5 Z"/></g>
<g><path style="opacity:1" fill="#c99247" d="M 105.5,51.5 C 109.734,51.4059 112.067,53.4059 112.5,57.5C 107.717,58.3848 105.384,56.3848 105.5,51.5 Z"/></g>
<g><path style="opacity:1" fill="#5f3d14" d="M 28.5,51.5 C 29.8333,51.5 31.1667,51.5 32.5,51.5C 32.1895,56.8733 30.5228,57.54 27.5,53.5C 27.8627,52.8165 28.1961,52.1499 28.5,51.5 Z"/></g>
<g><path style="opacity:1" fill="#41250b" d="M 37.5,53.5 C 38.9744,54.4363 39.9744,55.7697 40.5,57.5C 39.4583,58.7911 38.2917,58.7911 37,57.5C 36.235,55.9343 36.4017,54.6009 37.5,53.5 Z"/></g>
<g><path style="opacity:0.329" fill="#fbf3d0" d="M 127.5,19.5 C 132.936,23.0897 138.27,26.9231 143.5,31C 145.457,34.9203 148.123,38.2536 151.5,41C 162.532,44.8971 173.199,49.5638 183.5,55C 190.868,62.0938 193.535,70.4272 191.5,80C 191.833,80.5 192.167,81 192.5,81.5C 193.417,80.8728 194.417,80.5394 195.5,80.5C 195.5,80.8333 195.5,81.1667 195.5,81.5C 193.858,83.0808 191.858,83.7475 189.5,83.5C 190.051,80.1933 190.384,76.8599 190.5,73.5C 189.577,70.2233 188.744,66.89 188,63.5C 187.208,61.4127 186.041,59.5793 184.5,58C 178.601,53.4385 171.934,50.7718 164.5,50C 160.145,47.8223 155.811,45.6557 151.5,43.5C 150.713,41.8958 149.38,41.2291 147.5,41.5C 145.987,38.9862 144.654,36.3196 143.5,33.5C 137.825,29.1545 132.492,24.4878 127.5,19.5 Z"/></g>
<g><path style="opacity:1" fill="#a68651" d="M 37.5,53.5 C 36.4017,54.6009 36.235,55.9343 37,57.5C 38.2917,58.7911 39.4583,58.7911 40.5,57.5C 41.0431,57.56 41.3764,57.8933 41.5,58.5C 40.3112,59.4287 38.9778,59.762 37.5,59.5C 37.4348,61.6957 36.7681,63.6957 35.5,65.5C 34.3554,64.2243 34.3554,62.891 35.5,61.5C 34.6171,60.452 33.9504,59.2853 33.5,58C 34.6301,56.2399 35.6301,54.4066 36.5,52.5C 37.1067,52.6236 37.44,52.9569 37.5,53.5 Z"/></g>
<g><path style="opacity:1" fill="#fbdf92" d="M 47.5,11.5 C 44.4816,11.3354 41.4816,11.502 38.5,12C 37.09,12.3678 36.09,13.2011 35.5,14.5C 33.9547,15.4519 32.288,15.7852 30.5,15.5C 28.9505,19.8666 25.7838,22.1999 21,22.5C 20.0862,24.2893 19.2529,26.1227 18.5,28C 19.1136,29.5366 19.1136,30.87 18.5,32C 21.8826,33.7179 24.2159,36.3846 25.5,40C 32.8486,40.4293 39.3486,42.9293 45,47.5C 46.4133,45.5864 48.2466,44.2531 50.5,43.5C 56.5073,46.3349 62.8406,47.8349 69.5,48C 71.9313,49.6316 74.4313,51.1316 77,52.5C 78.2259,52.3552 79.3926,52.0219 80.5,51.5C 81.8333,52.5 83.1667,53.5 84.5,54.5C 85.086,54.2907 85.586,53.9574 86,53.5C 90.2513,54.5162 94.0847,56.3496 97.5,59C 103.149,59.9539 108.649,61.4539 114,63.5C 116.926,66.7116 120.426,69.0449 124.5,70.5C 122.911,72.3056 120.911,73.6389 118.5,74.5C 116.55,73.6279 114.55,72.9612 112.5,72.5C 108.451,69.4699 103.784,67.6365 98.5,67C 91.913,66.2882 85.413,65.1215 79,63.5C 77.1063,63.5798 75.2729,63.9131 73.5,64.5C 72.6747,60.8776 72.1747,57.211 72,53.5C 71.8078,55.5767 71.3078,57.5767 70.5,59.5C 68.0669,58.27 65.5669,57.27 63,56.5C 59.9049,57.3949 56.7383,57.3949 53.5,56.5C 53.7989,58.604 53.4656,60.604 52.5,62.5C 51.3756,57.2792 50.5423,57.2792 50,62.5C 49.6174,61.944 49.1174,61.6107 48.5,61.5C 47.0028,52.502 42.0028,46.3353 33.5,43C 27.0907,41.872 22.7574,44.372 20.5,50.5C 18.2082,53.9094 15.7082,53.576 13,49.5C 12.043,40.6154 13.043,31.9487 16,23.5C 20.4954,18.5243 25.6621,14.5243 31.5,11.5C 33.4714,10.1769 35.4714,8.84355 37.5,7.5C 38.3857,8.32496 38.719,9.32496 38.5,10.5C 41.7131,10.19 44.7131,10.5233 47.5,11.5 Z"/></g>
<g><path style="opacity:1" fill="#5b3a0f" d="M 26.5,58.5 C 28.0217,59.4312 29.3551,60.5979 30.5,62C 29.9931,64.3413 28.8265,64.8413 27,63.5C 26.5065,61.8659 26.3398,60.1992 26.5,58.5 Z"/></g>
<g><path style="opacity:0.843" fill="#a38e6e" d="M 20.5,54.5 C 21.1667,54.5 21.8333,54.5 22.5,54.5C 22.423,58.2148 22.7564,61.8815 23.5,65.5C 21.8374,62.2569 20.1708,58.9236 18.5,55.5C 19.4916,55.6716 20.1583,55.3382 20.5,54.5 Z"/></g>
<g><path style="opacity:1" fill="#816632" d="M 39.5,62.5 C 40.5,62.5 41.5,62.5 42.5,62.5C 42.7361,65.2257 41.9028,67.559 40,69.5C 38.1932,67.294 38.0265,64.9606 39.5,62.5 Z"/></g>
<g><path style="opacity:1" fill="#3c1907" d="M 35.5,69.5 C 34.3684,70.3543 33.035,70.3543 31.5,69.5C 32.8333,65.5 34.1667,65.5 35.5,69.5 Z"/></g>
<g><path style="opacity:1" fill="#f5ca81" d="M 112.5,72.5 C 112.272,75.9264 113.605,78.593 116.5,80.5C 115.511,82.5862 114.178,84.2529 112.5,85.5C 109.603,85.6813 106.77,85.3479 104,84.5C 97.8519,81.7005 91.6853,78.8672 85.5,76C 82.1832,75.5017 78.8499,75.335 75.5,75.5C 75.1667,75.5 74.8333,75.5 74.5,75.5C 68.5729,71.4307 61.9062,69.0974 54.5,68.5C 52.4123,67.7992 50.4123,66.7992 48.5,65.5C 48.5,64.1667 48.5,62.8333 48.5,61.5C 49.1174,61.6107 49.6174,61.944 50,62.5C 50.5423,57.2792 51.3756,57.2792 52.5,62.5C 53.4656,60.604 53.7989,58.604 53.5,56.5C 56.7383,57.3949 59.9049,57.3949 63,56.5C 65.5669,57.27 68.0669,58.27 70.5,59.5C 71.3078,57.5767 71.8078,55.5767 72,53.5C 72.1747,57.211 72.6747,60.8776 73.5,64.5C 75.2729,63.9131 77.1063,63.5798 79,63.5C 85.413,65.1215 91.913,66.2882 98.5,67C 103.784,67.6365 108.451,69.4699 112.5,72.5 Z"/></g>
<g><path style="opacity:0.984" fill="#8a6b41" d="M 45.5,60.5 C 46.1653,62.6979 46.8319,65.0312 47.5,67.5C 48.2975,67.0431 48.6309,66.3764 48.5,65.5C 50.4123,66.7992 52.4123,67.7992 54.5,68.5C 48.6149,71.9343 42.2816,74.601 35.5,76.5C 32.3724,76.4395 30.0391,75.1061 28.5,72.5C 30.7248,73.9241 33.2248,74.5908 36,74.5C 45.0061,74.1583 48.1727,69.4916 45.5,60.5 Z"/></g>
<g><path style="opacity:1" fill="#885d33" d="M 31.5,69.5 C 33.035,70.3543 34.3684,70.3543 35.5,69.5C 38.2974,70.8082 38.1308,71.4749 35,71.5C 33.3009,71.6134 32.1342,70.9468 31.5,69.5 Z"/></g>
<g><path style="opacity:0.929" fill="#9c804e" d="M 54.5,68.5 C 61.9062,69.0974 68.5729,71.4307 74.5,75.5C 67.7436,73.1527 61.077,70.8193 54.5,68.5 Z"/></g>
<g><path style="opacity:1" fill="#bc9a60" d="M 75.5,75.5 C 78.8499,75.335 82.1832,75.5017 85.5,76C 91.6853,78.8672 97.8519,81.7005 104,84.5C 106.77,85.3479 109.603,85.6813 112.5,85.5C 113.306,86.7281 114.306,87.7281 115.5,88.5C 114.833,88.5 114.167,88.5 113.5,88.5C 106.949,86.8701 100.615,84.8701 94.5,82.5C 90.3697,79.6761 85.703,78.0094 80.5,77.5C 78.597,77.2041 76.9303,76.5375 75.5,75.5 Z"/></g>
<g><path style="opacity:0.651" fill="#7c643d" d="M 80.5,77.5 C 85.703,78.0094 90.3697,79.6761 94.5,82.5C 89.6066,81.2042 84.9399,79.5376 80.5,77.5 Z"/></g>
<g><path style="opacity:1" fill="#553a18" d="M 136.5,75.5 C 128.69,76.7972 129.024,77.6305 137.5,78C 139.405,79.87 141.572,81.37 144,82.5C 144.791,83.745 145.291,85.0783 145.5,86.5C 145.167,86.5 144.833,86.5 144.5,86.5C 139.812,80.166 133.479,77.666 125.5,79C 122.921,80.0757 121.254,81.909 120.5,84.5C 118.735,87.1226 118.068,90.1226 118.5,93.5C 117.751,92.469 117.085,91.3024 116.5,90C 115.263,89.7679 114.263,89.2679 113.5,88.5C 114.167,88.5 114.833,88.5 115.5,88.5C 116.509,83.9781 118.509,79.8115 121.5,76C 126.594,74.3184 131.594,74.1517 136.5,75.5 Z"/></g>
<g><path style="opacity:1" fill="#3e1f09" d="M 136.5,75.5 C 143.817,78.4769 148.15,83.8102 149.5,91.5C 149.799,93.604 149.466,95.604 148.5,97.5C 147.774,93.7258 146.774,90.0591 145.5,86.5C 145.291,85.0783 144.791,83.745 144,82.5C 141.572,81.37 139.405,79.87 137.5,78C 129.024,77.6305 128.69,76.7972 136.5,75.5 Z"/></g>
<g><path style="opacity:1" fill="#c3995f" d="M 185.5,76.5 C 184.973,80.3263 186.139,80.3263 189,76.5C 188.839,79.9776 187.672,83.1442 185.5,86C 184.092,86.3152 182.759,85.9819 181.5,85C 182.696,84.3457 182.696,83.8457 181.5,83.5C 179.833,84.5 178.5,85.8333 177.5,87.5C 176.678,85.8614 176.011,84.1947 175.5,82.5C 178.466,80.0116 181.799,78.0116 185.5,76.5 Z"/></g>
<g><path style="opacity:0.208" fill="#fcf3d1" d="M 264.5,107.5 C 256.128,104.648 249.128,99.8144 243.5,93C 229.084,83.0789 213.084,78.9122 195.5,80.5C 217.327,76.4972 235.994,82.6639 251.5,99C 256.24,101.36 260.574,104.193 264.5,107.5 Z"/></g>
<g><path style="opacity:1" fill="#9b7037" d="M 188.5,73.5 C 189.167,73.5 189.833,73.5 190.5,73.5C 190.384,76.8599 190.051,80.1933 189.5,83.5C 191.858,83.7475 193.858,83.0808 195.5,81.5C 196.922,81.7496 197.922,82.583 198.5,84C 204.96,84.0789 211.293,84.9122 217.5,86.5C 217.376,87.1067 217.043,87.44 216.5,87.5C 211.968,87.1818 207.634,87.5151 203.5,88.5C 202.094,88.9731 201.427,89.9731 201.5,91.5C 201.396,93.9728 200.396,94.6394 198.5,93.5C 197.5,94.1667 196.5,94.8333 195.5,95.5C 194.534,93.604 194.201,91.604 194.5,89.5C 195.5,89.5 196.5,89.5 197.5,89.5C 197.5,88.5 197.5,87.5 197.5,86.5C 195.097,86.393 193.264,87.393 192,89.5C 191.697,91.8884 190.863,94.0551 189.5,96C 188.552,96.4828 187.552,96.6495 186.5,96.5C 187.323,93.5394 187.99,90.5394 188.5,87.5C 184.919,88.9627 181.585,90.9627 178.5,93.5C 178.167,93.5 177.833,93.5 177.5,93.5C 176.308,92.4341 176.641,91.6008 178.5,91C 176.765,89.0155 175.432,89.3488 174.5,92C 168.813,94.0371 166.146,92.2038 166.5,86.5C 168.818,84.0442 171.818,82.7109 175.5,82.5C 176.011,84.1947 176.678,85.8614 177.5,87.5C 178.5,85.8333 179.833,84.5 181.5,83.5C 182.696,83.8457 182.696,84.3457 181.5,85C 182.759,85.9819 184.092,86.3152 185.5,86C 187.672,83.1442 188.839,79.9776 189,76.5C 186.139,80.3263 184.973,80.3263 185.5,76.5C 186.833,75.8333 187.833,74.8333 188.5,73.5 Z"/></g>
<g><path style="opacity:1" fill="#bc893a" d="M 160.5,85.5 C 160.756,87.7761 162.09,88.9428 164.5,89C 163.207,89.49 161.873,89.6567 160.5,89.5C 160.55,91.5901 159.55,92.9234 157.5,93.5C 155.164,92.999 153.164,91.999 151.5,90.5C 150.441,87.3821 149.108,84.3821 147.5,81.5C 148.601,80.4017 149.934,80.235 151.5,81C 155.004,81.6937 158.004,83.1937 160.5,85.5 Z"/></g>
<g><path style="opacity:0.475" fill="#d7bb8e" d="M 203.5,88.5 C 207.634,87.5151 211.968,87.1818 216.5,87.5C 220.762,89.208 225.096,91.0413 229.5,93C 230.167,94.3333 231.167,95.3333 232.5,96C 231.619,96.7083 230.953,97.5416 230.5,98.5C 224.292,99.0022 222.292,102.002 224.5,107.5C 226.301,109.587 226.635,111.921 225.5,114.5C 227.074,115.631 228.741,115.798 230.5,115C 229.074,112.289 229.408,109.789 231.5,107.5C 233.484,106.294 235.484,106.294 237.5,107.5C 238.626,108.808 238.626,110.142 237.5,111.5C 236.566,112.568 236.232,113.901 236.5,115.5C 232.19,116.08 227.857,116.414 223.5,116.5C 223.784,114.585 223.451,112.919 222.5,111.5C 222.5,108.833 222.5,106.167 222.5,103.5C 222.351,102.448 222.517,101.448 223,100.5C 225.08,98.8767 227.246,97.3767 229.5,96C 222.414,91.8099 214.747,89.3099 206.5,88.5C 205.5,88.5 204.5,88.5 203.5,88.5 Z M 233.5,107.5 C 236.569,107.963 237.069,109.296 235,111.5C 233.812,110.437 233.312,109.103 233.5,107.5 Z"/></g>
<g><path style="opacity:1" fill="#d19f57" d="M 160.5,85.5 C 162.565,85.5172 164.565,85.8505 166.5,86.5C 166.146,92.2038 168.813,94.0371 174.5,92C 175.432,89.3488 176.765,89.0155 178.5,91C 176.641,91.6008 176.308,92.4341 177.5,93.5C 175.021,94.7949 172.354,95.7949 169.5,96.5C 164.567,97.5868 159.567,98.2534 154.5,98.5C 152.597,96.2602 151.597,93.5936 151.5,90.5C 153.164,91.999 155.164,92.999 157.5,93.5C 159.55,92.9234 160.55,91.5901 160.5,89.5C 161.873,89.6567 163.207,89.49 164.5,89C 162.09,88.9428 160.756,87.7761 160.5,85.5 Z"/></g>
<g><path style="opacity:1" fill="#ebc288" d="M 144.5,86.5 C 145.162,90.1573 145.829,93.824 146.5,97.5C 146.45,100.541 145.45,103.208 143.5,105.5C 141.938,105.733 140.605,106.4 139.5,107.5C 136.126,107.326 132.793,106.826 129.5,106C 131.833,105.667 134.167,105.333 136.5,105C 137.252,104.329 137.586,103.496 137.5,102.5C 136.391,102.443 135.391,102.11 134.5,101.5C 133.833,101.5 133.5,101.167 133.5,100.5C 133.782,99.2223 134.449,98.2223 135.5,97.5C 136.167,95.5 136.833,93.5 137.5,91.5C 138.833,91.5 140.167,91.5 141.5,91.5C 141.737,90.209 141.404,89.209 140.5,88.5C 139.833,87.1667 138.833,86.1667 137.5,85.5C 137.44,84.9569 137.107,84.6236 136.5,84.5C 135.571,85.6888 135.238,87.0222 135.5,88.5C 134.325,88.281 133.325,88.6143 132.5,89.5C 133.167,90.8333 133.833,92.1667 134.5,93.5C 134.376,94.1067 134.043,94.44 133.5,94.5C 131.915,93.5263 130.915,92.0263 130.5,90C 128.892,89.342 127.725,89.842 127,91.5C 126.173,90.3379 125.34,89.1712 124.5,88C 124.57,87.2352 124.903,86.7352 125.5,86.5C 129.472,89.6849 131.805,88.6849 132.5,83.5C 129.9,82.1544 127.567,82.4877 125.5,84.5C 123.833,84.5 122.167,84.5 120.5,84.5C 121.254,81.909 122.921,80.0757 125.5,79C 133.479,77.666 139.812,80.166 144.5,86.5 Z"/></g>
<g><path style="opacity:1" fill="#280d03" d="M 137.5,85.5 C 138.833,86.1667 139.833,87.1667 140.5,88.5C 139.817,90.1765 138.483,90.8432 136.5,90.5C 136.216,88.5853 136.549,86.9187 137.5,85.5 Z"/></g>
<g><path style="opacity:1" fill="#976c3e" d="M 137.5,85.5 C 136.549,86.9187 136.216,88.5853 136.5,90.5C 138.483,90.8432 139.817,90.1765 140.5,88.5C 141.404,89.209 141.737,90.209 141.5,91.5C 140.167,91.5 138.833,91.5 137.5,91.5C 136.833,93.5 136.167,95.5 135.5,97.5C 133.952,97.1788 133.285,96.1788 133.5,94.5C 134.043,94.44 134.376,94.1067 134.5,93.5C 133.833,92.1667 133.167,90.8333 132.5,89.5C 133.325,88.6143 134.325,88.281 135.5,88.5C 135.238,87.0222 135.571,85.6888 136.5,84.5C 137.107,84.6236 137.44,84.9569 137.5,85.5 Z"/></g>
<g><path style="opacity:1" fill="#edca90" d="M 124.5,70.5 C 129.673,72.0012 135.007,72.8345 140.5,73C 142.746,76.0458 145.079,78.8792 147.5,81.5C 149.108,84.3821 150.441,87.3821 151.5,90.5C 151.597,93.5936 152.597,96.2602 154.5,98.5C 153.432,99.4345 152.099,99.7678 150.5,99.5C 150.806,96.6146 150.473,93.9479 149.5,91.5C 148.15,83.8102 143.817,78.4769 136.5,75.5C 131.594,74.1517 126.594,74.3184 121.5,76C 118.509,79.8115 116.509,83.9781 115.5,88.5C 114.306,87.7281 113.306,86.7281 112.5,85.5C 114.178,84.2529 115.511,82.5862 116.5,80.5C 113.605,78.593 112.272,75.9264 112.5,72.5C 114.55,72.9612 116.55,73.6279 118.5,74.5C 120.911,73.6389 122.911,72.3056 124.5,70.5 Z"/></g>
<g><path style="opacity:1" fill="#5c3e18" d="M 125.5,86.5 C 125.5,85.8333 125.5,85.1667 125.5,84.5C 127.567,82.4877 129.9,82.1544 132.5,83.5C 131.805,88.6849 129.472,89.6849 125.5,86.5 Z"/></g>
<g><path style="opacity:0.176" fill="#e8d3af" d="M 186.5,96.5 C 183.058,97.1717 180.391,96.1717 178.5,93.5C 181.585,90.9627 184.919,88.9627 188.5,87.5C 187.99,90.5394 187.323,93.5394 186.5,96.5 Z M 185.5,89.5 C 186.801,91.456 186.301,93.1226 184,94.5C 183.25,93.8742 182.416,93.3742 181.5,93C 183.093,92.0513 184.426,90.8846 185.5,89.5 Z"/></g>
<g><path style="opacity:0.998" fill="#d6b177" d="M 120.5,84.5 C 122.167,84.5 123.833,84.5 125.5,84.5C 125.5,85.1667 125.5,85.8333 125.5,86.5C 124.903,86.7352 124.57,87.2352 124.5,88C 125.34,89.1712 126.173,90.3379 127,91.5C 127.725,89.842 128.892,89.342 130.5,90C 130.915,92.0263 131.915,93.5263 133.5,94.5C 133.285,96.1788 133.952,97.1788 135.5,97.5C 134.449,98.2223 133.782,99.2223 133.5,100.5C 131.449,97.8813 129.449,98.048 127.5,101C 129.906,103.938 132.24,104.105 134.5,101.5C 135.391,102.11 136.391,102.443 137.5,102.5C 137.586,103.496 137.252,104.329 136.5,105C 134.167,105.333 131.833,105.667 129.5,106C 132.793,106.826 136.126,107.326 139.5,107.5C 128.274,109.694 121.274,105.027 118.5,93.5C 118.068,90.1226 118.735,87.1226 120.5,84.5 Z"/></g>
<g><path style="opacity:1" fill="#5e3b15" d="M 125.5,92.5 C 127.984,94.0277 127.818,95.6944 125,97.5C 124.626,96.5838 124.126,95.7504 123.5,95C 124.381,94.2917 125.047,93.4584 125.5,92.5 Z"/></g>
<g><path style="opacity:1" fill="#825c31" d="M 137.5,102.5 C 137.007,100.194 136.674,97.861 136.5,95.5C 142.635,93.7318 143.968,95.7318 140.5,101.5C 139.675,102.386 138.675,102.719 137.5,102.5 Z"/></g>
<g><path style="opacity:0.831" fill="#8a6b45" d="M 144.5,86.5 C 144.833,86.5 145.167,86.5 145.5,86.5C 146.774,90.0591 147.774,93.7258 148.5,97.5C 149.466,95.604 149.799,93.604 149.5,91.5C 150.473,93.9479 150.806,96.6146 150.5,99.5C 152.099,99.7678 153.432,99.4345 154.5,98.5C 159.567,98.2534 164.567,97.5868 169.5,96.5C 169.833,97.1667 170.167,97.8333 170.5,98.5C 163.47,99.0052 156.47,99.8385 149.5,101C 147.298,102.388 145.298,103.888 143.5,105.5C 145.45,103.208 146.45,100.541 146.5,97.5C 145.829,93.824 145.162,90.1573 144.5,86.5 Z"/></g>
<g><path style="opacity:1" fill="#5a3c0e" d="M 133.5,100.5 C 133.5,101.167 133.833,101.5 134.5,101.5C 132.24,104.105 129.906,103.938 127.5,101C 129.449,98.048 131.449,97.8813 133.5,100.5 Z"/></g>
<g><path style="opacity:0.388" fill="#837f78" d="M 87.5,101.5 C 91.1667,101.5 94.8333,101.5 98.5,101.5C 93.6678,102.4 88.6678,103.066 83.5,103.5C 84.6715,102.655 86.0048,101.989 87.5,101.5 Z"/></g>
<g><path style="opacity:0.22" fill="#f7e6c4" d="M 203.5,88.5 C 204.5,88.5 205.5,88.5 206.5,88.5C 204.913,91.1694 204.079,94.1694 204,97.5C 197.919,102.2 198.752,105.7 206.5,108C 211.304,110.213 216.304,111.713 221.5,112.5C 221.19,109.287 221.523,106.287 222.5,103.5C 222.5,106.167 222.5,108.833 222.5,111.5C 222.5,112.5 222.5,113.5 222.5,114.5C 216.076,113.022 209.742,111.356 203.5,109.5C 202.5,107.833 201.167,106.5 199.5,105.5C 198.645,104.469 197.978,103.303 197.5,102C 201.301,99.1586 202.634,95.6586 201.5,91.5C 201.427,89.9731 202.094,88.9731 203.5,88.5 Z"/></g>
<g><path style="opacity:1" fill="#3a3939" d="M 98.5,101.5 C 102.164,102.554 105.831,103.721 109.5,105C 117.886,109.193 126.22,113.36 134.5,117.5C 134.598,119.553 133.931,121.22 132.5,122.5C 129.712,121.09 126.712,120.09 123.5,119.5C 117.539,121.364 116.872,124.698 121.5,129.5C 124.861,131.511 128.194,133.511 131.5,135.5C 131.414,136.496 131.748,137.329 132.5,138C 134.996,139.08 137.33,140.414 139.5,142C 141.387,142.78 143.054,142.613 144.5,141.5C 148.649,147.164 153.482,147.831 159,143.5C 159.495,141.527 159.662,139.527 159.5,137.5C 160.251,136.427 161.251,136.26 162.5,137C 165.034,139.365 167.367,141.865 169.5,144.5C 171.071,145.309 172.738,145.643 174.5,145.5C 174.5,146.833 174.5,148.167 174.5,149.5C 177.011,149.301 179.178,148.968 181,148.5C 184.645,151.195 187.811,154.195 190.5,157.5C 196.979,158.491 203.646,158.824 210.5,158.5C 205.025,159.489 199.358,159.822 193.5,159.5C 193.419,169.989 189.419,178.322 181.5,184.5C 179.669,185.052 178.003,185.052 176.5,184.5C 173.81,185.169 172.477,186.503 172.5,188.5C 169.111,186.849 166.445,187.683 164.5,191C 162.899,191.273 161.399,191.773 160,192.5C 151.124,192.96 141.958,192.46 132.5,191C 127.348,189.182 122.015,187.849 116.5,187C 109.814,183.632 103.147,180.299 96.5,177C 90.9813,172.738 85.6479,168.238 80.5,163.5C 79.914,163.709 79.414,164.043 79,164.5C 78.0438,161.623 76.7105,158.956 75,156.5C 74.161,159.14 74.661,161.473 76.5,163.5C 75.7579,164.287 74.9246,164.953 74,165.5C 74.9791,163.721 74.6458,162.055 73,160.5C 71.2041,162.402 71.0374,164.402 72.5,166.5C 70.9263,165.016 69.593,163.349 68.5,161.5C 60.145,142.3 62.4784,124.466 75.5,108C 77.8171,105.843 80.4838,104.343 83.5,103.5C 88.6678,103.066 93.6678,102.4 98.5,101.5 Z"/></g>
<g><path style="opacity:1" fill="#d8ad74" d="M 201.5,91.5 C 202.634,95.6586 201.301,99.1586 197.5,102C 197.978,103.303 198.645,104.469 199.5,105.5C 198.25,105.577 197.417,106.244 197,107.5C 194.894,104.882 192.394,102.882 189.5,101.5C 187.952,101.821 187.285,102.821 187.5,104.5C 186.317,103.496 184.984,102.662 183.5,102C 178.843,101.588 174.509,100.421 170.5,98.5C 170.167,97.8333 169.833,97.1667 169.5,96.5C 172.354,95.7949 175.021,94.7949 177.5,93.5C 177.833,93.5 178.167,93.5 178.5,93.5C 180.391,96.1717 183.058,97.1717 186.5,96.5C 187.552,96.6495 188.552,96.4828 189.5,96C 190.863,94.0551 191.697,91.8884 192,89.5C 193.264,87.393 195.097,86.393 197.5,86.5C 197.5,87.5 197.5,88.5 197.5,89.5C 196.5,89.5 195.5,89.5 194.5,89.5C 194.201,91.604 194.534,93.604 195.5,95.5C 196.5,94.8333 197.5,94.1667 198.5,93.5C 200.396,94.6394 201.396,93.9728 201.5,91.5 Z"/></g>
<g><path style="opacity:1" fill="#c29043" d="M 230.5,98.5 C 234.239,99.1337 237.572,100.634 240.5,103C 239.829,103.986 239.829,105.153 240.5,106.5C 238.253,106.085 236.086,105.418 234,104.5C 231.739,104.865 229.573,105.531 227.5,106.5C 225.262,103.567 224.262,103.901 224.5,107.5C 222.292,102.002 224.292,99.0022 230.5,98.5 Z"/></g>
<g><path style="opacity:0.855" fill="#9c8864" d="M 189.5,101.5 C 190.92,104.261 191.587,107.261 191.5,110.5C 190.167,110.5 188.833,110.5 187.5,110.5C 183.346,110.369 179.346,109.536 175.5,108C 167.805,107.309 160.139,107.475 152.5,108.5C 153.263,107.732 154.263,107.232 155.5,107C 166.531,105.873 177.365,106.706 188,109.5C 188.5,109.167 189,108.833 189.5,108.5C 188.37,107.378 187.703,106.044 187.5,104.5C 187.285,102.821 187.952,101.821 189.5,101.5 Z"/></g>
<g><path style="opacity:1" fill="#b58846" d="M 189.5,101.5 C 192.394,102.882 194.894,104.882 197,107.5C 197.417,106.244 198.25,105.577 199.5,105.5C 201.167,106.5 202.5,107.833 203.5,109.5C 201.685,112.407 199.019,113.741 195.5,113.5C 192.514,113.097 189.848,112.097 187.5,110.5C 188.833,110.5 190.167,110.5 191.5,110.5C 191.587,107.261 190.92,104.261 189.5,101.5 Z"/></g>
<g><path style="opacity:1" fill="#a3793c" d="M 240.5,106.5 C 240.842,107.338 241.508,107.672 242.5,107.5C 243.453,109.61 245.119,110.777 247.5,111C 246.584,111.278 245.918,111.778 245.5,112.5C 244.185,111.524 242.852,110.524 241.5,109.5C 240.281,110.263 239.281,111.263 238.5,112.5C 237.893,112.376 237.56,112.043 237.5,111.5C 238.626,110.142 238.626,108.808 237.5,107.5C 235.484,106.294 233.484,106.294 231.5,107.5C 229.408,109.789 229.074,112.289 230.5,115C 228.741,115.798 227.074,115.631 225.5,114.5C 226.635,111.921 226.301,109.587 224.5,107.5C 224.262,103.901 225.262,103.567 227.5,106.5C 229.573,105.531 231.739,104.865 234,104.5C 236.086,105.418 238.253,106.085 240.5,106.5 Z M 233.5,107.5 C 233.312,109.103 233.812,110.437 235,111.5C 237.069,109.296 236.569,107.963 233.5,107.5 Z"/></g>
<g><path style="opacity:1" fill="#d5a969" d="M 242.5,107.5 C 247.201,109.009 251.868,110.842 256.5,113C 260.355,116.048 264.021,118.548 267.5,120.5C 266.624,120.369 265.957,120.702 265.5,121.5C 266.833,122.62 267.333,123.953 267,125.5C 264.6,123.271 262.433,120.937 260.5,118.5C 256.563,114.037 251.563,112.037 245.5,112.5C 245.918,111.778 246.584,111.278 247.5,111C 245.119,110.777 243.453,109.61 242.5,107.5 Z"/></g>
<g><path style="opacity:1" fill="#e6bd80" d="M 203.5,109.5 C 209.742,111.356 216.076,113.022 222.5,114.5C 222.5,113.5 222.5,112.5 222.5,111.5C 223.451,112.919 223.784,114.585 223.5,116.5C 227.857,116.414 232.19,116.08 236.5,115.5C 236.232,113.901 236.566,112.568 237.5,111.5C 237.56,112.043 237.893,112.376 238.5,112.5C 239.281,111.263 240.281,110.263 241.5,109.5C 242.852,110.524 244.185,111.524 245.5,112.5C 245.231,115.015 244.231,117.015 242.5,118.5C 242.631,117.761 242.464,117.094 242,116.5C 240.887,117.711 239.72,117.711 238.5,116.5C 236.167,117.833 233.833,119.167 231.5,120.5C 232.949,121.172 234.282,121.839 235.5,122.5C 232.023,123.323 228.356,123.823 224.5,124C 227.051,124.002 229.051,124.836 230.5,126.5C 227.5,125.833 224.5,125.167 221.5,124.5C 212.351,121.924 203.685,118.258 195.5,113.5C 199.019,113.741 201.685,112.407 203.5,109.5 Z"/></g>
<g><path style="opacity:1" fill="#f9d688" d="M 187.5,110.5 C 189.848,112.097 192.514,113.097 195.5,113.5C 203.685,118.258 212.351,121.924 221.5,124.5C 221.5,125.167 221.167,125.5 220.5,125.5C 219.624,125.369 218.957,125.702 218.5,126.5C 220.69,128.856 222.69,131.356 224.5,134C 229.767,135.191 235.101,135.691 240.5,135.5C 243.518,135.2 245.518,133.533 246.5,130.5C 245.643,129.575 244.643,128.908 243.5,128.5C 246.864,128.095 249.864,126.762 252.5,124.5C 253.953,124.929 255.619,125.096 257.5,125C 258.059,125.725 258.392,126.558 258.5,127.5C 255.693,130.784 253.693,134.451 252.5,138.5C 253.5,138.5 254.5,138.5 255.5,138.5C 260.945,139.876 266.278,141.876 271.5,144.5C 269.949,146.913 269.283,149.579 269.5,152.5C 269.167,152.5 268.833,152.5 268.5,152.5C 257.776,148.817 246.776,146.15 235.5,144.5C 231.124,142.862 226.458,142.029 221.5,142C 223.878,141.489 226.212,140.822 228.5,140C 226.131,136.774 223.131,134.608 219.5,133.5C 219.838,130.675 218.838,128.508 216.5,127C 212.5,126.333 208.5,125.667 204.5,125C 205.167,124.667 205.833,124.333 206.5,124C 201.623,121.527 196.623,119.36 191.5,117.5C 191.167,116.833 190.833,116.167 190.5,115.5C 185.868,114.672 181.202,114.172 176.5,114C 173.649,111.075 170.149,109.909 166,110.5C 163.39,110.533 161.223,111.2 159.5,112.5C 155.291,110.376 152.625,111.543 151.5,116C 146.943,116.391 144.609,118.891 144.5,123.5C 144.634,125.292 144.301,126.958 143.5,128.5C 142.523,131.287 142.19,134.287 142.5,137.5C 139.077,137.872 136.577,136.539 135,133.5C 134.063,127.179 134.896,121.179 137.5,115.5C 137.511,113.983 138.177,112.816 139.5,112C 144.178,111.834 148.511,110.667 152.5,108.5C 160.139,107.475 167.805,107.309 175.5,108C 179.346,109.536 183.346,110.369 187.5,110.5 Z M 221.5,124.5 C 224.5,125.167 227.5,125.833 230.5,126.5C 232.705,128.363 234.039,130.697 234.5,133.5C 227.719,134.445 223.053,131.779 220.5,125.5C 221.167,125.5 221.5,125.167 221.5,124.5 Z"/></g>
<g><path style="opacity:1" fill="#ebb457" d="M 159.5,112.5 C 160.833,113.167 162.167,113.833 163.5,114.5C 164.806,115.467 165.473,116.801 165.5,118.5C 164.612,121.987 162.279,123.32 158.5,122.5C 153.729,120.953 149.063,121.286 144.5,123.5C 144.609,118.891 146.943,116.391 151.5,116C 152.625,111.543 155.291,110.376 159.5,112.5 Z"/></g>
<g><path style="opacity:0.066" fill="#010100" d="M 198.5,130.5 C 193.588,130.063 188.922,130.896 184.5,133C 183.577,135.041 183.244,137.208 183.5,139.5C 182.833,139.5 182.5,139.833 182.5,140.5C 182.565,140.938 182.399,141.272 182,141.5C 178.493,140.413 174.993,139.247 171.5,138C 170.877,135.393 170.21,132.893 169.5,130.5C 169.595,127.303 168.928,124.303 167.5,121.5C 167.5,120.5 167.5,119.5 167.5,118.5C 179.357,119 189.69,123 198.5,130.5 Z"/></g>
<g><path style="opacity:0.914" fill="#99794f" d="M 163.5,114.5 C 171.504,114.752 179.171,116.419 186.5,119.5C 191.968,122.105 196.968,125.438 201.5,129.5C 200.609,130.11 199.609,130.443 198.5,130.5C 189.69,123 179.357,119 167.5,118.5C 167.5,119.5 167.5,120.5 167.5,121.5C 166.833,120.5 166.167,119.5 165.5,118.5C 165.473,116.801 164.806,115.467 163.5,114.5 Z"/></g>
<g><path style="opacity:1" fill="#b88741" d="M 242.5,118.5 C 242.068,119.71 241.401,120.71 240.5,121.5C 238.708,121.366 237.042,121.699 235.5,122.5C 234.282,121.839 232.949,121.172 231.5,120.5C 233.833,119.167 236.167,117.833 238.5,116.5C 239.72,117.711 240.887,117.711 242,116.5C 242.464,117.094 242.631,117.761 242.5,118.5 Z"/></g>
<g><path style="opacity:1" fill="#131211" d="M 132.5,122.5 C 132.5,124.167 132.5,125.833 132.5,127.5C 131.527,129.948 131.194,132.615 131.5,135.5C 128.194,133.511 124.861,131.511 121.5,129.5C 116.872,124.698 117.539,121.364 123.5,119.5C 126.712,120.09 129.712,121.09 132.5,122.5 Z"/></g>
<g><path style="opacity:1" fill="#f7d38b" d="M 195.5,81.5 C 195.5,81.1667 195.5,80.8333 195.5,80.5C 213.084,78.9122 229.084,83.0789 243.5,93C 249.128,99.8144 256.128,104.648 264.5,107.5C 265.167,107.833 265.833,108.167 266.5,108.5C 266.343,109.873 266.51,111.207 267,112.5C 269.901,113.237 272.068,114.903 273.5,117.5C 276.368,119.52 279.535,121.186 283,122.5C 283.273,124.329 284.107,125.829 285.5,127C 284.915,128.302 284.249,129.469 283.5,130.5C 282.199,129.36 281.032,128.027 280,126.5C 280.937,132.08 278.77,134.246 273.5,133C 272.165,128.497 270.165,124.331 267.5,120.5C 264.021,118.548 260.355,116.048 256.5,113C 251.868,110.842 247.201,109.009 242.5,107.5C 241.508,107.672 240.842,107.338 240.5,106.5C 239.829,105.153 239.829,103.986 240.5,103C 237.572,100.634 234.239,99.1337 230.5,98.5C 230.953,97.5416 231.619,96.7083 232.5,96C 231.167,95.3333 230.167,94.3333 229.5,93C 225.096,91.0413 220.762,89.208 216.5,87.5C 217.043,87.44 217.376,87.1067 217.5,86.5C 211.293,84.9122 204.96,84.0789 198.5,84C 197.922,82.583 196.922,81.7496 195.5,81.5 Z"/></g>
<g><path style="opacity:0.8" fill="#a88353" d="M 240.5,121.5 C 240.279,122.735 239.612,123.735 238.5,124.5C 239.975,126.071 241.642,127.405 243.5,128.5C 244.643,128.908 245.643,129.575 246.5,130.5C 245.518,133.533 243.518,135.2 240.5,135.5C 237.823,131.862 234.49,128.862 230.5,126.5C 229.051,124.836 227.051,124.002 224.5,124C 228.356,123.823 232.023,123.323 235.5,122.5C 237.042,121.699 238.708,121.366 240.5,121.5 Z"/></g>
<g><path style="opacity:1" fill="#97703e" d="M 158.5,122.5 C 160.789,124.448 163.122,126.448 165.5,128.5C 167.336,131.479 168.002,134.479 167.5,137.5C 166.508,137.672 165.842,137.338 165.5,136.5C 162.298,133.158 159.298,129.491 156.5,125.5C 155.675,124.614 154.675,124.281 153.5,124.5C 153.5,125.833 153.5,127.167 153.5,128.5C 150.994,127.25 148.327,126.584 145.5,126.5C 145.567,127.959 145.234,129.292 144.5,130.5C 144.5,133.833 144.5,137.167 144.5,140.5C 143.833,140.5 143.167,140.5 142.5,140.5C 143.43,136.6 143.763,132.6 143.5,128.5C 144.301,126.958 144.634,125.292 144.5,123.5C 149.063,121.286 153.729,120.953 158.5,122.5 Z"/></g>
<g><path style="opacity:1" fill="#d4b990" d="M 245.5,112.5 C 251.563,112.037 256.563,114.037 260.5,118.5C 259.45,118.905 259.45,119.571 260.5,120.5C 257.34,120.983 254.674,122.316 252.5,124.5C 249.864,126.762 246.864,128.095 243.5,128.5C 241.642,127.405 239.975,126.071 238.5,124.5C 239.612,123.735 240.279,122.735 240.5,121.5C 241.401,120.71 242.068,119.71 242.5,118.5C 244.231,117.015 245.231,115.015 245.5,112.5 Z M 248.5,114.5 C 252.024,114.929 255.024,116.429 257.5,119C 254.64,121.36 251.64,123.527 248.5,125.5C 246.483,124.826 244.817,123.659 243.5,122C 245.389,119.618 247.055,117.118 248.5,114.5 Z"/></g>
<g><path style="opacity:1" fill="#91612c" d="M 186.5,119.5 C 196.009,122.588 205.009,126.755 213.5,132C 210.445,132.634 207.445,132.468 204.5,131.5C 203.71,130.599 202.71,129.932 201.5,129.5C 196.968,125.438 191.968,122.105 186.5,119.5 Z"/></g>
<g><path style="opacity:1" fill="#c0a16d" d="M 165.5,118.5 C 166.167,119.5 166.833,120.5 167.5,121.5C 168.928,124.303 169.595,127.303 169.5,130.5C 169.5,133.167 169.5,135.833 169.5,138.5C 168.833,138.167 168.167,137.833 167.5,137.5C 168.002,134.479 167.336,131.479 165.5,128.5C 163.122,126.448 160.789,124.448 158.5,122.5C 162.279,123.32 164.612,121.987 165.5,118.5 Z"/></g>
<g><path style="opacity:1" fill="#aa7c3c" d="M 260.5,118.5 C 262.433,120.937 264.6,123.271 267,125.5C 267.333,123.953 266.833,122.62 265.5,121.5C 265.957,120.702 266.624,120.369 267.5,120.5C 270.165,124.331 272.165,128.497 273.5,133C 278.77,134.246 280.937,132.08 280,126.5C 281.032,128.027 282.199,129.36 283.5,130.5C 283.162,132.854 282.662,135.187 282,137.5C 280.929,134.887 280.095,134.887 279.5,137.5C 276.813,137.664 274.146,137.497 271.5,137C 270.736,134.931 270.236,132.764 270,130.5C 269.23,129.402 268.397,129.402 267.5,130.5C 266.404,126.199 264.238,125.532 261,128.5C 260.383,129.449 260.549,130.282 261.5,131C 260.619,131.708 259.953,132.542 259.5,133.5C 257.071,134.265 255.738,135.931 255.5,138.5C 254.5,138.5 253.5,138.5 252.5,138.5C 253.693,134.451 255.693,130.784 258.5,127.5C 258.392,126.558 258.059,125.725 257.5,125C 255.619,125.096 253.953,124.929 252.5,124.5C 254.674,122.316 257.34,120.983 260.5,120.5C 259.45,119.571 259.45,118.905 260.5,118.5 Z M 265.5,130.5 C 266.404,131.209 266.737,132.209 266.5,133.5C 261.548,133.81 261.214,132.81 265.5,130.5 Z"/></g>
<g><path style="opacity:0.814" fill="#e7cdaa" d="M 201.5,129.5 C 202.71,129.932 203.71,130.599 204.5,131.5C 200.566,132.36 196.566,132.693 192.5,132.5C 186.859,131.789 183.859,134.122 183.5,139.5C 183.244,137.208 183.577,135.041 184.5,133C 188.922,130.896 193.588,130.063 198.5,130.5C 199.609,130.443 200.609,130.11 201.5,129.5 Z"/></g>
<g><path style="opacity:1" fill="#e2c594" d="M 137.5,115.5 C 134.896,121.179 134.063,127.179 135,133.5C 136.577,136.539 139.077,137.872 142.5,137.5C 142.19,134.287 142.523,131.287 143.5,128.5C 143.763,132.6 143.43,136.6 142.5,140.5C 134.62,139.624 131.287,135.291 132.5,127.5C 132.5,125.833 132.5,124.167 132.5,122.5C 133.931,121.22 134.598,119.553 134.5,117.5C 135.5,116.833 136.5,116.167 137.5,115.5 Z"/></g>
<g><path style="opacity:1" fill="#7b664c" d="M 165.5,136.5 C 161.322,134.01 157.322,131.343 153.5,128.5C 153.5,127.167 153.5,125.833 153.5,124.5C 154.675,124.281 155.675,124.614 156.5,125.5C 159.298,129.491 162.298,133.158 165.5,136.5 Z"/></g>
<g><path style="opacity:0.378" fill="#bba37b" d="M 220.5,125.5 C 223.053,131.779 227.719,134.445 234.5,133.5C 234.039,130.697 232.705,128.363 230.5,126.5C 234.49,128.862 237.823,131.862 240.5,135.5C 235.101,135.691 229.767,135.191 224.5,134C 222.69,131.356 220.69,128.856 218.5,126.5C 218.957,125.702 219.624,125.369 220.5,125.5 Z"/></g>
<g><path style="opacity:1" fill="#f5ca80" d="M 235.5,144.5 C 229.536,143.693 223.536,143.36 217.5,143.5C 211.276,143.143 205.276,141.976 199.5,140C 201.167,139.667 202.833,139.333 204.5,139C 202,138.5 199.5,138 197,137.5C 194.914,138.418 192.747,139.085 190.5,139.5C 190.52,137.857 189.853,136.524 188.5,135.5C 189.624,134.141 190.958,133.141 192.5,132.5C 196.566,132.693 200.566,132.36 204.5,131.5C 207.445,132.468 210.445,132.634 213.5,132C 205.009,126.755 196.009,122.588 186.5,119.5C 179.171,116.419 171.504,114.752 163.5,114.5C 162.167,113.833 160.833,113.167 159.5,112.5C 161.223,111.2 163.39,110.533 166,110.5C 170.149,109.909 173.649,111.075 176.5,114C 181.202,114.172 185.868,114.672 190.5,115.5C 190.833,116.167 191.167,116.833 191.5,117.5C 196.623,119.36 201.623,121.527 206.5,124C 205.833,124.333 205.167,124.667 204.5,125C 208.5,125.667 212.5,126.333 216.5,127C 218.838,128.508 219.838,130.675 219.5,133.5C 223.131,134.608 226.131,136.774 228.5,140C 226.212,140.822 223.878,141.489 221.5,142C 226.458,142.029 231.124,142.862 235.5,144.5 Z"/></g>
<g><path style="opacity:0.757" fill="#e2caa3" d="M 267.5,130.5 C 267.907,136.934 265.241,138.767 259.5,136C 258.402,135.23 258.402,134.397 259.5,133.5C 259.953,132.542 260.619,131.708 261.5,131C 260.549,130.282 260.383,129.449 261,128.5C 264.238,125.532 266.404,126.199 267.5,130.5 Z M 265.5,130.5 C 261.214,132.81 261.548,133.81 266.5,133.5C 266.737,132.209 266.404,131.209 265.5,130.5 Z"/></g>
<g><path style="opacity:0.184" fill="#fbf1cf" d="M 266.5,108.5 C 271.673,114.157 278.006,117.991 285.5,120C 293.073,126.925 294.573,135.092 290,144.5C 288.524,150.119 286.024,155.119 282.5,159.5C 282.5,158.167 282.5,156.833 282.5,155.5C 288.798,147.428 291.465,138.094 290.5,127.5C 289.5,127.5 288.5,127.5 287.5,127.5C 287.657,126.127 287.49,124.793 287,123.5C 283.113,120.229 278.613,118.229 273.5,117.5C 272.068,114.903 269.901,113.237 267,112.5C 266.51,111.207 266.343,109.873 266.5,108.5 Z"/></g>
<g><path style="opacity:1" fill="#45381f" d="M 132.5,127.5 C 131.287,135.291 134.62,139.624 142.5,140.5C 143.167,140.5 143.833,140.5 144.5,140.5C 144.5,140.833 144.5,141.167 144.5,141.5C 143.054,142.613 141.387,142.78 139.5,142C 137.33,140.414 134.996,139.08 132.5,138C 131.748,137.329 131.414,136.496 131.5,135.5C 131.194,132.615 131.527,129.948 132.5,127.5 Z"/></g>
<g><path style="opacity:1" fill="#f6e0a9" d="M 273.5,117.5 C 278.613,118.229 283.113,120.229 287,123.5C 287.49,124.793 287.657,126.127 287.5,127.5C 288.5,127.5 289.5,127.5 290.5,127.5C 291.465,138.094 288.798,147.428 282.5,155.5C 283.49,152.849 284.49,150.183 285.5,147.5C 285.226,144.35 284.06,141.684 282,139.5C 281.228,139.645 280.561,139.978 280,140.5C 278.835,146.845 275.668,151.845 270.5,155.5C 269.833,155.5 269.167,155.5 268.5,155.5C 269.11,154.609 269.443,153.609 269.5,152.5C 269.283,149.579 269.949,146.913 271.5,144.5C 272.167,144.167 272.833,143.833 273.5,143.5C 274.038,141.883 274.371,140.216 274.5,138.5C 276.415,138.784 278.081,138.451 279.5,137.5C 280.095,134.887 280.929,134.887 282,137.5C 282.662,135.187 283.162,132.854 283.5,130.5C 284.249,129.469 284.915,128.302 285.5,127C 284.107,125.829 283.273,124.329 283,122.5C 279.535,121.186 276.368,119.52 273.5,117.5 Z M 273.5,143.5 C 274.847,142.972 276.181,142.805 277.5,143C 276,145.167 274.5,147.333 273,149.5C 272.5,149 272,148.5 271.5,148C 272.582,146.67 273.249,145.17 273.5,143.5 Z"/></g>
<g><path style="opacity:1" fill="#b69361" d="M 279.5,137.5 C 278.081,138.451 276.415,138.784 274.5,138.5C 274.371,140.216 274.038,141.883 273.5,143.5C 272.833,143.833 272.167,144.167 271.5,144.5C 266.278,141.876 260.945,139.876 255.5,138.5C 255.738,135.931 257.071,134.265 259.5,133.5C 258.402,134.397 258.402,135.23 259.5,136C 265.241,138.767 267.907,136.934 267.5,130.5C 268.397,129.402 269.23,129.402 270,130.5C 270.236,132.764 270.736,134.931 271.5,137C 274.146,137.497 276.813,137.664 279.5,137.5 Z"/></g>
<g><path style="opacity:1" fill="#151516" d="M 144.5,130.5 C 149.589,132.543 154.589,134.877 159.5,137.5C 159.662,139.527 159.495,141.527 159,143.5C 153.482,147.831 148.649,147.164 144.5,141.5C 144.5,141.167 144.5,140.833 144.5,140.5C 144.5,137.167 144.5,133.833 144.5,130.5 Z"/></g>
<g><path style="opacity:1" fill="#906125" d="M 217.5,143.5 C 218.64,144.801 219.973,145.968 221.5,147C 215.327,149.001 208.994,149.834 202.5,149.5C 202.167,149.5 201.833,149.5 201.5,149.5C 200.737,148.732 199.737,148.232 198.5,148C 202.272,147.594 205.939,146.761 209.5,145.5C 206.702,144.311 204.036,144.644 201.5,146.5C 198.811,146.455 197.477,145.121 197.5,142.5C 195.8,142.626 194.3,143.293 193,144.5C 193.025,142.678 192.192,141.012 190.5,139.5C 192.747,139.085 194.914,138.418 197,137.5C 199.5,138 202,138.5 204.5,139C 202.833,139.333 201.167,139.667 199.5,140C 205.276,141.976 211.276,143.143 217.5,143.5 Z"/></g>
<g><path style="opacity:1" fill="#3d382c" d="M 153.5,128.5 C 157.322,131.343 161.322,134.01 165.5,136.5C 165.842,137.338 166.508,137.672 167.5,137.5C 168.167,137.833 168.833,138.167 169.5,138.5C 177.082,142.754 183.748,148.088 189.5,154.5C 190.11,155.391 190.443,156.391 190.5,157.5C 187.811,154.195 184.645,151.195 181,148.5C 179.178,148.968 177.011,149.301 174.5,149.5C 174.5,148.167 174.5,146.833 174.5,145.5C 172.738,145.643 171.071,145.309 169.5,144.5C 167.367,141.865 165.034,139.365 162.5,137C 161.251,136.26 160.251,136.427 159.5,137.5C 154.589,134.877 149.589,132.543 144.5,130.5C 145.234,129.292 145.567,127.959 145.5,126.5C 148.327,126.584 150.994,127.25 153.5,128.5 Z"/></g>
<g><path style="opacity:1" fill="#a17a44" d="M 192.5,132.5 C 190.958,133.141 189.624,134.141 188.5,135.5C 189.853,136.524 190.52,137.857 190.5,139.5C 192.192,141.012 193.025,142.678 193,144.5C 194.3,143.293 195.8,142.626 197.5,142.5C 197.477,145.121 198.811,146.455 201.5,146.5C 204.036,144.644 206.702,144.311 209.5,145.5C 205.939,146.761 202.272,147.594 198.5,148C 199.737,148.232 200.737,148.732 201.5,149.5C 196.243,150.479 191.91,148.979 188.5,145C 186.975,143.991 185.308,143.491 183.5,143.5C 183.737,142.209 183.404,141.209 182.5,140.5C 182.5,139.833 182.833,139.5 183.5,139.5C 183.859,134.122 186.859,131.789 192.5,132.5 Z"/></g>
<g><path style="opacity:1" fill="#d6bf96" d="M 169.5,130.5 C 170.21,132.893 170.877,135.393 171.5,138C 174.993,139.247 178.493,140.413 182,141.5C 182.399,141.272 182.565,140.938 182.5,140.5C 183.404,141.209 183.737,142.209 183.5,143.5C 182.957,143.56 182.624,143.893 182.5,144.5C 183.274,145.711 184.107,145.711 185,144.5C 185.617,145.449 185.451,146.282 184.5,147C 187.063,149.062 189.063,151.562 190.5,154.5C 190.167,154.5 189.833,154.5 189.5,154.5C 183.748,148.088 177.082,142.754 169.5,138.5C 169.5,135.833 169.5,133.167 169.5,130.5 Z"/></g>
<g><path style="opacity:1" fill="#f7ca83" d="M 183.5,143.5 C 185.308,143.491 186.975,143.991 188.5,145C 191.91,148.979 196.243,150.479 201.5,149.5C 201.833,149.5 202.167,149.5 202.5,149.5C 206.517,150.253 210.684,150.92 215,151.5C 216.667,150.833 218.333,150.167 220,149.5C 221.03,149.836 221.53,150.503 221.5,151.5C 220.564,152.974 219.23,153.974 217.5,154.5C 213.552,155.938 209.385,156.605 205,156.5C 200.05,156.516 195.217,155.849 190.5,154.5C 189.063,151.562 187.063,149.062 184.5,147C 185.451,146.282 185.617,145.449 185,144.5C 184.107,145.711 183.274,145.711 182.5,144.5C 182.624,143.893 182.957,143.56 183.5,143.5 Z"/></g>
<g><path style="opacity:1" fill="#c59650" d="M 217.5,143.5 C 223.536,143.36 229.536,143.693 235.5,144.5C 246.776,146.15 257.776,148.817 268.5,152.5C 268.265,153.097 267.765,153.43 267,153.5C 261.295,152.005 255.461,151.005 249.5,150.5C 247.963,148.07 246.296,148.07 244.5,150.5C 242.341,148.66 239.675,147.493 236.5,147C 232.809,146.58 229.142,146.08 225.5,145.5C 225.36,147.124 226.027,148.29 227.5,149C 226.429,149.852 225.429,150.685 224.5,151.5C 223.5,151.5 222.5,151.5 221.5,151.5C 221.53,150.503 221.03,149.836 220,149.5C 218.333,150.167 216.667,150.833 215,151.5C 210.684,150.92 206.517,150.253 202.5,149.5C 208.994,149.834 215.327,149.001 221.5,147C 219.973,145.968 218.64,144.801 217.5,143.5 Z"/></g>
<g><path style="opacity:1" fill="#f2d896" d="M 282.5,155.5 C 282.5,156.833 282.5,158.167 282.5,159.5C 282.443,160.609 282.11,161.609 281.5,162.5C 277.176,169.157 271.176,173.491 263.5,175.5C 265.198,173.141 267.531,171.475 270.5,170.5C 272.378,167.187 274.711,164.187 277.5,161.5C 276.68,159.889 275.346,159.222 273.5,159.5C 273.771,157.62 273.104,156.287 271.5,155.5C 271.167,155.5 270.833,155.5 270.5,155.5C 275.668,151.845 278.835,146.845 280,140.5C 280.561,139.978 281.228,139.645 282,139.5C 284.06,141.684 285.226,144.35 285.5,147.5C 284.49,150.183 283.49,152.849 282.5,155.5 Z"/></g>
<g><path style="opacity:1" fill="#986e3c" d="M 268.5,152.5 C 268.833,152.5 269.167,152.5 269.5,152.5C 269.443,153.609 269.11,154.609 268.5,155.5C 260.206,156.121 251.873,156.121 243.5,155.5C 243.366,153.708 243.699,152.042 244.5,150.5C 246.296,148.07 247.963,148.07 249.5,150.5C 255.461,151.005 261.295,152.005 267,153.5C 267.765,153.43 268.265,153.097 268.5,152.5 Z"/></g>
<g><path style="opacity:0.757" fill="#7b643e" d="M 221.5,151.5 C 222.5,151.5 223.5,151.5 224.5,151.5C 227.807,152.051 231.14,152.384 234.5,152.5C 234.5,154.833 234.5,157.167 234.5,159.5C 234.19,163.7 234.857,167.7 236.5,171.5C 234.864,170.251 233.697,168.584 233,166.5C 232.797,162.579 232.297,158.745 231.5,155C 226.78,154.283 222.114,154.45 217.5,155.5C 217.5,155.167 217.5,154.833 217.5,154.5C 219.23,153.974 220.564,152.974 221.5,151.5 Z"/></g>
<g><path style="opacity:0.145" fill="#010101" d="M 236.5,171.5 C 243.262,177.404 250.929,179.404 259.5,177.5C 261.38,177.771 262.713,177.104 263.5,175.5C 271.176,173.491 277.176,169.157 281.5,162.5C 282.315,163.837 283.482,164.837 285,165.5C 286.71,170.089 286.043,174.422 283,178.5C 278.61,185.28 272.443,189.446 264.5,191C 260.554,196.056 255.388,198.89 249,199.5C 238.704,197.904 228.37,196.57 218,195.5C 215.075,195.523 212.241,196.023 209.5,197C 202.879,206.223 195.546,214.89 187.5,223C 181.833,226.667 176.167,230.333 170.5,234C 165.625,235.802 160.625,237.135 155.5,238C 145.336,239.452 135.336,240.952 125.5,242.5C 111.5,242.5 97.5,242.5 83.5,242.5C 92.8333,229.167 102.167,215.833 111.5,202.5C 112.5,202.167 113.167,201.5 113.5,200.5C 118.824,199.853 124.157,200.353 129.5,202C 138.167,202.667 146.833,202.667 155.5,202C 159.457,201.429 163.124,200.095 166.5,198C 169.557,195.277 172.89,192.944 176.5,191C 178.704,189.235 180.371,187.069 181.5,184.5C 189.419,178.322 193.419,169.989 193.5,159.5C 199.358,159.822 205.025,159.489 210.5,158.5C 213.157,158.065 215.491,157.065 217.5,155.5C 222.114,154.45 226.78,154.283 231.5,155C 232.297,158.745 232.797,162.579 233,166.5C 233.697,168.584 234.864,170.251 236.5,171.5 Z"/></g>
<g><path style="opacity:1" fill="#e2b77e" d="M 244.5,150.5 C 243.699,152.042 243.366,153.708 243.5,155.5C 243.325,157.621 243.659,159.621 244.5,161.5C 244.44,162.043 244.107,162.376 243.5,162.5C 241.142,160.713 238.475,159.713 235.5,159.5C 235.167,159.5 234.833,159.5 234.5,159.5C 234.5,157.167 234.5,154.833 234.5,152.5C 231.14,152.384 227.807,152.051 224.5,151.5C 225.429,150.685 226.429,149.852 227.5,149C 226.027,148.29 225.36,147.124 225.5,145.5C 229.142,146.08 232.809,146.58 236.5,147C 239.675,147.493 242.341,148.66 244.5,150.5 Z"/></g>
<g><path style="opacity:1" fill="#b4935b" d="M 189.5,154.5 C 189.833,154.5 190.167,154.5 190.5,154.5C 195.217,155.849 200.05,156.516 205,156.5C 209.385,156.605 213.552,155.938 217.5,154.5C 217.5,154.833 217.5,155.167 217.5,155.5C 215.491,157.065 213.157,158.065 210.5,158.5C 203.646,158.824 196.979,158.491 190.5,157.5C 190.443,156.391 190.11,155.391 189.5,154.5 Z"/></g>
<g><path style="opacity:0.655" fill="#8a7251" d="M 243.5,155.5 C 251.873,156.121 260.206,156.121 268.5,155.5C 269.167,155.5 269.833,155.5 270.5,155.5C 268.431,158.573 265.764,160.906 262.5,162.5C 260.944,164.988 258.611,165.988 255.5,165.5C 251.294,165.56 247.627,164.227 244.5,161.5C 243.659,159.621 243.325,157.621 243.5,155.5 Z"/></g>
<g><path style="opacity:0.134" fill="#040302" d="M 262.5,162.5 C 256.812,165.576 251.479,165.076 246.5,161C 245.663,159.989 245.33,158.822 245.5,157.5C 252.508,157.334 259.508,157.5 266.5,158C 264.959,159.371 263.625,160.871 262.5,162.5 Z"/></g>
<g><path style="opacity:0.121" fill="#000000" d="M 68.5,161.5 C 69.593,163.349 70.9263,165.016 72.5,166.5C 75.7635,170.94 79.2635,175.273 83,179.5C 83.4828,180.448 83.6495,181.448 83.5,182.5C 82.8333,183.5 82.1667,184.5 81.5,185.5C 76.1667,191.5 70.8333,197.5 65.5,203.5C 65.6633,201.143 65.4966,198.81 65,196.5C 62.275,191.049 60.1083,185.383 58.5,179.5C 59.7723,172.283 63.1056,166.283 68.5,161.5 Z"/></g>
<g><path style="opacity:0.918" fill="#bc8d44" d="M 270.5,155.5 C 270.833,155.5 271.167,155.5 271.5,155.5C 269.941,160.063 266.941,163.396 262.5,165.5C 254.173,166.501 246.006,166.501 238,165.5C 237.722,164.584 237.222,163.918 236.5,163.5C 236.567,162.041 236.234,160.708 235.5,159.5C 238.475,159.713 241.142,160.713 243.5,162.5C 244.107,162.376 244.44,162.043 244.5,161.5C 247.627,164.227 251.294,165.56 255.5,165.5C 258.611,165.988 260.944,164.988 262.5,162.5C 265.764,160.906 268.431,158.573 270.5,155.5 Z"/></g>
<g><path style="opacity:1" fill="#f7d07f" d="M 271.5,155.5 C 273.104,156.287 273.771,157.62 273.5,159.5C 275.346,159.222 276.68,159.889 277.5,161.5C 274.711,164.187 272.378,167.187 270.5,170.5C 267.531,171.475 265.198,173.141 263.5,175.5C 262.713,177.104 261.38,177.771 259.5,177.5C 254.588,177.937 249.922,177.104 245.5,175C 242.614,172.627 239.78,170.127 237,167.5C 236.51,166.207 236.343,164.873 236.5,163.5C 237.222,163.918 237.722,164.584 238,165.5C 246.006,166.501 254.173,166.501 262.5,165.5C 266.941,163.396 269.941,160.063 271.5,155.5 Z"/></g>
<g><path style="opacity:1" fill="#a98a5a" d="M 234.5,159.5 C 234.833,159.5 235.167,159.5 235.5,159.5C 236.234,160.708 236.567,162.041 236.5,163.5C 236.343,164.873 236.51,166.207 237,167.5C 239.78,170.127 242.614,172.627 245.5,175C 249.922,177.104 254.588,177.937 259.5,177.5C 250.929,179.404 243.262,177.404 236.5,171.5C 234.857,167.7 234.19,163.7 234.5,159.5 Z"/></g>
<g><path style="opacity:1" fill="#848484" d="M 87.5,179.5 C 91.1945,183.011 95.5278,185.511 100.5,187C 101.791,188.292 101.791,189.458 100.5,190.5C 94.8494,188.919 90.016,185.919 86,181.5C 85,183.167 84,184.833 83,186.5C 82.6174,185.944 82.1174,185.611 81.5,185.5C 82.1667,184.5 82.8333,183.5 83.5,182.5C 84.5261,181.147 85.8595,180.147 87.5,179.5 Z"/></g>
<g><path style="opacity:0.998" fill="#2d2d2c" d="M 181.5,184.5 C 180.371,187.069 178.704,189.235 176.5,191C 172.89,192.944 169.557,195.277 166.5,198C 163.124,200.095 159.457,201.429 155.5,202C 146.833,202.667 138.167,202.667 129.5,202C 124.157,200.353 118.824,199.853 113.5,200.5C 113.681,197.447 113.848,194.447 114,191.5C 111.504,189.731 109.004,189.398 106.5,190.5C 105.153,189.829 103.986,189.829 103,190.5C 102.907,187.993 102.074,185.826 100.5,184C 96.7498,181.922 93.0831,179.756 89.5,177.5C 88.4777,177.855 87.811,178.522 87.5,179.5C 85.8595,180.147 84.5261,181.147 83.5,182.5C 83.6495,181.448 83.4828,180.448 83,179.5C 79.2635,175.273 75.7635,170.94 72.5,166.5C 71.0374,164.402 71.2041,162.402 73,160.5C 74.6458,162.055 74.9791,163.721 74,165.5C 74.9246,164.953 75.7579,164.287 76.5,163.5C 74.661,161.473 74.161,159.14 75,156.5C 76.7105,158.956 78.0438,161.623 79,164.5C 79.414,164.043 79.914,163.709 80.5,163.5C 85.6479,168.238 90.9813,172.738 96.5,177C 103.147,180.299 109.814,183.632 116.5,187C 122.015,187.849 127.348,189.182 132.5,191C 141.958,192.46 151.124,192.96 160,192.5C 161.399,191.773 162.899,191.273 164.5,191C 166.445,187.683 169.111,186.849 172.5,188.5C 172.477,186.503 173.81,185.169 176.5,184.5C 178.003,185.052 179.669,185.052 181.5,184.5 Z"/></g>
<g><path style="opacity:1" fill="#717171" d="M 113.5,200.5 C 113.167,201.5 112.5,202.167 111.5,202.5C 111.292,200.08 111.626,197.747 112.5,195.5C 107.66,192.306 103.66,192.972 100.5,197.5C 99.9717,196.153 99.805,194.819 100,193.5C 102.278,192.484 104.445,191.484 106.5,190.5C 109.004,189.398 111.504,189.731 114,191.5C 113.848,194.447 113.681,197.447 113.5,200.5 Z"/></g>
<g><path style="opacity:1" fill="#545454" d="M 106.5,190.5 C 104.445,191.484 102.278,192.484 100,193.5C 99.805,194.819 99.9717,196.153 100.5,197.5C 99.8501,197.196 99.1835,196.863 98.5,196.5C 92.855,203.646 87.0217,210.646 81,217.5C 80.5304,216.423 80.6971,215.423 81.5,214.5C 87.8333,206.5 94.1667,198.5 100.5,190.5C 101.791,189.458 101.791,188.292 100.5,187C 95.5278,185.511 91.1945,183.011 87.5,179.5C 87.811,178.522 88.4777,177.855 89.5,177.5C 93.0831,179.756 96.7498,181.922 100.5,184C 102.074,185.826 102.907,187.993 103,190.5C 103.986,189.829 105.153,189.829 106.5,190.5 Z"/></g>
<g><path style="opacity:1" fill="#a5a5a5" d="M 111.5,202.5 C 102.167,215.833 92.8333,229.167 83.5,242.5C 79.1667,242.5 74.8333,242.5 70.5,242.5C 70.0962,241.244 69.4295,240.077 68.5,239C 68.7355,238.127 69.0688,237.293 69.5,236.5C 73.622,231.37 78.2887,227.037 83.5,223.5C 84.3078,221.577 84.8078,219.577 85,217.5C 90.3818,210.958 95.5485,204.291 100.5,197.5C 103.66,192.972 107.66,192.306 112.5,195.5C 111.626,197.747 111.292,200.08 111.5,202.5 Z"/></g>
<g><path style="opacity:1" fill="#a4a4a4" d="M 100.5,190.5 C 94.1667,198.5 87.8333,206.5 81.5,214.5C 75.5155,215.005 73.0155,218.339 74,224.5C 68.574,230.085 63.7407,236.085 59.5,242.5C 52.1667,242.5 44.8333,242.5 37.5,242.5C 37.7086,241.078 38.2086,239.745 39,238.5C 48.1092,226.911 56.9425,215.244 65.5,203.5C 70.8333,197.5 76.1667,191.5 81.5,185.5C 82.1174,185.611 82.6174,185.944 83,186.5C 84,184.833 85,183.167 86,181.5C 90.016,185.919 94.8494,188.919 100.5,190.5 Z"/></g>
<g><path style="opacity:1" fill="#717171" d="M 76.5,198.5 C 83.5489,197.847 85.8822,200.513 83.5,206.5C 80.2068,207.969 77.3734,207.302 75,204.5C 74.2516,202.16 74.7516,200.16 76.5,198.5 Z"/></g>
<g><path style="opacity:1" fill="#686868" d="M 57.5,222.5 C 60.3198,222.248 62.9865,222.748 65.5,224C 65.0373,225.766 65.0373,227.933 65.5,230.5C 60.6241,232.704 57.2908,231.371 55.5,226.5C 56.2255,225.133 56.8921,223.8 57.5,222.5 Z"/></g>
<g><path style="opacity:1" fill="#777777" d="M 100.5,197.5 C 95.5485,204.291 90.3818,210.958 85,217.5C 84.8078,219.577 84.3078,221.577 83.5,223.5C 78.2887,227.037 73.622,231.37 69.5,236.5C 69.0688,237.293 68.7355,238.127 68.5,239C 69.4295,240.077 70.0962,241.244 70.5,242.5C 66.8333,242.5 63.1667,242.5 59.5,242.5C 63.7407,236.085 68.574,230.085 74,224.5C 73.0155,218.339 75.5155,215.005 81.5,214.5C 80.6971,215.423 80.5304,216.423 81,217.5C 87.0217,210.646 92.855,203.646 98.5,196.5C 99.1835,196.863 99.8501,197.196 100.5,197.5 Z"/></g>
</svg>
