<?xml version="1.0" encoding="UTF-8"?>
<!DOCTYPE svg PUBLIC "-//W3C//DTD SVG 1.1//EN" "http://www.w3.org/Graphics/SVG/1.1/DTD/svg11.dtd">
<svg xmlns="http://www.w3.org/2000/svg" version="1.1" width="180px" height="122px" style="shape-rendering:geometricPrecision; text-rendering:geometricPrecision; image-rendering:optimizeQuality; fill-rule:evenodd; clip-rule:evenodd" xmlns:xlink="http://www.w3.org/1999/xlink">
<g><path style="opacity:1" fill="#fcfcfc" d="M -0.5,-0.5 C 59.5,-0.5 119.5,-0.5 179.5,-0.5C 179.5,40.1667 179.5,80.8333 179.5,121.5C 119.5,121.5 59.5,121.5 -0.5,121.5C -0.5,80.8333 -0.5,40.1667 -0.5,-0.5 Z"/></g>
<g><path style="opacity:1" fill="#080808" d="M 15.5,32.5 C 14.596,33.209 14.2627,34.209 14.5,35.5C 19.5,35.5 24.5,35.5 29.5,35.5C 28.6586,37.3792 28.3253,39.3792 28.5,41.5C 20.8333,41.5 13.1667,41.5 5.5,41.5C 7.48911,29.8963 9.15578,18.2296 10.5,6.5C 13.5,6.5 16.5,6.5 19.5,6.5C 17.9522,15.1211 16.6189,23.7878 15.5,32.5 Z"/></g>
<g><path style="opacity:1" fill="#080808" d="M 47.5,6.5 C 50.8333,6.5 54.1667,6.5 57.5,6.5C 58.5182,17.9412 60.1849,29.2745 62.5,40.5C 59.5719,41.4841 56.5719,41.8174 53.5,41.5C 54.5129,36.1856 52.3462,33.8522 47,34.5C 45.1667,34.6667 43.3333,34.8333 41.5,35C 39.5611,40.7899 35.5611,42.7899 29.5,41C 35.3853,29.3945 41.3853,17.8945 47.5,6.5 Z"/></g>
<g><path style="opacity:1" fill="#0c0c0c" d="M 83.5,5.5 C 86.8499,5.33499 90.1832,5.50166 93.5,6C 100.602,6.97869 102.268,10.4787 98.5,16.5C 85.9857,8.68072 78.319,12.0141 75.5,26.5C 76.3877,34.1309 80.7211,37.1309 88.5,35.5C 88.5,33.1667 88.5,30.8333 88.5,28.5C 86.5,28.5 84.5,28.5 82.5,28.5C 82.8333,26.5 83.1667,24.5 83.5,22.5C 88.5,22.5 93.5,22.5 98.5,22.5C 97.3943,27.4649 96.3943,32.4649 95.5,37.5C 94.8113,39.3527 93.478,40.5193 91.5,41C 72.6864,45.5138 64.853,38.3472 68,19.5C 71.4656,12.8638 76.6322,8.19716 83.5,5.5 Z"/></g>
<g><path style="opacity:1" fill="#0e0e0e" d="M 119.5,5.5 C 128.051,3.85966 134.218,6.85966 138,14.5C 140.097,30.3591 133.43,39.6924 118,42.5C 104.693,40.2404 100.359,32.5737 105,19.5C 107.774,12.5569 112.607,7.89027 119.5,5.5 Z"/></g>
<g><path style="opacity:1" fill="#0a0a0a" d="M 145.5,6.5 C 149.5,6.5 153.5,6.5 157.5,6.5C 159.368,12.5763 161.534,18.5763 164,24.5C 166.142,18.7107 167.308,12.7107 167.5,6.5C 170.167,6.5 172.833,6.5 175.5,6.5C 174.077,18.2204 172.41,29.8871 170.5,41.5C 167.428,41.8174 164.428,41.4841 161.5,40.5C 158.813,32.5974 155.646,24.9307 152,17.5C 150.292,25.4165 149.125,33.4165 148.5,41.5C 145.833,41.5 143.167,41.5 140.5,41.5C 142.489,29.8963 144.156,18.2296 145.5,6.5 Z"/></g>
<g><path style="opacity:1" fill="#f6f6f6" d="M 119.5,12.5 C 126.593,11.2574 129.926,14.2574 129.5,21.5C 128.887,25.8393 127.387,29.8393 125,33.5C 117.303,37.8038 113.137,35.6371 112.5,27C 112.57,21.027 114.904,16.1937 119.5,12.5 Z"/></g>
<g><path style="opacity:1" fill="#e7e7e7" d="M 51.5,27.5 C 49.2646,27.7947 47.2646,27.4614 45.5,26.5C 49.5124,14.1833 51.5124,14.5167 51.5,27.5 Z"/></g>
<g><path style="opacity:1" fill="#858585" d="M 45.5,26.5 C 47.2646,27.4614 49.2646,27.7947 51.5,27.5C 49.3066,28.7969 46.9732,28.7969 44.5,27.5C 44.6236,26.8933 44.9569,26.56 45.5,26.5 Z"/></g>
<g><path style="opacity:1" fill="#818181" d="M 15.5,32.5 C 19.9126,34.1384 24.5792,35.1384 29.5,35.5C 24.5,35.5 19.5,35.5 14.5,35.5C 14.2627,34.209 14.596,33.209 15.5,32.5 Z"/></g>
<g><path style="opacity:1" fill="#ea3d00" d="M 2.5,60.5 C 60.5,60.5 118.5,60.5 176.5,60.5C 176.5,62.8333 176.5,65.1667 176.5,67.5C 118.5,67.5 60.5,67.5 2.5,67.5C 2.5,65.1667 2.5,62.8333 2.5,60.5 Z"/></g>
<g><path style="opacity:1" fill="#818181" d="M 97.5,85.5 C 99.3079,86.9179 99.9746,88.9179 99.5,91.5C 101.167,91.5 102.833,91.5 104.5,91.5C 104.5,92.8333 104.5,94.1667 104.5,95.5C 102.396,95.2011 100.396,95.5344 98.5,96.5C 97.0238,99.9953 96.6904,103.495 97.5,107C 99.1341,107.494 100.801,107.66 102.5,107.5C 102.64,109.124 101.973,110.29 100.5,111C 90.7971,112.78 87.7971,108.946 91.5,99.5C 91.2755,97.5453 90.6089,95.8787 89.5,94.5C 94.667,93.8853 97.3336,90.8853 97.5,85.5 Z"/></g>
<g><path style="opacity:1" fill="#bcbcbc" d="M 122.5,93.5 C 121.244,93.9038 120.077,94.5705 119,95.5C 115.277,93.4385 111.444,93.1052 107.5,94.5C 107.62,93.4138 108.287,92.7472 109.5,92.5C 114.14,90.8717 118.473,91.205 122.5,93.5 Z"/></g>
<g><path style="opacity:1" fill="#c0c0c0" d="M 146.5,91.5 C 146.023,93.4643 144.856,94.7977 143,95.5C 134.423,93.0605 130.09,96.3938 130,105.5C 128.187,104.391 127.354,105.058 127.5,107.5C 126.014,101.793 127.681,96.9598 132.5,93C 137.066,91.6908 141.733,91.1908 146.5,91.5 Z"/></g>
<g><path style="opacity:1" fill="#797979" d="M 146.5,91.5 C 147.586,91.62 148.253,92.2867 148.5,93.5C 147.539,101.083 145.706,108.417 143,115.5C 137.538,118.839 132.038,119.172 126.5,116.5C 130.614,115.27 134.78,114.27 139,113.5C 139.889,110.611 141.222,107.945 143,105.5C 143.667,103.167 143.667,100.833 143,98.5C 142.617,99.056 142.117,99.3893 141.5,99.5C 141.5,98.5 141.5,97.5 141.5,96.5C 134.448,96.5497 132.115,99.883 134.5,106.5C 135.789,107.637 136.789,108.97 137.5,110.5C 133.13,112.502 129.797,111.502 127.5,107.5C 127.354,105.058 128.187,104.391 130,105.5C 130.09,96.3938 134.423,93.0605 143,95.5C 144.856,94.7977 146.023,93.4643 146.5,91.5 Z"/></g>
<g><path style="opacity:1" fill="#848484" d="M 20.5,92.5 C 21.8333,92.5 23.1667,92.5 24.5,92.5C 24.628,94.6547 24.128,96.6547 23,98.5C 15.6591,94.3959 11.9924,96.3959 12,104.5C 15.262,107.077 18.5954,107.077 22,104.5C 22.7429,106.441 22.5762,108.274 21.5,110C 15.0987,112.741 9.59872,111.575 5,106.5C 4.33333,104.833 4.33333,103.167 5,101.5C 8.25241,99.2379 11.4191,96.7379 14.5,94C 16.7078,93.8091 18.7078,93.3091 20.5,92.5 Z"/></g>
<g><path style="opacity:1" fill="#7a7a7a" d="M 55.5,91.5 C 56.4972,91.4701 57.1639,91.9701 57.5,93C 56.5174,95.9303 55.8508,98.9303 55.5,102C 55.3068,104.008 55.9735,105.508 57.5,106.5C 59.5598,107.811 61.7265,107.811 64,106.5C 64.6558,101.192 66.1558,96.1924 68.5,91.5C 69.1386,92.0968 69.472,92.9302 69.5,94C 68.8986,99.925 67.8986,105.758 66.5,111.5C 63.9208,111.917 61.7542,111.25 60,109.5C 55.9896,112.443 52.4896,112.11 49.5,108.5C 50.2297,106.955 51.563,106.122 53.5,106C 52.1504,100.945 52.8171,96.1117 55.5,91.5 Z"/></g>
<g><path style="opacity:1" fill="#787878" d="M 88.5,94.5 C 86.4403,96.1537 83.9403,97.1537 81,97.5C 79.4577,102.045 78.6243,106.711 78.5,111.5C 76.5,111.5 74.5,111.5 72.5,111.5C 72.5,110.5 72.5,109.5 72.5,108.5C 73.1499,108.196 73.8165,107.863 74.5,107.5C 75.642,103.073 77.3087,98.9059 79.5,95C 81.8474,94.5639 84.1807,94.0639 86.5,93.5C 87.4164,93.5427 88.0831,93.8761 88.5,94.5 Z"/></g>
<g><path style="opacity:1" fill="#7f7f7f" d="M 122.5,93.5 C 123.156,94.6216 123.489,95.9549 123.5,97.5C 122.701,102.157 122.035,106.824 121.5,111.5C 118.921,111.917 116.754,111.25 115,109.5C 112.083,111.393 108.916,111.893 105.5,111C 103.963,109.89 103.297,108.39 103.5,106.5C 104.833,106.5 106.167,106.5 107.5,106.5C 107.393,104.097 108.393,102.264 110.5,101C 113.146,100.503 115.813,100.336 118.5,100.5C 118.737,99.209 118.404,98.209 117.5,97.5C 114.243,94.8555 110.909,94.8555 107.5,97.5C 106.224,96.3864 106.224,95.3864 107.5,94.5C 111.444,93.1052 115.277,93.4385 119,95.5C 120.077,94.5705 121.244,93.9038 122.5,93.5 Z"/></g>
<g><path style="opacity:1" fill="#7e7e7e" d="M 167.5,92.5 C 168.458,92.9528 169.292,93.6195 170,94.5C 170.497,97.146 170.664,99.8127 170.5,102.5C 165.833,102.5 161.167,102.5 156.5,102.5C 159.378,109.551 163.378,110.217 168.5,104.5C 169.192,106.335 168.858,108.168 167.5,110C 163.903,111.277 160.236,111.61 156.5,111C 153.771,110.434 151.771,108.934 150.5,106.5C 150.119,104.058 150.786,103.391 152.5,104.5C 154.035,100.72 156.035,97.2203 158.5,94C 160.377,93.4242 162.211,93.5909 164,94.5C 165.077,93.5705 166.244,92.9038 167.5,92.5 Z"/></g>
<g><path style="opacity:1" fill="#818181" d="M 40.5,92.5 C 44.6294,92.9652 46.6294,95.2985 46.5,99.5C 44.1484,110.508 37.8151,113.842 27.5,109.5C 26.8076,108.975 26.3076,108.308 26,107.5C 25.502,104.518 25.3354,101.518 25.5,98.5C 28.5993,98.9077 30.9326,97.741 32.5,95C 35.6752,95.0533 38.3419,94.22 40.5,92.5 Z"/></g>
<g><path style="opacity:1" fill="#bdbdbd" d="M 97.5,85.5 C 97.3336,90.8853 94.667,93.8853 89.5,94.5C 89.1667,94.5 88.8333,94.5 88.5,94.5C 88.0831,93.8761 87.4164,93.5427 86.5,93.5C 84.1807,94.0639 81.8474,94.5639 79.5,95C 77.3087,98.9059 75.642,103.073 74.5,107.5C 73.8165,107.863 73.1499,108.196 72.5,108.5C 73.6068,102.86 74.6068,97.1929 75.5,91.5C 78.1441,91.1601 80.4775,91.8267 82.5,93.5C 83.6878,92.16 85.1878,91.4934 87,91.5C 89.1229,92.5828 91.2895,92.5828 93.5,91.5C 93.5,89.5 93.5,87.5 93.5,85.5C 94.8333,85.5 96.1667,85.5 97.5,85.5 Z"/></g>
<g><path style="opacity:1" fill="#c5c5c5" d="M 167.5,92.5 C 166.244,92.9038 165.077,93.5705 164,94.5C 162.211,93.5909 160.377,93.4242 158.5,94C 156.035,97.2203 154.035,100.72 152.5,104.5C 150.786,103.391 150.119,104.058 150.5,106.5C 149.992,94.6907 155.659,90.024 167.5,92.5 Z"/></g>
<g><path style="opacity:1" fill="#fafafa" d="M 159.5,95.5 C 161.665,95.1159 163.332,95.7826 164.5,97.5C 162.167,98.8333 159.833,98.8333 157.5,97.5C 158.243,96.8182 158.909,96.1515 159.5,95.5 Z"/></g>
<g><path style="opacity:1" fill="#f0f0f0" d="M 34.5,96.5 C 38.8629,96.3596 41.1962,98.5263 41.5,103C 39.3665,107.76 36.1999,108.593 32,105.5C 30.9271,101.9 31.7605,98.9003 34.5,96.5 Z"/></g>
<g><path style="opacity:1" fill="#b1b1b1" d="M 55.5,91.5 C 52.8171,96.1117 52.1504,100.945 53.5,106C 51.563,106.122 50.2297,106.955 49.5,108.5C 48.8614,107.903 48.528,107.07 48.5,106C 49.7523,101.241 50.4189,96.4073 50.5,91.5C 52.1667,91.5 53.8333,91.5 55.5,91.5 Z"/></g>
<g><path style="opacity:1" fill="#b6b6b6" d="M 68.5,91.5 C 66.1558,96.1924 64.6558,101.192 64,106.5C 61.7265,107.811 59.5598,107.811 57.5,106.5C 58.8221,106.67 59.9887,106.337 61,105.5C 62,101.167 63,96.8333 64,92.5C 65.3561,91.6198 66.8561,91.2865 68.5,91.5 Z"/></g>
<g><path style="opacity:1" fill="#f8f8f8" d="M 141.5,99.5 C 140.691,101.292 140.191,103.292 140,105.5C 138.301,106.406 136.467,106.739 134.5,106.5C 132.115,99.883 134.448,96.5497 141.5,96.5C 141.5,97.5 141.5,98.5 141.5,99.5 Z"/></g>
<g><path style="opacity:1" fill="#c7c7c7" d="M 117.5,97.5 C 118.404,98.209 118.737,99.209 118.5,100.5C 115.813,100.336 113.146,100.503 110.5,101C 108.393,102.264 107.393,104.097 107.5,106.5C 106.167,106.5 104.833,106.5 103.5,106.5C 103.393,104.097 104.393,102.264 106.5,101C 110.34,100.041 114.007,98.8747 117.5,97.5 Z"/></g>
<g><path style="opacity:1" fill="#f1f1f1" d="M 111.5,102.5 C 113.167,102.5 114.833,102.5 116.5,102.5C 117.17,105.59 116.003,107.257 113,107.5C 109.023,106.878 108.523,105.212 111.5,102.5 Z"/></g>
<g><path style="opacity:1" fill="#b8b8b8" d="M 126.5,116.5 C 126.709,115.078 127.209,113.745 128,112.5C 131.693,114.017 135.193,113.684 138.5,111.5C 138.376,110.893 138.043,110.56 137.5,110.5C 136.789,108.97 135.789,107.637 134.5,106.5C 136.467,106.739 138.301,106.406 140,105.5C 140.191,103.292 140.691,101.292 141.5,99.5C 142.117,99.3893 142.617,99.056 143,98.5C 143.667,100.833 143.667,103.167 143,105.5C 141.222,107.945 139.889,110.611 139,113.5C 134.78,114.27 130.614,115.27 126.5,116.5 Z"/></g>
</svg>
