<?xml version="1.0" encoding="UTF-8"?>
<!DOCTYPE svg PUBLIC "-//W3C//DTD SVG 1.1//EN" "http://www.w3.org/Graphics/SVG/1.1/DTD/svg11.dtd">
<svg xmlns="http://www.w3.org/2000/svg" version="1.1" width="175px" height="67px" style="shape-rendering:geometricPrecision; text-rendering:geometricPrecision; image-rendering:optimizeQuality; fill-rule:evenodd; clip-rule:evenodd" xmlns:xlink="http://www.w3.org/1999/xlink">
<g><path style="opacity:0.819" fill="#010101" d="M 79.5,3.5 C 83.8461,3.33432 88.1794,3.50098 92.5,4C 94.779,4.47285 96.779,5.47285 98.5,7C 97.9722,10.0179 96.9722,12.8512 95.5,15.5C 94.3926,14.9781 93.2259,14.6448 92,14.5C 87.1902,15.1926 82.3569,15.6926 77.5,16C 74.3336,17.6657 73.0003,20.3323 73.5,24C 73.5556,31.2171 77.2223,34.3837 84.5,33.5C 84.3573,31.7376 84.6906,30.0709 85.5,28.5C 83.0339,27.8765 80.7006,27.0432 78.5,26C 79.2489,24.2663 79.7489,22.433 80,20.5C 85.0717,19.5286 90.2384,19.1953 95.5,19.5C 95.3063,25.8283 94.3063,31.995 92.5,38C 84.4586,41.2289 76.4586,41.2289 68.5,38C 63.7963,33.1166 62.2963,27.2833 64,20.5C 66.256,12.0814 71.4227,6.4147 79.5,3.5 Z"/></g>
<g><path style="opacity:0.895" fill="#010101" d="M 115.5,3.5 C 131.849,1.34864 138.349,8.34864 135,24.5C 130.253,38.4575 120.753,43.2908 106.5,39C 102.002,35.8465 100.002,31.5131 100.5,26C 100.663,15.0466 105.663,7.54663 115.5,3.5 Z M 118.5,10.5 C 123.203,10.6992 125.869,13.1992 126.5,18C 125.836,21.991 124.669,25.8243 123,29.5C 119.294,34.2676 115.294,34.601 111,30.5C 108.84,21.8585 111.34,15.1919 118.5,10.5 Z"/></g>
<g><path style="opacity:0.87" fill="#010101" d="M 7.5,4.5 C 10.8984,4.17964 14.2317,4.51298 17.5,5.5C 15.5102,14.439 13.8435,23.439 12.5,32.5C 17.1667,32.5 21.8333,32.5 26.5,32.5C 26.3398,34.1992 26.5065,35.8659 27,37.5C 32.2447,26.6766 37.7447,16.0099 43.5,5.5C 47.1073,4.51078 50.774,4.17744 54.5,4.5C 56.2716,16.1325 57.9383,27.7991 59.5,39.5C 56.4816,39.6646 53.4816,39.498 50.5,39C 49.5769,36.9592 49.2436,34.7925 49.5,32.5C 42.8864,32.2984 38.2197,35.1317 35.5,41C 32.208,41.9357 29.208,41.4357 26.5,39.5C 24.4585,41.4124 22.4585,41.579 20.5,40C 14.1406,39.8306 7.80724,39.3306 1.5,38.5C 3.88583,27.2373 5.88583,15.9039 7.5,4.5 Z M 46.5,20.5 C 49.7645,24.6886 48.7645,26.0219 43.5,24.5C 44.5244,23.1482 45.5244,21.8149 46.5,20.5 Z"/></g>
<g><path style="opacity:0.912" fill="#010101" d="M 142.5,4.5 C 146.514,4.33449 150.514,4.50115 154.5,5C 156.796,10.429 158.963,15.929 161,21.5C 162.81,15.9761 163.977,10.3095 164.5,4.5C 167.5,4.5 170.5,4.5 173.5,4.5C 171.5,16.1667 169.5,27.8333 167.5,39.5C 164.167,39.5 160.833,39.5 157.5,39.5C 155.504,32.3454 153.004,25.3454 150,18.5C 147.864,25.3019 146.364,32.3019 145.5,39.5C 142.428,39.8174 139.428,39.4841 136.5,38.5C 138.886,27.2386 140.886,15.9053 142.5,4.5 Z"/></g>
<g><path style="opacity:1" fill="#e83d04" d="M 170.5,58.5 C 172.075,60.1137 172.741,62.1137 172.5,64.5C 114.831,64.5581 57.1647,64.8915 -0.5,65.5C -0.5,63.1667 -0.5,60.8333 -0.5,58.5C 56.5711,58.4664 113.571,58.4664 170.5,58.5 Z"/></g>
<g><path style="opacity:1" fill="#7c3015" d="M 170.5,58.5 C 171.5,58.5 172.5,58.5 173.5,58.5C 173.5,61.1667 173.5,63.8333 173.5,66.5C 115.5,66.5 57.5,66.5 -0.5,66.5C -0.5,66.1667 -0.5,65.8333 -0.5,65.5C 57.1647,64.8915 114.831,64.5581 172.5,64.5C 172.741,62.1137 172.075,60.1137 170.5,58.5 Z"/></g>
</svg>
