<?xml version="1.0" encoding="UTF-8"?>
<!DOCTYPE svg PUBLIC "-//W3C//DTD SVG 1.1//EN" "http://www.w3.org/Graphics/SVG/1.1/DTD/svg11.dtd">
<svg xmlns="http://www.w3.org/2000/svg" version="1.1" width="176px" height="40px" style="shape-rendering:geometricPrecision; text-rendering:geometricPrecision; image-rendering:optimizeQuality; fill-rule:evenodd; clip-rule:evenodd" xmlns:xlink="http://www.w3.org/1999/xlink">
<g><path style="opacity:1" fill="#fbfbfb" d="M -0.5,-0.5 C 58.1667,-0.5 116.833,-0.5 175.5,-0.5C 175.5,3.83333 175.5,8.16667 175.5,12.5C 174.833,12.1667 174.167,11.8333 173.5,11.5C 169.946,11.1497 166.612,11.8163 163.5,13.5C 160.185,11.4485 156.852,11.1152 153.5,12.5C 153.167,12.5 152.833,12.5 152.5,12.5C 151.081,11.5489 149.415,11.2155 147.5,11.5C 147.663,13.8568 147.497,16.1902 147,18.5C 146.777,16.1192 145.61,14.4525 143.5,13.5C 139.748,10.8704 135.915,10.8704 132,13.5C 131.098,13.2568 130.265,12.9234 129.5,12.5C 127.372,11.3709 125.039,11.2042 122.5,12C 121.295,13.3756 119.962,14.5423 118.5,15.5C 118.5,14.1667 117.833,13.5 116.5,13.5C 112.945,10.9104 109.279,10.9104 105.5,13.5C 104.391,13.4431 103.391,13.1098 102.5,12.5C 101.081,11.5489 99.4147,11.2155 97.5,11.5C 97.5,14.8333 97.5,18.1667 97.5,21.5C 95.7182,23.6869 93.5515,24.0203 91,22.5C 90.5014,18.8484 90.3347,15.1817 90.5,11.5C 88.8333,11.5 87.1667,11.5 85.5,11.5C 83.5853,11.2155 81.9187,11.5489 80.5,12.5C 79.5,12.8333 78.8333,13.5 78.5,14.5C 78.1667,14.5 77.8333,14.5 77.5,14.5C 76.7777,13.4489 75.7777,12.7822 74.5,12.5C 72.9106,11.3789 71.2439,11.5456 69.5,13C 67.2256,15.3443 66.0589,18.1776 66,21.5C 65.1841,22.8228 64.0174,23.4894 62.5,23.5C 62.7678,21.901 62.4345,20.5676 61.5,19.5C 59.2346,12.201 54.568,10.0343 47.5,13C 43.1507,18.5829 43.8173,23.5829 49.5,28C 53.601,27.6504 57.601,27.8171 61.5,28.5C 65.1916,29.0288 68.3583,28.0288 71,25.5C 71.4828,26.448 71.6495,27.448 71.5,28.5C 78.3779,28.79 81.8779,25.4567 82,18.5C 83.0113,17.6634 84.1779,17.33 85.5,17.5C 85.448,19.9029 85.7814,22.2362 86.5,24.5C 88.5389,30.1305 92.5389,31.9638 98.5,30C 99.1079,29.1301 99.9412,28.6301 101,28.5C 103.225,30.2783 105.725,30.7783 108.5,30C 110.362,26.8506 111.029,23.3506 110.5,19.5C 112.833,19.5 115.167,19.5 117.5,19.5C 117.335,22.8499 117.502,26.1832 118,29.5C 120.333,30.8333 122.667,30.8333 125,29.5C 125.499,25.8484 125.665,22.1817 125.5,18.5C 126.833,18.5 128.167,18.5 129.5,18.5C 129.335,22.1817 129.501,25.8484 130,29.5C 132.333,30.8333 134.667,30.8333 137,29.5C 137.499,25.8484 137.665,22.1817 137.5,18.5C 138.833,18.5 140.167,18.5 141.5,18.5C 142.167,21.8333 142.833,25.1667 143.5,28.5C 153.987,29.4944 164.654,29.8278 175.5,29.5C 175.5,32.8333 175.5,36.1667 175.5,39.5C 126.167,39.5 76.8333,39.5 27.5,39.5C 32.2294,34.7757 36.5627,29.7757 40.5,24.5C 40.8064,21.6146 40.4731,18.9479 39.5,16.5C 39.7271,14.0672 38.7271,12.4006 36.5,11.5C 34.5034,8.15713 31.5034,6.49046 27.5,6.5C 27.1667,6.5 26.8333,6.5 26.5,6.5C 20.5088,0.92428 14.1755,0.257614 7.5,4.5C 0.710337,9.79208 -0.289663,16.1254 4.5,23.5C 5.57935,25.543 7.24602,26.8763 9.5,27.5C 10.1667,29.8333 10.8333,32.1667 11.5,34.5C 12.075,36.4113 13.075,38.078 14.5,39.5C 9.5,39.5 4.5,39.5 -0.5,39.5C -0.5,26.1667 -0.5,12.8333 -0.5,-0.5 Z"/></g>
<g><path style="opacity:1" fill="#b4cd67" d="M 26.5,6.5 C 26.5,7.16667 26.5,7.83333 26.5,8.5C 25.8333,8.16667 25.1667,7.83333 24.5,7.5C 23.2511,5.8639 21.5844,4.69724 19.5,4C 15.9733,3.1925 12.6399,3.35916 9.5,4.5C 8.83333,4.5 8.16667,4.5 7.5,4.5C 14.1755,0.257614 20.5088,0.92428 26.5,6.5 Z"/></g>
<g><path style="opacity:1" fill="#a6ca42" d="M 9.5,4.5 C 12.6399,3.35916 15.9733,3.1925 19.5,4C 21.5844,4.69724 23.2511,5.8639 24.5,7.5C 23.791,8.40397 22.791,8.73731 21.5,8.5C 21.7852,10.288 21.4519,11.9547 20.5,13.5C 18.1052,12.4775 17.1052,13.4775 17.5,16.5C 16.5,16.5 15.5,16.5 14.5,16.5C 14.7563,14.0628 15.4229,11.7294 16.5,9.5C 14.703,8.30491 13.703,6.63824 13.5,4.5C 12.1667,4.5 10.8333,4.5 9.5,4.5 Z"/></g>
<g><path style="opacity:1" fill="#bed33c" d="M 7.5,4.5 C 8.16667,4.5 8.83333,4.5 9.5,4.5C 10.8333,4.5 12.1667,4.5 13.5,4.5C 13.703,6.63824 14.703,8.30491 16.5,9.5C 15.4229,11.7294 14.7563,14.0628 14.5,16.5C 13.2112,17.6366 12.2112,18.9699 11.5,20.5C 10.3995,21.6049 9.73286,22.9382 9.5,24.5C 9.5,24.8333 9.5,25.1667 9.5,25.5C 7.83333,24.8333 6.16667,24.1667 4.5,23.5C -0.289663,16.1254 0.710337,9.79208 7.5,4.5 Z"/></g>
<g><path style="opacity:1" fill="#2c8ab5" d="M 27.5,6.5 C 31.5034,6.49046 34.5034,8.15713 36.5,11.5C 34.1667,10.8333 31.8333,10.1667 29.5,9.5C 29.5,13.5 29.5,17.5 29.5,21.5C 28.673,16.6545 28.0063,11.6545 27.5,6.5 Z"/></g>
<g><path style="opacity:1" fill="#76bf58" d="M 24.5,7.5 C 25.1667,7.83333 25.8333,8.16667 26.5,8.5C 26.5,9.16667 26.5,9.83333 26.5,10.5C 26.7564,12.7925 26.4231,14.9592 25.5,17C 20.3788,16.7968 15.7121,17.9635 11.5,20.5C 12.2112,18.9699 13.2112,17.6366 14.5,16.5C 15.5,16.5 16.5,16.5 17.5,16.5C 17.1052,13.4775 18.1052,12.4775 20.5,13.5C 21.4519,11.9547 21.7852,10.288 21.5,8.5C 22.791,8.73731 23.791,8.40397 24.5,7.5 Z"/></g>
<g><path style="opacity:1" fill="#3fa78d" d="M 26.5,6.5 C 26.8333,6.5 27.1667,6.5 27.5,6.5C 28.0063,11.6545 28.673,16.6545 29.5,21.5C 29.5,22.1667 29.5,22.8333 29.5,23.5C 28.8826,23.3893 28.3826,23.056 28,22.5C 27.8238,18.3123 27.3238,14.3123 26.5,10.5C 26.5,9.83333 26.5,9.16667 26.5,8.5C 26.5,7.83333 26.5,7.16667 26.5,6.5 Z"/></g>
<g><path style="opacity:1" fill="#94bf53" d="M 143.5,13.5 C 145.61,17.6146 145.943,21.9479 144.5,26.5C 143.679,23.5535 143.179,20.5535 143,17.5C 140.643,15.3542 138.143,15.0209 135.5,16.5C 135.5,17.1667 135.167,17.5 134.5,17.5C 134.38,16.4138 133.713,15.7472 132.5,15.5C 131.833,15.8333 131.167,16.1667 130.5,16.5C 130.768,19.9611 131.768,22.9611 133.5,25.5C 132.791,26.404 131.791,26.7373 130.5,26.5C 130.806,23.6146 130.473,20.9479 129.5,18.5C 129.5,18.1667 129.5,17.8333 129.5,17.5C 129.03,16.3065 128.03,15.6399 126.5,15.5C 124.97,15.6399 123.97,16.3065 123.5,17.5C 122.325,17.719 121.325,17.3857 120.5,16.5C 122.461,12.993 125.461,11.6597 129.5,12.5C 130.265,12.9234 131.098,13.2568 132,13.5C 135.915,10.8704 139.748,10.8704 143.5,13.5 Z"/></g>
<g><path style="opacity:1" fill="#1e6fa7" d="M 80.5,12.5 C 81.5,12.5 82.5,12.5 83.5,12.5C 83.8432,14.4832 83.1765,15.8166 81.5,16.5C 80.2905,16.0679 79.2905,15.4013 78.5,14.5C 78.8333,13.5 79.5,12.8333 80.5,12.5 Z"/></g>
<g><path style="opacity:1" fill="#8dbb5e" d="M 173.5,11.5 C 173.5,12.8333 173.5,14.1667 173.5,15.5C 170.812,15.1658 168.479,15.8325 166.5,17.5C 166.586,16.5041 166.252,15.6708 165.5,15C 163.288,14.2109 161.288,14.3775 159.5,15.5C 157.5,15.5 155.5,15.5 153.5,15.5C 153.5,14.5 153.5,13.5 153.5,12.5C 156.852,11.1152 160.185,11.4485 163.5,13.5C 166.612,11.8163 169.946,11.1497 173.5,11.5 Z"/></g>
<g><path style="opacity:1" fill="#1d7aba" d="M 36.5,11.5 C 38.7271,12.4006 39.7271,14.0672 39.5,16.5C 40.2642,22.9641 37.5975,26.9641 31.5,28.5C 31.5979,26.4471 30.9313,24.7804 29.5,23.5C 29.5,22.8333 29.5,22.1667 29.5,21.5C 29.5,17.5 29.5,13.5 29.5,9.5C 31.8333,10.1667 34.1667,10.8333 36.5,11.5 Z"/></g>
<g><path style="opacity:1" fill="#307bb3" d="M 61.5,19.5 C 61.5,22.5 61.5,25.5 61.5,28.5C 57.601,27.8171 53.601,27.6504 49.5,28C 43.8173,23.5829 43.1507,18.5829 47.5,13C 54.568,10.0343 59.2346,12.201 61.5,19.5 Z"/></g>
<g><path style="opacity:1" fill="#cfd1d2" d="M 74.5,12.5 C 75.7777,12.7822 76.7777,13.4489 77.5,14.5C 76.1057,16.9514 75.2724,19.6181 75,22.5C 74.3292,23.2524 73.4959,23.5858 72.5,23.5C 71.5655,22.4324 71.2322,21.099 71.5,19.5C 72.9573,17.3718 73.9573,15.0384 74.5,12.5 Z"/></g>
<g><path style="opacity:1" fill="#689fc3" d="M 102.5,12.5 C 102.81,15.7131 102.477,18.7131 101.5,21.5C 101.5,18.5 101.5,15.5 101.5,12.5C 100.5,12.5 99.5,12.5 98.5,12.5C 98.81,15.7131 98.4767,18.7131 97.5,21.5C 97.5,18.1667 97.5,14.8333 97.5,11.5C 99.4147,11.2155 101.081,11.5489 102.5,12.5 Z"/></g>
<g><path style="opacity:1" fill="#308fc0" d="M 77.5,14.5 C 77.8333,14.5 78.1667,14.5 78.5,14.5C 79.2905,15.4013 80.2905,16.0679 81.5,16.5C 81.2333,20.6575 79.5666,24.1575 76.5,27C 75.2068,27.49 73.8734,27.6567 72.5,27.5C 72.5,26.1667 72.5,24.8333 72.5,23.5C 73.4959,23.5858 74.3292,23.2524 75,22.5C 75.2724,19.6181 76.1057,16.9514 77.5,14.5 Z"/></g>
<g><path style="opacity:1" fill="#2276b1" d="M 116.5,13.5 C 116.443,14.609 116.11,15.609 115.5,16.5C 112.694,14.8299 110.194,15.1632 108,17.5C 107.502,20.8168 107.335,24.1501 107.5,27.5C 106.167,27.5 104.833,27.5 103.5,27.5C 103.034,22.5698 103.701,17.9032 105.5,13.5C 109.279,10.9104 112.945,10.9104 116.5,13.5 Z"/></g>
<g><path style="opacity:1" fill="#a4acb0" d="M 55.5,17.5 C 51.5,16.8333 49.8333,18.5 50.5,22.5C 47.626,19.3073 48.4593,17.3073 53,16.5C 54.0698,16.528 54.9032,16.8614 55.5,17.5 Z"/></g>
<g><path style="opacity:1" fill="#bdd43c" d="M 134.5,17.5 C 133.527,19.9479 133.194,22.6146 133.5,25.5C 131.768,22.9611 130.768,19.9611 130.5,16.5C 131.167,16.1667 131.833,15.8333 132.5,15.5C 133.713,15.7472 134.38,16.4138 134.5,17.5 Z"/></g>
<g><path style="opacity:1" fill="#ecedee" d="M 55.5,17.5 C 57.1943,20.639 56.1943,22.639 52.5,23.5C 51.5836,23.4573 50.9169,23.1239 50.5,22.5C 49.8333,18.5 51.5,16.8333 55.5,17.5 Z"/></g>
<g><path style="opacity:1" fill="#f6f6f6" d="M 175.5,18.5 C 175.5,20.5 175.5,22.5 175.5,24.5C 173.586,23.8153 171.586,23.3153 169.5,23C 168.167,21.6667 168.167,20.3333 169.5,19C 171.473,18.5045 173.473,18.3379 175.5,18.5 Z"/></g>
<g><path style="opacity:1" fill="#2d8bbd" d="M 74.5,12.5 C 73.9573,15.0384 72.9573,17.3718 71.5,19.5C 71.06,24.936 68.06,27.6026 62.5,27.5C 62.5,26.1667 62.5,24.8333 62.5,23.5C 64.0174,23.4894 65.1841,22.8228 66,21.5C 66.0589,18.1776 67.2256,15.3443 69.5,13C 71.2439,11.5456 72.9106,11.3789 74.5,12.5 Z"/></g>
<g><path style="opacity:1" fill="#3ba17d" d="M 19.5,22.5 C 18.2928,23.1888 16.9594,23.3554 15.5,23C 13.6445,26.7048 14.8112,28.8715 19,29.5C 19.2724,32.2538 19.7724,34.9205 20.5,37.5C 19.8333,37.5 19.1667,37.5 18.5,37.5C 16.9867,35.4839 16.1534,33.1506 16,30.5C 14.5,29.6667 13.3333,28.5 12.5,27C 11.552,26.5172 10.552,26.3505 9.5,26.5C 9.5,26.1667 9.5,25.8333 9.5,25.5C 9.5,25.1667 9.5,24.8333 9.5,24.5C 11.9097,21.9273 14.7431,19.9273 18,18.5C 20.4997,19.1576 20.9997,20.4909 19.5,22.5 Z"/></g>
<g><path style="opacity:1" fill="#88b76c" d="M 129.5,12.5 C 125.461,11.6597 122.461,12.993 120.5,16.5C 121.325,17.3857 122.325,17.719 123.5,17.5C 122.586,20.728 122.253,24.0613 122.5,27.5C 121.432,28.4345 120.099,28.7678 118.5,28.5C 118.5,24.1667 118.5,19.8333 118.5,15.5C 119.962,14.5423 121.295,13.3756 122.5,12C 125.039,11.2042 127.372,11.3709 129.5,12.5 Z"/></g>
<g><path style="opacity:1" fill="#aeb1a9" d="M 129.5,17.5 C 127.99,16.2721 126.49,16.2721 125,17.5C 124.115,20.9523 123.282,24.2856 122.5,27.5C 122.253,24.0613 122.586,20.728 123.5,17.5C 123.97,16.3065 124.97,15.6399 126.5,15.5C 128.03,15.6399 129.03,16.3065 129.5,17.5 Z"/></g>
<g><path style="opacity:1" fill="#34ac61" d="M 26.5,10.5 C 27.3238,14.3123 27.8238,18.3123 28,22.5C 28.3826,23.056 28.8826,23.3893 29.5,23.5C 29.5,25.5 29.5,27.5 29.5,29.5C 27.5,29.5 25.5,29.5 23.5,29.5C 22.0317,28.1309 20.365,26.9643 18.5,26C 19.3366,24.9887 19.67,23.8221 19.5,22.5C 20.9997,20.4909 20.4997,19.1576 18,18.5C 14.7431,19.9273 11.9097,21.9273 9.5,24.5C 9.73286,22.9382 10.3995,21.6049 11.5,20.5C 15.7121,17.9635 20.3788,16.7968 25.5,17C 26.4231,14.9592 26.7564,12.7925 26.5,10.5 Z"/></g>
<g><path style="opacity:1" fill="#9dbd83" d="M 152.5,12.5 C 152.821,17.6946 152.487,22.6946 151.5,27.5C 151.5,22.5 151.5,17.5 151.5,12.5C 150.5,12.5 149.5,12.5 148.5,12.5C 148.5,17.5 148.5,22.5 148.5,27.5C 146.883,28.038 145.216,28.3713 143.5,28.5C 142.833,25.1667 142.167,21.8333 141.5,18.5C 140.01,16.7202 138.01,16.0535 135.5,16.5C 138.143,15.0209 140.643,15.3542 143,17.5C 143.179,20.5535 143.679,23.5535 144.5,26.5C 145.943,21.9479 145.61,17.6146 143.5,13.5C 145.61,14.4525 146.777,16.1192 147,18.5C 147.497,16.1902 147.663,13.8568 147.5,11.5C 149.415,11.2155 151.081,11.5489 152.5,12.5 Z"/></g>
<g><path style="opacity:1" fill="#9fbe50" d="M 151.5,27.5 C 150.5,27.5 149.5,27.5 148.5,27.5C 148.5,22.5 148.5,17.5 148.5,12.5C 149.5,12.5 150.5,12.5 151.5,12.5C 151.5,17.5 151.5,22.5 151.5,27.5 Z"/></g>
<g><path style="opacity:1" fill="#52a86e" d="M 19.5,22.5 C 19.67,23.8221 19.3366,24.9887 18.5,26C 20.365,26.9643 22.0317,28.1309 23.5,29.5C 21.9254,31.1137 21.2587,33.1137 21.5,35.5C 22.8734,35.6567 24.2068,35.49 25.5,35C 26.1029,32.9286 27.4362,31.7619 29.5,31.5C 28.052,35.6407 25.052,37.6407 20.5,37.5C 19.7724,34.9205 19.2724,32.2538 19,29.5C 14.8112,28.8715 13.6445,26.7048 15.5,23C 16.9594,23.3554 18.2928,23.1888 19.5,22.5 Z"/></g>
<g><path style="opacity:1" fill="#c1d587" d="M 4.5,23.5 C 6.16667,24.1667 7.83333,24.8333 9.5,25.5C 9.5,25.8333 9.5,26.1667 9.5,26.5C 9.5,26.8333 9.5,27.1667 9.5,27.5C 7.24602,26.8763 5.57935,25.543 4.5,23.5 Z"/></g>
<g><path style="opacity:1" fill="#aeb6bb" d="M 80.5,12.5 C 81.9187,11.5489 83.5853,11.2155 85.5,11.5C 85.5,13.5 85.5,15.5 85.5,17.5C 84.1779,17.33 83.0113,17.6634 82,18.5C 81.8779,25.4567 78.3779,28.79 71.5,28.5C 71.6495,27.448 71.4828,26.448 71,25.5C 68.3583,28.0288 65.1916,29.0288 61.5,28.5C 61.5,25.5 61.5,22.5 61.5,19.5C 62.4345,20.5676 62.7678,21.901 62.5,23.5C 62.5,24.8333 62.5,26.1667 62.5,27.5C 68.06,27.6026 71.06,24.936 71.5,19.5C 71.2322,21.099 71.5655,22.4324 72.5,23.5C 72.5,24.8333 72.5,26.1667 72.5,27.5C 73.8734,27.6567 75.2068,27.49 76.5,27C 79.5666,24.1575 81.2333,20.6575 81.5,16.5C 83.1765,15.8166 83.8432,14.4832 83.5,12.5C 82.5,12.5 81.5,12.5 80.5,12.5 Z"/></g>
<g><path style="opacity:1" fill="#178a8d" d="M 29.5,23.5 C 30.9313,24.7804 31.5979,26.4471 31.5,28.5C 31.1583,29.3382 30.4916,29.6716 29.5,29.5C 29.5,27.5 29.5,25.5 29.5,23.5 Z"/></g>
<g><path style="opacity:1" fill="#2a77af" d="M 85.5,11.5 C 87.1667,11.5 88.8333,11.5 90.5,11.5C 90.3347,15.1817 90.5014,18.8484 91,22.5C 93.5515,24.0203 95.7182,23.6869 97.5,21.5C 98.4767,18.7131 98.81,15.7131 98.5,12.5C 99.5,12.5 100.5,12.5 101.5,12.5C 101.5,15.5 101.5,18.5 101.5,21.5C 99.4611,27.1305 95.4611,28.9638 89.5,27C 88.6266,25.955 87.6266,25.1217 86.5,24.5C 85.7814,22.2362 85.448,19.9029 85.5,17.5C 85.5,15.5 85.5,13.5 85.5,11.5 Z"/></g>
<g><path style="opacity:1" fill="#b9c788" d="M 134.5,17.5 C 134.5,21.1667 134.5,24.8333 134.5,28.5C 132.517,28.8432 131.183,28.1765 130.5,26.5C 131.791,26.7373 132.791,26.404 133.5,25.5C 133.194,22.6146 133.527,19.9479 134.5,17.5 Z"/></g>
<g><path style="opacity:1" fill="#d9d9d9" d="M 40.5,24.5 C 36.5627,29.7757 32.2294,34.7757 27.5,39.5C 23.1667,39.5 18.8333,39.5 14.5,39.5C 13.075,38.078 12.075,36.4113 11.5,34.5C 12.922,35.925 14.5887,36.925 16.5,37.5C 20.0535,38.6517 23.7202,38.485 27.5,37C 31.6757,32.6574 36.009,28.4908 40.5,24.5 Z"/></g>
<g><path style="opacity:1" fill="#c1c4be" d="M 173.5,11.5 C 174.167,11.8333 174.833,12.1667 175.5,12.5C 175.5,14.5 175.5,16.5 175.5,18.5C 173.473,18.3379 171.473,18.5045 169.5,19C 168.167,20.3333 168.167,21.6667 169.5,23C 171.586,23.3153 173.586,23.8153 175.5,24.5C 175.5,26.1667 175.5,27.8333 175.5,29.5C 164.654,29.8278 153.987,29.4944 143.5,28.5C 145.216,28.3713 146.883,28.038 148.5,27.5C 149.5,27.5 150.5,27.5 151.5,27.5C 152.487,22.6946 152.821,17.6946 152.5,12.5C 152.833,12.5 153.167,12.5 153.5,12.5C 153.5,13.5 153.5,14.5 153.5,15.5C 155.5,15.5 157.5,15.5 159.5,15.5C 160.6,16.6049 161.267,17.9382 161.5,19.5C 159.521,17.8325 157.188,17.1658 154.5,17.5C 154.5,19.5 154.5,21.5 154.5,23.5C 153.549,24.9187 153.216,26.5853 153.5,28.5C 157.459,28.9287 160.959,27.9287 164,25.5C 166.826,27.3398 169.993,28.0065 173.5,27.5C 173.5,26.5 173.5,25.5 173.5,24.5C 167.833,25.4976 165.499,23.1643 166.5,17.5C 168.479,15.8325 170.812,15.1658 173.5,15.5C 173.5,14.1667 173.5,12.8333 173.5,11.5 Z"/></g>
<g><path style="opacity:1" fill="#94bd63" d="M 166.5,17.5 C 165.499,23.1643 167.833,25.4976 173.5,24.5C 173.5,25.5 173.5,26.5 173.5,27.5C 169.993,28.0065 166.826,27.3398 164,25.5C 160.959,27.9287 157.459,28.9287 153.5,28.5C 153.216,26.5853 153.549,24.9187 154.5,23.5C 157.188,23.8342 159.521,23.1675 161.5,21.5C 162.145,22.8118 163.145,23.8118 164.5,24.5C 165.168,22.0312 165.835,19.6979 166.5,17.5 Z"/></g>
<g><path style="opacity:1" fill="#bcd344" d="M 166.5,17.5 C 165.835,19.6979 165.168,22.0312 164.5,24.5C 163.145,23.8118 162.145,22.8118 161.5,21.5C 161.5,20.8333 161.5,20.1667 161.5,19.5C 161.267,17.9382 160.6,16.6049 159.5,15.5C 161.288,14.3775 163.288,14.2109 165.5,15C 166.252,15.6708 166.586,16.5041 166.5,17.5 Z"/></g>
<g><path style="opacity:1" fill="#f1f1ef" d="M 161.5,19.5 C 161.5,20.1667 161.5,20.8333 161.5,21.5C 159.521,23.1675 157.188,23.8342 154.5,23.5C 154.5,21.5 154.5,19.5 154.5,17.5C 157.188,17.1658 159.521,17.8325 161.5,19.5 Z"/></g>
<g><path style="opacity:1" fill="#36938f" d="M 9.5,26.5 C 10.552,26.3505 11.552,26.5172 12.5,27C 13.3333,28.5 14.5,29.6667 16,30.5C 16.1534,33.1506 16.9867,35.4839 18.5,37.5C 17.8333,37.5 17.1667,37.5 16.5,37.5C 14.5887,36.925 12.922,35.925 11.5,34.5C 10.8333,32.1667 10.1667,29.8333 9.5,27.5C 9.5,27.1667 9.5,26.8333 9.5,26.5 Z"/></g>
<g><path style="opacity:1" fill="#d9dcdb" d="M 102.5,12.5 C 103.391,13.1098 104.391,13.4431 105.5,13.5C 103.701,17.9032 103.034,22.5698 103.5,27.5C 104.919,28.4511 106.585,28.7845 108.5,28.5C 108.18,25.1016 108.513,21.7683 109.5,18.5C 111.657,17.9495 113.657,17.2829 115.5,16.5C 116.11,15.609 116.443,14.609 116.5,13.5C 117.833,13.5 118.5,14.1667 118.5,15.5C 118.5,19.8333 118.5,24.1667 118.5,28.5C 120.099,28.7678 121.432,28.4345 122.5,27.5C 123.282,24.2856 124.115,20.9523 125,17.5C 126.49,16.2721 127.99,16.2721 129.5,17.5C 129.5,17.8333 129.5,18.1667 129.5,18.5C 128.167,18.5 126.833,18.5 125.5,18.5C 125.665,22.1817 125.499,25.8484 125,29.5C 122.667,30.8333 120.333,30.8333 118,29.5C 117.502,26.1832 117.335,22.8499 117.5,19.5C 115.167,19.5 112.833,19.5 110.5,19.5C 111.029,23.3506 110.362,26.8506 108.5,30C 105.725,30.7783 103.225,30.2783 101,28.5C 99.9412,28.6301 99.1079,29.1301 98.5,30C 92.5389,31.9638 88.5389,30.1305 86.5,24.5C 87.6266,25.1217 88.6266,25.955 89.5,27C 95.4611,28.9638 99.4611,27.1305 101.5,21.5C 102.477,18.7131 102.81,15.7131 102.5,12.5 Z"/></g>
<g><path style="opacity:1" fill="#8da4b4" d="M 115.5,16.5 C 113.657,17.2829 111.657,17.9495 109.5,18.5C 108.513,21.7683 108.18,25.1016 108.5,28.5C 106.585,28.7845 104.919,28.4511 103.5,27.5C 104.833,27.5 106.167,27.5 107.5,27.5C 107.335,24.1501 107.502,20.8168 108,17.5C 110.194,15.1632 112.694,14.8299 115.5,16.5 Z"/></g>
<g><path style="opacity:1" fill="#dbdcd8" d="M 135.5,16.5 C 138.01,16.0535 140.01,16.7202 141.5,18.5C 140.167,18.5 138.833,18.5 137.5,18.5C 137.665,22.1817 137.499,25.8484 137,29.5C 134.667,30.8333 132.333,30.8333 130,29.5C 129.501,25.8484 129.335,22.1817 129.5,18.5C 130.473,20.9479 130.806,23.6146 130.5,26.5C 131.183,28.1765 132.517,28.8432 134.5,28.5C 134.5,24.8333 134.5,21.1667 134.5,17.5C 135.167,17.5 135.5,17.1667 135.5,16.5 Z"/></g>
<g><path style="opacity:1" fill="#69b553" d="M 23.5,29.5 C 25.5,29.5 27.5,29.5 29.5,29.5C 29.5,30.1667 29.5,30.8333 29.5,31.5C 27.4362,31.7619 26.1029,32.9286 25.5,35C 24.2068,35.49 22.8734,35.6567 21.5,35.5C 21.2587,33.1137 21.9254,31.1137 23.5,29.5 Z"/></g>
<g><path style="opacity:1" fill="#abb5af" d="M 39.5,16.5 C 40.4731,18.9479 40.8064,21.6146 40.5,24.5C 36.009,28.4908 31.6757,32.6574 27.5,37C 23.7202,38.485 20.0535,38.6517 16.5,37.5C 17.1667,37.5 17.8333,37.5 18.5,37.5C 19.1667,37.5 19.8333,37.5 20.5,37.5C 25.052,37.6407 28.052,35.6407 29.5,31.5C 29.5,30.8333 29.5,30.1667 29.5,29.5C 30.4916,29.6716 31.1583,29.3382 31.5,28.5C 37.5975,26.9641 40.2642,22.9641 39.5,16.5 Z"/></g>
</svg>
