<?xml version="1.0" encoding="UTF-8"?>
<!DOCTYPE svg PUBLIC "-//W3C//DTD SVG 1.1//EN" "http://www.w3.org/Graphics/SVG/1.1/DTD/svg11.dtd">
<svg xmlns="http://www.w3.org/2000/svg" version="1.1" width="42px" height="40px" style="shape-rendering:geometricPrecision; text-rendering:geometricPrecision; image-rendering:optimizeQuality; fill-rule:evenodd; clip-rule:evenodd" xmlns:xlink="http://www.w3.org/1999/xlink">
<g><path style="opacity:1" fill="#dbe8a1" d="M 23.5,4.5 C 22.1667,4.16667 20.8333,3.83333 19.5,3.5C 19.1667,3.5 18.8333,3.5 18.5,3.5C 15.041,2.13529 11.7076,2.46862 8.5,4.5C 7.83333,4.5 7.16667,4.5 6.5,4.5C 10.8405,0.401349 15.8405,-0.431984 21.5,2C 22.3805,2.7083 23.0472,3.54163 23.5,4.5 Z"/></g>
<g><path style="opacity:1" fill="#afca43" d="M 18.5,3.5 C 17.325,3.28099 16.325,3.61432 15.5,4.5C 16.9584,5.78202 18.2918,5.78202 19.5,4.5C 20.3382,4.84171 20.6716,5.50838 20.5,6.5C 19.596,7.20895 19.2627,8.20895 19.5,9.5C 18.8333,9.5 18.1667,9.5 17.5,9.5C 17.1667,9.5 16.8333,9.5 16.5,9.5C 16.0269,8.09368 15.0269,7.42702 13.5,7.5C 13.5,6.5 13.5,5.5 13.5,4.5C 11.8333,4.5 10.1667,4.5 8.5,4.5C 11.7076,2.46862 15.041,2.13529 18.5,3.5 Z"/></g>
<g><path style="opacity:1" fill="#b8d136" d="M 8.5,4.5 C 10.1667,4.5 11.8333,4.5 13.5,4.5C 13.5,5.5 13.5,6.5 13.5,7.5C 13.5,8.16667 13.5,8.83333 13.5,9.5C 12.2223,9.78219 11.2223,10.4489 10.5,11.5C 9.90018,10.1001 8.90018,9.10008 7.5,8.5C 8.37644,8.63088 9.04311,8.29755 9.5,7.5C 8.87277,6.58317 8.53944,5.58317 8.5,4.5 Z"/></g>
<g><path style="opacity:1" fill="#a9ce3b" d="M 18.5,3.5 C 18.8333,3.5 19.1667,3.5 19.5,3.5C 19.5,3.83333 19.5,4.16667 19.5,4.5C 18.2918,5.78202 16.9584,5.78202 15.5,4.5C 16.325,3.61432 17.325,3.28099 18.5,3.5 Z"/></g>
<g><path style="opacity:1" fill="#a2c34c" d="M 19.5,4.5 C 19.5,4.16667 19.5,3.83333 19.5,3.5C 20.8333,3.83333 22.1667,4.16667 23.5,4.5C 23.5,5.16667 23.5,5.83333 23.5,6.5C 22.5,6.5 21.5,6.5 20.5,6.5C 20.6716,5.50838 20.3382,4.84171 19.5,4.5 Z"/></g>
<g><path style="opacity:0.969" fill="#a9c784" d="M 23.5,4.5 C 24.5,5.16667 25.5,5.83333 26.5,6.5C 26.5,6.83333 26.5,7.16667 26.5,7.5C 26.1667,7.5 25.8333,7.5 25.5,7.5C 25.1667,7.5 24.8333,7.5 24.5,7.5C 24.5,6.83333 24.1667,6.5 23.5,6.5C 23.5,5.83333 23.5,5.16667 23.5,4.5 Z"/></g>
<g><path style="opacity:1" fill="#9dc746" d="M 20.5,6.5 C 21.5,6.5 22.5,6.5 23.5,6.5C 22.4489,7.22235 21.7822,8.22235 21.5,9.5C 20.8333,9.5 20.1667,9.5 19.5,9.5C 19.2627,8.20895 19.596,7.20895 20.5,6.5 Z"/></g>
<g><path style="opacity:1" fill="#c1d446" d="M 6.5,4.5 C 7.16667,4.5 7.83333,4.5 8.5,4.5C 8.53944,5.58317 8.87277,6.58317 9.5,7.5C 9.04311,8.29755 8.37644,8.63088 7.5,8.5C 7.63101,7.76109 7.46434,7.09442 7,6.5C 6.58309,7.75598 5.74975,8.42265 4.5,8.5C 4.73286,6.93819 5.39952,5.60486 6.5,4.5 Z"/></g>
<g><path style="opacity:1" fill="#208bb5" d="M 27.5,7.5 C 29.4147,7.21552 31.0813,7.54885 32.5,8.5C 32.5,8.83333 32.5,9.16667 32.5,9.5C 30.8212,9.28519 29.8212,9.95186 29.5,11.5C 29.5,14.8333 29.5,18.1667 29.5,21.5C 28.7265,16.9714 28.0599,12.3047 27.5,7.5 Z"/></g>
<g><path style="opacity:1" fill="#c3d630" d="M 7.5,8.5 C 8.90018,9.10008 9.90018,10.1001 10.5,11.5C 8.95186,11.8212 8.28519,12.8212 8.5,14.5C 7.83333,14.8333 7.16667,15.1667 6.5,15.5C 4.46765,14.9522 3.46765,13.6188 3.5,11.5C 3.55688,10.391 3.89022,9.39105 4.5,8.5C 5.74975,8.42265 6.58309,7.75598 7,6.5C 7.46434,7.09442 7.63101,7.76109 7.5,8.5 Z"/></g>
<g><path style="opacity:1" fill="#b7cf40" d="M 13.5,9.5 C 13.5,10.8333 13.5,12.1667 13.5,13.5C 11.8212,13.7148 10.8212,13.0481 10.5,11.5C 11.2223,10.4489 12.2223,9.78219 13.5,9.5 Z"/></g>
<g><path style="opacity:1" fill="#b0cf32" d="M 13.5,7.5 C 15.0269,7.42702 16.0269,8.09368 16.5,9.5C 16.0113,10.9952 15.3446,12.3285 14.5,13.5C 14.1667,13.5 13.8333,13.5 13.5,13.5C 13.5,12.1667 13.5,10.8333 13.5,9.5C 13.5,8.83333 13.5,8.16667 13.5,7.5 Z"/></g>
<g><path style="opacity:1" fill="#e2ea96" d="M 6.5,4.5 C 5.39952,5.60486 4.73286,6.93819 4.5,8.5C 3.89022,9.39105 3.55688,10.391 3.5,11.5C 3.16667,11.5 2.83333,11.5 2.5,11.5C 2.16667,11.5 1.83333,11.5 1.5,11.5C 1.98054,8.16646 3.64721,5.83312 6.5,4.5 Z"/></g>
<g><path style="opacity:1" fill="#78ba5d" d="M 23.5,10.5 C 24.0241,12.3057 24.6908,13.9724 25.5,15.5C 25.5,16.8333 24.8333,17.5 23.5,17.5C 23.5,17.1667 23.5,16.8333 23.5,16.5C 22.7093,14.3093 22.7093,12.3093 23.5,10.5 Z"/></g>
<g><path style="opacity:1" fill="#93c845" d="M 17.5,9.5 C 18.1667,9.5 18.8333,9.5 19.5,9.5C 20.1667,9.5 20.8333,9.5 21.5,9.5C 21.8948,12.5225 20.8948,13.5225 18.5,12.5C 17.5713,13.6888 17.238,15.0222 17.5,16.5C 17.1667,16.5 16.8333,16.5 16.5,16.5C 16.448,14.0971 16.7814,11.7638 17.5,9.5 Z"/></g>
<g><path style="opacity:1" fill="#84c053" d="M 23.5,6.5 C 24.1667,6.5 24.5,6.83333 24.5,7.5C 23.8902,8.39105 23.5569,9.39105 23.5,10.5C 22.7093,12.3093 22.7093,14.3093 23.5,16.5C 21.5,15.1667 19.5,15.1667 17.5,16.5C 17.238,15.0222 17.5713,13.6888 18.5,12.5C 20.8948,13.5225 21.8948,12.5225 21.5,9.5C 21.7822,8.22235 22.4489,7.22235 23.5,6.5 Z"/></g>
<g><path style="opacity:1" fill="#0983cc" d="M 32.5,9.5 C 32.8039,10.1499 33.1373,10.8165 33.5,11.5C 32.1468,12.5237 31.4802,13.857 31.5,15.5C 31.1667,15.5 30.8333,15.5 30.5,15.5C 30.7678,13.901 30.4345,12.5676 29.5,11.5C 29.8212,9.95186 30.8212,9.28519 32.5,9.5 Z"/></g>
<g><path style="opacity:1" fill="#40a78d" d="M 26.5,6.5 C 27.1667,6.5 27.5,6.83333 27.5,7.5C 28.0599,12.3047 28.7265,16.9714 29.5,21.5C 29.5,22.1667 29.5,22.8333 29.5,23.5C 28.8333,23.1667 28.1667,22.8333 27.5,22.5C 27.8168,18.2984 27.4834,14.2984 26.5,10.5C 26.5,9.5 26.5,8.5 26.5,7.5C 26.5,7.16667 26.5,6.83333 26.5,6.5 Z"/></g>
<g><path style="opacity:1" fill="#0f7fbb" d="M 32.5,8.5 C 34.7727,8.95681 36.106,10.2901 36.5,12.5C 36.5,12.8333 36.5,13.1667 36.5,13.5C 34.8212,13.2852 33.8212,13.9519 33.5,15.5C 33.1667,15.5 32.8333,15.5 32.5,15.5C 32.1667,15.5 31.8333,15.5 31.5,15.5C 31.4802,13.857 32.1468,12.5237 33.5,11.5C 33.1373,10.8165 32.8039,10.1499 32.5,9.5C 32.5,9.16667 32.5,8.83333 32.5,8.5 Z"/></g>
<g><path style="opacity:1" fill="#bcd134" d="M 10.5,11.5 C 10.8212,13.0481 11.8212,13.7148 13.5,13.5C 13.5,14.5 13.5,15.5 13.5,16.5C 12.5,16.5 11.5,16.5 10.5,16.5C 10.5,17.5 10.5,18.5 10.5,19.5C 9.5,19.5 8.5,19.5 7.5,19.5C 7.5,18.8333 7.5,18.1667 7.5,17.5C 9.55182,16.9473 9.88516,15.9473 8.5,14.5C 8.28519,12.8212 8.95186,11.8212 10.5,11.5 Z"/></g>
<g><path style="opacity:1" fill="#a9cd3f" d="M 16.5,9.5 C 16.8333,9.5 17.1667,9.5 17.5,9.5C 16.7814,11.7638 16.448,14.0971 16.5,16.5C 15.8333,16.5 15.1667,16.5 14.5,16.5C 14.5,15.5 14.5,14.5 14.5,13.5C 15.3446,12.3285 16.0113,10.9952 16.5,9.5 Z"/></g>
<g><path style="opacity:1" fill="#72bd57" d="M 24.5,7.5 C 24.8333,7.5 25.1667,7.5 25.5,7.5C 25.5,10.1667 25.5,12.8333 25.5,15.5C 24.6908,13.9724 24.0241,12.3057 23.5,10.5C 23.5569,9.39105 23.8902,8.39105 24.5,7.5 Z"/></g>
<g><path style="opacity:1" fill="#63bb58" d="M 25.5,7.5 C 25.8333,7.5 26.1667,7.5 26.5,7.5C 26.5,8.5 26.5,9.5 26.5,10.5C 26.5,13.1667 26.5,15.8333 26.5,18.5C 25.209,18.7373 24.209,18.404 23.5,17.5C 24.8333,17.5 25.5,16.8333 25.5,15.5C 25.5,12.8333 25.5,10.1667 25.5,7.5 Z"/></g>
<g><path style="opacity:1" fill="#e5ed91" d="M 1.5,11.5 C 1.83333,11.5 2.16667,11.5 2.5,11.5C 2.5,12.8333 2.5,14.1667 2.5,15.5C 2.25939,17.8984 2.92606,19.8984 4.5,21.5C 4.5,21.8333 4.5,22.1667 4.5,22.5C 3.25025,22.4226 2.41691,21.756 2,20.5C 1.50204,17.5184 1.33537,14.5184 1.5,11.5 Z"/></g>
<g><path style="opacity:1" fill="#c5d537" d="M 2.5,11.5 C 2.83333,11.5 3.16667,11.5 3.5,11.5C 3.46765,13.6188 4.46765,14.9522 6.5,15.5C 6.32842,16.4916 6.66175,17.1583 7.5,17.5C 7.5,18.1667 7.5,18.8333 7.5,19.5C 6.22235,19.2178 5.22235,18.5511 4.5,17.5C 4.16667,16.5 3.5,15.8333 2.5,15.5C 2.5,14.1667 2.5,12.8333 2.5,11.5 Z"/></g>
<g><path style="opacity:1" fill="#bed630" d="M 8.5,14.5 C 9.88516,15.9473 9.55182,16.9473 7.5,17.5C 6.66175,17.1583 6.32842,16.4916 6.5,15.5C 7.16667,15.1667 7.83333,14.8333 8.5,14.5 Z"/></g>
<g><path style="opacity:1" fill="#007ac3" d="M 30.5,15.5 C 30.8333,15.5 31.1667,15.5 31.5,15.5C 31.8333,15.5 32.1667,15.5 32.5,15.5C 32.3713,17.2161 32.038,18.8828 31.5,20.5C 30.4819,19.7079 30.1486,18.0412 30.5,15.5 Z"/></g>
<g><path style="opacity:1" fill="#b5d13f" d="M 13.5,13.5 C 13.8333,13.5 14.1667,13.5 14.5,13.5C 14.5,14.5 14.5,15.5 14.5,16.5C 13.2112,17.6366 12.2112,18.9699 11.5,20.5C 11.5,21.1667 11.1667,21.5 10.5,21.5C 10.5,20.8333 10.5,20.1667 10.5,19.5C 10.5,18.5 10.5,17.5 10.5,16.5C 11.5,16.5 12.5,16.5 13.5,16.5C 13.5,15.5 13.5,14.5 13.5,13.5 Z"/></g>
<g><path style="opacity:1" fill="#65be5c" d="M 23.5,16.5 C 23.5,16.8333 23.5,17.1667 23.5,17.5C 22.5,17.5 21.5,17.5 20.5,17.5C 19.1667,17.5 17.8333,17.5 16.5,17.5C 16.5,17.1667 16.5,16.8333 16.5,16.5C 16.8333,16.5 17.1667,16.5 17.5,16.5C 19.5,15.1667 21.5,15.1667 23.5,16.5 Z"/></g>
<g><path style="opacity:1" fill="#0174c2" d="M 36.5,13.5 C 36.5,15.5 36.5,17.5 36.5,19.5C 36.1667,19.5 35.8333,19.5 35.5,19.5C 35.5,18.8333 35.5,18.1667 35.5,17.5C 35.5,16.1667 34.8333,15.5 33.5,15.5C 33.8212,13.9519 34.8212,13.2852 36.5,13.5 Z"/></g>
<g><path style="opacity:1" fill="#cad240" d="M 2.5,15.5 C 3.5,15.8333 4.16667,16.5 4.5,17.5C 4.5,18.8333 4.5,20.1667 4.5,21.5C 2.92606,19.8984 2.25939,17.8984 2.5,15.5 Z"/></g>
<g><path style="opacity:1" fill="#90c758" d="M 14.5,16.5 C 15.1667,16.5 15.8333,16.5 16.5,16.5C 16.5,16.8333 16.5,17.1667 16.5,17.5C 14.9991,18.7515 13.3325,19.7515 11.5,20.5C 12.2112,18.9699 13.2112,17.6366 14.5,16.5 Z"/></g>
<g><path style="opacity:1" fill="#4caa64" d="M 16.5,17.5 C 17.8333,17.5 19.1667,17.5 20.5,17.5C 20.5,18.1667 20.8333,18.5 21.5,18.5C 21.5,19.5 21.5,20.5 21.5,21.5C 21.1667,21.5 20.8333,21.5 20.5,21.5C 19.4228,18.028 17.7561,17.6947 15.5,20.5C 13.9731,20.427 12.9731,21.0937 12.5,22.5C 11.5,23.1667 10.5,23.8333 9.5,24.5C 9.55688,23.391 9.89022,22.391 10.5,21.5C 11.1667,21.5 11.5,21.1667 11.5,20.5C 13.3325,19.7515 14.9991,18.7515 16.5,17.5 Z"/></g>
<g><path style="opacity:1" fill="#0a6cb1" d="M 36.5,12.5 C 37.4013,13.2905 38.0679,14.2905 38.5,15.5C 38.7678,17.099 38.4345,18.4324 37.5,19.5C 37.1667,19.5 36.8333,19.5 36.5,19.5C 36.5,17.5 36.5,15.5 36.5,13.5C 36.5,13.1667 36.5,12.8333 36.5,12.5 Z"/></g>
<g><path style="opacity:1" fill="#36ac51" d="M 20.5,17.5 C 21.5,17.5 22.5,17.5 23.5,17.5C 24.209,18.404 25.209,18.7373 26.5,18.5C 26.5,19.5 26.5,20.5 26.5,21.5C 25.2921,22.2341 23.9587,22.5674 22.5,22.5C 22.7678,20.901 22.4345,19.5676 21.5,18.5C 20.8333,18.5 20.5,18.1667 20.5,17.5 Z"/></g>
<g><path style="opacity:1" fill="#0177bc" d="M 32.5,15.5 C 32.8333,15.5 33.1667,15.5 33.5,15.5C 34.8333,15.5 35.5,16.1667 35.5,17.5C 34.1667,18.5 32.8333,19.5 31.5,20.5C 32.038,18.8828 32.3713,17.2161 32.5,15.5 Z"/></g>
<g><path style="opacity:1" fill="#c7d731" d="M 4.5,17.5 C 5.22235,18.5511 6.22235,19.2178 7.5,19.5C 7.5,20.5 7.5,21.5 7.5,22.5C 6.5,22.5 5.5,22.5 4.5,22.5C 4.5,22.1667 4.5,21.8333 4.5,21.5C 4.5,20.1667 4.5,18.8333 4.5,17.5 Z"/></g>
<g><path style="opacity:1" fill="#0376b6" d="M 29.5,11.5 C 30.4345,12.5676 30.7678,13.901 30.5,15.5C 30.1486,18.0412 30.4819,19.7079 31.5,20.5C 32.8333,19.5 34.1667,18.5 35.5,17.5C 35.5,18.1667 35.5,18.8333 35.5,19.5C 33.1496,21.2133 32.1496,23.5466 32.5,26.5C 32.1667,26.5 31.8333,26.5 31.5,26.5C 31.7148,24.8212 31.0481,23.8212 29.5,23.5C 29.5,22.8333 29.5,22.1667 29.5,21.5C 29.5,18.1667 29.5,14.8333 29.5,11.5 Z"/></g>
<g><path style="opacity:0.98" fill="#5490c1" d="M 38.5,15.5 C 39.1524,16.4486 39.4857,17.6153 39.5,19C 39.6068,21.2206 38.9402,23.0539 37.5,24.5C 37.5,22.8333 37.5,21.1667 37.5,19.5C 38.4345,18.4324 38.7678,17.099 38.5,15.5 Z"/></g>
<g><path style="opacity:1" fill="#42a279" d="M 15.5,20.5 C 15.5,21.1667 15.5,21.8333 15.5,22.5C 15.1667,23.1667 14.8333,23.8333 14.5,24.5C 14.2627,25.791 14.596,26.791 15.5,27.5C 15.5,27.8333 15.5,28.1667 15.5,28.5C 14.8333,28.5 14.1667,28.5 13.5,28.5C 13.5,28.1667 13.5,27.8333 13.5,27.5C 13.7845,25.5853 13.4511,23.9187 12.5,22.5C 12.9731,21.0937 13.9731,20.427 15.5,20.5 Z"/></g>
<g><path style="opacity:1" fill="#28a67e" d="M 20.5,21.5 C 19.8333,21.5 19.5,21.8333 19.5,22.5C 18.2976,23.4054 16.9643,23.4054 15.5,22.5C 15.5,21.8333 15.5,21.1667 15.5,20.5C 17.7561,17.6947 19.4228,18.028 20.5,21.5 Z"/></g>
<g><path style="opacity:1" fill="#bdd43d" d="M 7.5,19.5 C 8.5,19.5 9.5,19.5 10.5,19.5C 10.5,20.1667 10.5,20.8333 10.5,21.5C 9.89022,22.391 9.55688,23.391 9.5,24.5C 7.7839,24.3713 6.11723,24.038 4.5,23.5C 4.5,23.1667 4.5,22.8333 4.5,22.5C 5.5,22.5 6.5,22.5 7.5,22.5C 7.5,21.5 7.5,20.5 7.5,19.5 Z"/></g>
<g><path style="opacity:1" fill="#2cad5a" d="M 21.5,18.5 C 22.4345,19.5676 22.7678,20.901 22.5,22.5C 23.9587,22.5674 25.2921,22.2341 26.5,21.5C 26.2089,22.6491 25.3756,23.3158 24,23.5C 22.6244,23.3158 21.7911,22.6491 21.5,21.5C 21.5,20.5 21.5,19.5 21.5,18.5 Z"/></g>
<g><path style="opacity:1" fill="#0073c0" d="M 35.5,19.5 C 35.8333,19.5 36.1667,19.5 36.5,19.5C 36.5,20.8333 36.5,22.1667 36.5,23.5C 35.5,23.5 34.5,23.5 33.5,23.5C 33.5,24.5 33.5,25.5 33.5,26.5C 33.1667,26.5 32.8333,26.5 32.5,26.5C 32.1496,23.5466 33.1496,21.2133 35.5,19.5 Z"/></g>
<g><path style="opacity:1" fill="#409c7f" d="M 12.5,22.5 C 13.4511,23.9187 13.7845,25.5853 13.5,27.5C 12.2921,26.7659 10.9587,26.4326 9.5,26.5C 9.5,25.8333 9.5,25.1667 9.5,24.5C 10.5,23.8333 11.5,23.1667 12.5,22.5 Z"/></g>
<g><path style="opacity:1" fill="#33b063" d="M 26.5,10.5 C 27.4834,14.2984 27.8168,18.2984 27.5,22.5C 27.7373,23.791 27.404,24.791 26.5,25.5C 24.9582,24.6993 23.2915,24.366 21.5,24.5C 20.596,23.791 20.2627,22.791 20.5,21.5C 20.8333,21.5 21.1667,21.5 21.5,21.5C 21.7911,22.6491 22.6244,23.3158 24,23.5C 25.3756,23.3158 26.2089,22.6491 26.5,21.5C 26.5,20.5 26.5,19.5 26.5,18.5C 26.5,15.8333 26.5,13.1667 26.5,10.5 Z"/></g>
<g><path style="opacity:1" fill="#0a6fb4" d="M 36.5,19.5 C 36.8333,19.5 37.1667,19.5 37.5,19.5C 37.5,21.1667 37.5,22.8333 37.5,24.5C 36.1667,25.1667 34.8333,25.8333 33.5,26.5C 33.5,25.5 33.5,24.5 33.5,23.5C 34.5,23.5 35.5,23.5 36.5,23.5C 36.5,22.1667 36.5,20.8333 36.5,19.5 Z"/></g>
<g><path style="opacity:1" fill="#c1d974" d="M 4.5,23.5 C 6.11723,24.038 7.7839,24.3713 9.5,24.5C 9.5,25.1667 9.5,25.8333 9.5,26.5C 8.83333,26.5 8.16667,26.5 7.5,26.5C 6.16667,25.8333 5.16667,24.8333 4.5,23.5 Z"/></g>
<g><path style="opacity:1" fill="#4fa768" d="M 14.5,24.5 C 15.9587,24.4326 17.2921,24.7659 18.5,25.5C 18.8333,26.1667 19.1667,26.8333 19.5,27.5C 18.1667,27.5 16.8333,27.5 15.5,27.5C 14.596,26.791 14.2627,25.791 14.5,24.5 Z"/></g>
<g><path style="opacity:1" fill="#38a56f" d="M 15.5,22.5 C 16.9643,23.4054 18.2976,23.4054 19.5,22.5C 19.7373,23.791 19.404,24.791 18.5,25.5C 17.2921,24.7659 15.9587,24.4326 14.5,24.5C 14.8333,23.8333 15.1667,23.1667 15.5,22.5 Z"/></g>
<g><path style="opacity:1" fill="#23a668" d="M 20.5,21.5 C 20.2627,22.791 20.596,23.791 21.5,24.5C 22.9418,25.8195 23.6085,27.4862 23.5,29.5C 23.1667,29.5 22.8333,29.5 22.5,29.5C 22.1788,27.9519 21.1788,27.2852 19.5,27.5C 19.1667,26.8333 18.8333,26.1667 18.5,25.5C 19.404,24.791 19.7373,23.791 19.5,22.5C 19.5,21.8333 19.8333,21.5 20.5,21.5 Z"/></g>
<g><path style="opacity:1" fill="#1fa861" d="M 21.5,24.5 C 23.2915,24.366 24.9582,24.6993 26.5,25.5C 26.5,26.5 26.5,27.5 26.5,28.5C 27.5,28.5 28.5,28.5 29.5,28.5C 29.5,28.8333 29.5,29.1667 29.5,29.5C 27.5,29.5 25.5,29.5 23.5,29.5C 23.6085,27.4862 22.9418,25.8195 21.5,24.5 Z"/></g>
<g><path style="opacity:1" fill="#19a56e" d="M 27.5,22.5 C 28.1667,22.8333 28.8333,23.1667 29.5,23.5C 29.5,25.1667 29.5,26.8333 29.5,28.5C 28.5,28.5 27.5,28.5 26.5,28.5C 26.5,27.5 26.5,26.5 26.5,25.5C 27.404,24.791 27.7373,23.791 27.5,22.5 Z"/></g>
<g><path style="opacity:1" fill="#16878f" d="M 29.5,23.5 C 31.0481,23.8212 31.7148,24.8212 31.5,26.5C 31.5,27.1667 31.5,27.8333 31.5,28.5C 31.1583,29.3382 30.4916,29.6716 29.5,29.5C 29.5,29.1667 29.5,28.8333 29.5,28.5C 29.5,26.8333 29.5,25.1667 29.5,23.5 Z"/></g>
<g><path style="opacity:1" fill="#3c7eae" d="M 37.5,24.5 C 36.8333,26.5 35.5,27.8333 33.5,28.5C 32.8333,28.5 32.1667,28.5 31.5,28.5C 31.5,27.8333 31.5,27.1667 31.5,26.5C 31.8333,26.5 32.1667,26.5 32.5,26.5C 32.8333,26.5 33.1667,26.5 33.5,26.5C 34.8333,25.8333 36.1667,25.1667 37.5,24.5 Z"/></g>
<g><path style="opacity:1" fill="#4ba773" d="M 15.5,28.5 C 15.5,28.1667 15.5,27.8333 15.5,27.5C 16.8333,27.5 18.1667,27.5 19.5,27.5C 21.1788,27.2852 22.1788,27.9519 22.5,29.5C 21.1667,29.5 20.5,30.1667 20.5,31.5C 20.1667,31.5 19.8333,31.5 19.5,31.5C 19.6716,30.5084 19.3382,29.8417 18.5,29.5C 17.791,28.596 16.791,28.2627 15.5,28.5 Z"/></g>
<g><path style="opacity:0.247" fill="#d9f2ec" d="M 7.5,26.5 C 8.16667,26.5 8.83333,26.5 9.5,26.5C 9.26269,27.791 9.59603,28.791 10.5,29.5C 10.5,30.5 10.5,31.5 10.5,32.5C 9.13022,30.7496 8.13022,28.7496 7.5,26.5 Z"/></g>
<g><path style="opacity:1" fill="#2a948d" d="M 9.5,26.5 C 10.9587,26.4326 12.2921,26.7659 13.5,27.5C 13.5,27.8333 13.5,28.1667 13.5,28.5C 14.1667,29.1667 14.8333,29.8333 15.5,30.5C 15.1667,30.5 14.8333,30.5 14.5,30.5C 13.2223,30.2178 12.2223,29.5511 11.5,28.5C 10.8333,28.5 10.5,28.8333 10.5,29.5C 9.59603,28.791 9.26269,27.791 9.5,26.5 Z"/></g>
<g><path style="opacity:1" fill="#469a7f" d="M 13.5,28.5 C 14.1667,28.5 14.8333,28.5 15.5,28.5C 16.791,28.2627 17.791,28.596 18.5,29.5C 18.179,30.8175 17.8457,32.1508 17.5,33.5C 17.4534,35.0377 18.1201,36.0377 19.5,36.5C 19.5,36.8333 19.5,37.1667 19.5,37.5C 18.1667,37.5 16.8333,37.5 15.5,37.5C 15.5,37.1667 15.5,36.8333 15.5,36.5C 15.7583,34.8098 15.7583,32.8098 15.5,30.5C 14.8333,29.8333 14.1667,29.1667 13.5,28.5 Z"/></g>
<g><path style="opacity:1" fill="#5faa67" d="M 22.5,29.5 C 22.8333,29.5 23.1667,29.5 23.5,29.5C 23.5,29.8333 23.5,30.1667 23.5,30.5C 21.744,31.5521 21.0773,33.2188 21.5,35.5C 20.5655,34.4324 20.2322,33.099 20.5,31.5C 20.5,30.1667 21.1667,29.5 22.5,29.5 Z"/></g>
<g><path style="opacity:1" fill="#63b952" d="M 23.5,30.5 C 23.5,30.1667 23.5,29.8333 23.5,29.5C 25.5,29.5 27.5,29.5 29.5,29.5C 29.5,30.1667 29.5,30.8333 29.5,31.5C 27.9064,31.9195 26.4064,32.5862 25,33.5C 23.9363,32.5795 23.4363,31.5795 23.5,30.5 Z"/></g>
<g><path style="opacity:1" fill="#c0e1cf" d="M 31.5,28.5 C 32.1667,28.5 32.8333,28.5 33.5,28.5C 31.6783,30.404 30.0117,32.404 28.5,34.5C 28.5569,33.391 28.8902,32.391 29.5,31.5C 29.5,30.8333 29.5,30.1667 29.5,29.5C 30.4916,29.6716 31.1583,29.3382 31.5,28.5 Z"/></g>
<g><path style="opacity:1" fill="#2b7c8c" d="M 11.5,28.5 C 11.7036,30.6854 12.3702,32.6854 13.5,34.5C 13.1667,34.5 12.8333,34.5 12.5,34.5C 12.1667,33.5 11.5,32.8333 10.5,32.5C 10.5,31.5 10.5,30.5 10.5,29.5C 10.5,28.8333 10.8333,28.5 11.5,28.5 Z"/></g>
<g><path style="opacity:1" fill="#1f8e95" d="M 11.5,28.5 C 12.2223,29.5511 13.2223,30.2178 14.5,30.5C 14.7678,32.099 14.4345,33.4324 13.5,34.5C 12.3702,32.6854 11.7036,30.6854 11.5,28.5 Z"/></g>
<g><path style="opacity:1" fill="#3c9491" d="M 14.5,30.5 C 14.8333,30.5 15.1667,30.5 15.5,30.5C 15.7583,32.8098 15.7583,34.8098 15.5,36.5C 14.609,35.8902 13.609,35.5569 12.5,35.5C 12.5,35.1667 12.5,34.8333 12.5,34.5C 12.8333,34.5 13.1667,34.5 13.5,34.5C 14.4345,33.4324 14.7678,32.099 14.5,30.5 Z"/></g>
<g><path style="opacity:0.388" fill="#bce9ec" d="M 10.5,32.5 C 11.5,32.8333 12.1667,33.5 12.5,34.5C 12.5,34.8333 12.5,35.1667 12.5,35.5C 11.0937,35.0269 10.427,34.0269 10.5,32.5 Z"/></g>
<g><path style="opacity:1" fill="#4a9f7c" d="M 18.5,29.5 C 19.3382,29.8417 19.6716,30.5084 19.5,31.5C 19.5,33.1667 19.5,34.8333 19.5,36.5C 18.1201,36.0377 17.4534,35.0377 17.5,33.5C 17.8457,32.1508 18.179,30.8175 18.5,29.5 Z"/></g>
<g><path style="opacity:1" fill="#72b359" d="M 23.5,30.5 C 23.4363,31.5795 23.9363,32.5795 25,33.5C 26.4064,32.5862 27.9064,31.9195 29.5,31.5C 28.8902,32.391 28.5569,33.391 28.5,34.5C 26.1944,34.9926 23.861,35.3259 21.5,35.5C 21.0773,33.2188 21.744,31.5521 23.5,30.5 Z"/></g>
<g><path style="opacity:1" fill="#5aa26e" d="M 19.5,31.5 C 19.8333,31.5 20.1667,31.5 20.5,31.5C 20.2322,33.099 20.5655,34.4324 21.5,35.5C 21.5,36.8333 20.8333,37.5 19.5,37.5C 19.5,37.1667 19.5,36.8333 19.5,36.5C 19.5,34.8333 19.5,33.1667 19.5,31.5 Z"/></g>
<g><path style="opacity:1" fill="#a1cc99" d="M 28.5,34.5 C 27.657,36.1733 26.3237,37.34 24.5,38C 21.3035,38.8045 18.3035,38.6378 15.5,37.5C 16.8333,37.5 18.1667,37.5 19.5,37.5C 20.8333,37.5 21.5,36.8333 21.5,35.5C 23.861,35.3259 26.1944,34.9926 28.5,34.5 Z"/></g>
<g><path style="opacity:1" fill="#bbe4dd" d="M 12.5,35.5 C 13.609,35.5569 14.609,35.8902 15.5,36.5C 15.5,36.8333 15.5,37.1667 15.5,37.5C 13.9731,37.573 12.9731,36.9063 12.5,35.5 Z"/></g>
</svg>
