<?xml version="1.0" encoding="UTF-8" standalone="no"?>
<!-- Created with Inkscape (http://www.inkscape.org/) -->

<svg
   width="173.38486mm"
   height="79.726662mm"
   viewBox="0 0 173.38486 79.726662"
   version="1.1"
   id="svg5"
   inkscape:version="1.1.2 (b8e25be833, 2022-02-05)"
   sodipodi:docname="MGA logo.svg"
   xmlns:inkscape="http://www.inkscape.org/namespaces/inkscape"
   xmlns:sodipodi="http://sodipodi.sourceforge.net/DTD/sodipodi-0.dtd"
   xmlns="http://www.w3.org/2000/svg"
   xmlns:svg="http://www.w3.org/2000/svg">
  <sodipodi:namedview
     id="namedview7"
     pagecolor="#86898d"
     bordercolor="#666666"
     borderopacity="1.0"
     inkscape:pageshadow="2"
     inkscape:pageopacity="0"
     inkscape:pagecheckerboard="true"
     inkscape:document-units="mm"
     showgrid="false"
     inkscape:zoom="1.2810466"
     inkscape:cx="239.6478"
     inkscape:cy="59.716798"
     inkscape:window-width="1920"
     inkscape:window-height="991"
     inkscape:window-x="-9"
     inkscape:window-y="-9"
     inkscape:window-maximized="1"
     inkscape:current-layer="layer1"
     lock-margins="true"
     fit-margin-top="5"
     fit-margin-left="5"
     fit-margin-right="5"
     fit-margin-bottom="5" />
  <defs
     id="defs2" />
  <g
     inkscape:label="Calque 1"
     inkscape:groupmode="layer"
     id="layer1"
     transform="translate(-20.142924,-108.3634)">
    <path
       style="fill:#000000;stroke-width:0.264583"
       id="path946"
       d="" />
    <path
       style="fill:#000000;stroke-width:0.264583"
       id="path854"
       d="" />
    <path
       style="fill:#ffffff;stroke-width:0.270058"
       d="m 41.285644,182.63232 c -0.926947,-0.52224 -1.289547,-1.19376 -1.289547,-2.38813 0,-1.79568 2.325834,-2.93694 4.83603,-2.37291 l 1.168914,0.26251 -0.157888,-0.99119 c -0.188828,-1.18633 -1.24958,-2.20641 -2.294416,-2.20641 -0.405884,0 -1.189742,0.23029 -1.741872,0.51181 -0.961872,0.49038 -1.507144,0.35916 -1.11874,-0.26921 0.310992,-0.50329 1.932518,-1.05268 3.106981,-1.05268 0.908989,0 1.10869,0.10044 2.002675,0.84832 l 0.574991,1.09133 0.374617,2.89437 c 0.233406,1.80335 0.106215,2.99764 0.270164,2.99764 0.148638,0 0.270164,0.18213 0.270164,0.40509 0,0.60916 -1.105312,0.50262 -1.268718,-0.12217 -0.135561,-0.51867 -0.150233,-0.51819 -0.891796,0.0287 -0.98251,0.72641 -2.877517,0.90484 -3.841496,0.36171 z m 3.202447,-0.84475 c 1.08426,-0.51449 1.515757,-1.19258 1.398409,-2.19745 -0.06858,-0.58623 -0.274629,-0.76539 -1.104514,-0.96047 -1.966455,-0.46221 -3.975716,0.4071 -3.975716,1.72009 0,0.78204 1.190476,1.87813 2.039849,1.87813 0.392775,0 1.131659,-0.19808 1.641972,-0.4403 z m 9.453027,0.86711 c -5.863036,-2.15876 -4.469029,-11.49916 1.716227,-11.49916 1.735619,0 2.933559,0.49972 3.872339,1.61543 l 0.739394,0.87872 -0.860761,0.63506 -0.860792,0.63506 -0.913327,-0.80191 c -3.226338,-2.83273 -6.989527,2.25231 -4.101261,5.54187 1.246997,1.42026 3.020223,1.4489 4.489506,0.0724 0.854828,-0.8008 0.767942,-0.9725 -0.540136,-1.06714 -1.077275,-0.0778 -1.152934,-0.13683 -1.232356,-0.96075 l -0.08453,-0.87767 H 58.343 60.520547 v 2.97062 2.97063 H 59.57536 c -0.769824,0 -0.945191,-0.10175 -0.945191,-0.54818 v -0.5482 l -0.74268,0.54013 c -1.002637,0.72922 -2.662694,0.91556 -3.946276,0.44295 z m 10.19813,-0.53484 c -1.009143,-1.00915 -1.160493,-1.88078 -0.536149,-3.0881 0.558413,-1.07989 1.615146,-1.53062 3.574521,-1.52472 1.590969,0.006 1.700151,-0.0332 1.550747,-0.54011 -0.363685,-1.23398 -1.554352,-1.52529 -3.282731,-0.80312 -0.921907,0.38518 -1.025092,0.38123 -1.341602,-0.0517 -0.55988,-0.76568 -0.403108,-1.09313 0.742808,-1.55164 1.367916,-0.54732 3.560965,-0.55915 4.59435,-0.0255 1.179854,0.61012 1.61151,1.68612 1.61151,4.01693 0,1.11261 0.121526,2.09803 0.270164,2.18982 0.433921,0.26825 0.32576,2.021 -0.13556,2.19806 -0.65994,0.25326 -1.801519,-0.15789 -1.943235,-0.69997 -0.123759,-0.47293 -0.18819,-0.46419 -1.089427,0.14736 -1.447945,0.98258 -2.85873,0.88835 -4.015236,-0.26825 z m 4.212899,-1.51232 c 0.8451,-0.84509 0.697865,-1.53062 -0.371786,-1.73131 -1.697855,-0.31865 -2.928456,0.61088 -2.318339,1.75087 0.381707,0.7132 1.968912,0.70166 2.690125,-0.0191 z m 14.691113,1.51232 c -1.009143,-1.00915 -1.160461,-1.88078 -0.536149,-3.0881 0.558445,-1.07989 1.615178,-1.53062 3.574556,-1.52472 1.590969,0.006 1.700119,-0.0332 1.550747,-0.54011 -0.363685,-1.23398 -1.554352,-1.52529 -3.282734,-0.80312 -0.921907,0.38518 -1.025092,0.38123 -1.341602,-0.0517 -0.55988,-0.76568 -0.403109,-1.09313 0.742808,-1.55164 1.367919,-0.54732 3.560936,-0.55915 4.594353,-0.0255 1.179854,0.61012 1.61151,1.68612 1.61151,4.01693 0,1.11261 0.121526,2.09803 0.270164,2.18982 0.433889,0.26825 0.325728,2.021 -0.13556,2.19806 -0.659909,0.25326 -1.801487,-0.15789 -1.943235,-0.69997 -0.123759,-0.47293 -0.18819,-0.46419 -1.089396,0.14736 -1.447944,0.98258 -2.858765,0.88835 -4.01527,-0.26825 z m 4.212902,-1.51232 c 0.8451,-0.84509 0.697897,-1.53062 -0.371754,-1.73131 -1.697855,-0.31865 -2.928459,0.61088 -2.318342,1.75087 0.381675,0.7132 1.968915,0.70166 2.690096,-0.0191 z m 18.756748,1.76765 c -0.61998,-0.61997 -0.66288,-0.84714 -0.66288,-3.51073 0,-2.66786 -0.0341,-2.84788 -0.5401,-2.84788 -0.43724,0 -0.54014,-0.18022 -0.54014,-0.94523 0,-0.76513 0.10303,-0.94519 0.54014,-0.94519 0.46808,0 0.5401,-0.17989 0.5401,-1.35028 v -1.3503 h 1.08024 1.08021 v 1.3503 1.35028 h 0.94523 c 0.90018,0 0.94519,0.045 0.94519,0.94519 0,0.90022 -0.045,0.94523 -0.94519,0.94523 h -0.94523 v 1.90814 c 0,2.40402 0.3043,3.04759 1.33398,2.82145 0.63133,-0.13875 0.78383,-0.0635 0.92274,0.45526 0.28196,1.05284 0.20254,1.23366 -0.67666,1.54015 -1.36778,0.47683 -2.35154,0.3597 -3.07763,-0.36639 z m 14.32532,0.0498 c -1.21602,-0.68026 -2.2955,-2.48736 -2.2955,-3.84277 0,-1.20678 1.07313,-3.14188 2.13289,-3.84616 1.16662,-0.77527 3.28037,-0.82506 4.61604,-0.10876 1.10107,0.5905 2.16297,2.42044 2.16297,3.7273 v 0.90274 h -3.2154 c -3.09859,0 -3.21019,0.0191 -3.07199,0.54837 0.34015,1.30071 2.41078,1.77989 3.45447,0.79942 0.49647,-0.46642 0.69799,-0.50065 1.43518,-0.24369 1.04659,0.36486 1.05731,0.49471 0.11483,1.39369 -1.48128,1.41311 -3.54224,1.67192 -5.33365,0.66979 z m 4.18588,-4.94075 c 0,-0.0842 -0.12439,-0.38505 -0.27622,-0.66897 -0.71353,-1.33321 -2.68438,-1.31334 -3.38116,0.0341 l -0.40732,0.78769 h 2.03235 c 1.11782,0 2.03235,-0.0689 2.03235,-0.15279 z m 18.83652,5.27796 c -1.01565,-0.62537 -1.28275,-1.71786 -1.28275,-5.2468 v -3.38913 h 1.08021 1.08024 l 0.0255,2.63306 c 0.0367,3.59031 0.16235,3.96334 1.37059,4.06531 0.78638,0.0663 1.07967,-0.0561 1.54217,-0.64405 0.49373,-0.6277 0.57108,-1.08678 0.57108,-3.39016 v -2.66416 h 1.08021 1.08024 v 3.22474 c 0,1.85855 0.11451,3.29549 0.27016,3.39166 0.43389,0.26825 0.32573,2.02103 -0.13556,2.19809 -0.66925,0.25676 -1.70707,-0.13716 -1.8914,-0.71784 -0.17129,-0.53988 -0.17862,-0.53956 -0.9977,0.0437 -0.93061,0.66265 -3.06924,0.94203 -3.79422,0.49567 z m 11.53272,-0.38691 c -0.61998,-0.61997 -0.66288,-0.84714 -0.66288,-3.51073 0,-2.66786 -0.0341,-2.84788 -0.54013,-2.84788 -0.43724,0 -0.54011,-0.18022 -0.54011,-0.94522 0,-0.76514 0.10271,-0.94519 0.54011,-0.94519 0.46811,0 0.54013,-0.1799 0.54013,-1.35028 v -1.35031 h 1.08021 1.08024 v 1.35031 1.35028 h 0.94519 c 0.90022,0 0.94523,0.045 0.94523,0.94519 0,0.90021 -0.045,0.94522 -0.94523,0.94522 h -0.94519 v 1.90815 c 0,2.40401 0.3043,3.04759 1.33398,2.82144 0.63133,-0.13875 0.7838,-0.0635 0.92274,0.45526 0.28196,1.05284 0.20254,1.23366 -0.67666,1.54016 -1.36779,0.47682 -2.35157,0.3597 -3.07763,-0.3664 z m 8.24481,0.16299 c -1.21695,-0.64667 -2.08338,-1.93526 -2.3079,-3.43239 -0.22934,-1.52985 0.67844,-3.4838 2.04205,-4.39509 0.79808,-0.53337 1.2076,-0.61554 2.63114,-0.52785 1.48045,0.0912 1.80076,0.2153 2.62796,1.01692 3.74322,3.62808 -0.43102,9.76281 -4.99325,7.33841 z m 3.49536,-2.37198 c 0.79913,-1.01594 0.75132,-2.63211 -0.10303,-3.48659 -0.87393,-0.87396 -1.63518,-0.8369 -2.59858,0.12663 -1.49158,1.49158 -0.70833,4.07166 1.23602,4.07166 0.65711,0 1.05977,-0.19552 1.46571,-0.71158 z M 25.142924,176.96197 c 0,-7.28521 0.0976,-7.37101 2.840868,-2.49804 1.024294,1.81954 2.062528,3.64555 2.307143,4.05781 l 0.444733,0.74961 2.267209,-4.05345 c 3.170295,-5.66802 3.212399,-5.64515 3.212399,1.74407 0,4.4133 -0.0053,5.47093 -0.203142,5.75575 -0.05656,0.0814 -0.214837,0.0642 -0.327835,0.0642 -0.121917,0 -0.332337,0.0295 -0.362598,-0.0696 -0.09245,-0.30269 -0.187655,-1.17684 -0.190462,-4.60259 l -0.0032,-4.65849 -1.986422,3.51076 c -1.092522,1.93092 -2.169828,3.54722 -2.394029,3.59178 -0.276225,0.0549 -1.049908,-1.06905 -2.398208,-3.48333 l -1.990601,-3.56438 -0.074,4.6311 c -0.07017,4.40765 -0.09952,4.63106 -0.607629,4.63106 -0.515034,0 -0.533726,-0.20318 -0.533726,-5.80623 z m 49.690606,1.48533 v -4.32093 h 1.080209 c 0.982127,0 1.080241,0.0635 1.080241,0.69914 v 0.69917 l 0.830906,-0.69917 c 0.456982,-0.38452 1.125375,-0.69914 1.485295,-0.69914 0.579944,0 0.654422,0.11897 0.654422,1.04646 0,0.96018 -0.07081,1.06065 -0.859963,1.21848 -1.625545,0.32512 -1.840592,0.75952 -1.840592,3.71818 v 2.65871 H 76.048789 74.83353 Z m 18.633979,0 v -4.32093 h 1.080209 c 0.914315,0 1.080241,0.0864 1.080241,0.56214 v 0.56215 l 0.909563,-0.56215 c 0.889946,-0.55002 2.624386,-0.74354 3.534298,-0.3944 0.93511,0.35884 1.22735,1.56966 1.22735,5.08498 v 3.38911 h -1.05632 -1.05635 l -0.09154,-2.99289 c -0.07751,-2.53721 -0.167457,-3.04854 -0.591937,-3.35839 -0.364195,-0.26602 -0.689253,-0.29377 -1.193251,-0.10207 -1.196567,0.45494 -1.394071,0.99262 -1.403289,3.82038 l -0.0096,2.63306 h -1.215259 -1.21526 z m 19.444151,0 v -4.32093 h 1.21526 1.21526 v 4.32093 4.3209 h -1.21526 -1.21526 z m 15.93645,4.26821 c 0.002,-0.0453 0.953,-2.63437 2.11404,-5.75354 l 2.11101,-5.67121 1.05913,-0.0769 1.05912,-0.0769 2.00387,5.47801 c 1.10215,3.01292 2.05698,5.62994 2.12186,5.81561 0.0829,0.23763 -0.24369,0.33756 -1.10452,0.33756 h -1.22243 l -0.4485,-1.35028 -0.4485,-1.35028 h -1.95631 -1.95631 l -0.39702,1.28276 c -0.39364,1.2719 -0.4078,1.28348 -1.66774,1.36511 -0.69892,0.0453 -1.26939,0.0453 -1.2677,0 z m 5.99378,-6.56588 c -0.4011,-1.1152 -0.77665,-1.87472 -0.83458,-1.68787 -0.0577,0.18691 -0.37733,1.09928 -0.70985,2.0276 l -0.60457,1.68787 h 1.43911 1.43914 z m 38.29259,5.94345 c 0,-0.42011 0.15311,-0.67516 0.40509,-0.67516 0.25198,0 0.40509,0.25517 0.40509,0.67516 0,0.42007 -0.15311,0.67512 -0.40509,0.67512 -0.25198,0 -0.40509,-0.25517 -0.40509,-0.67512 z m 5.13111,-3.08689 c 0,-3.69576 -0.01,-3.76354 -0.60763,-3.84832 -0.33418,-0.0475 -0.60763,-0.26857 -0.60763,-0.4914 0,-0.22296 0.27335,-0.4439 0.60763,-0.49137 0.49822,-0.0708 0.60763,-0.25676 0.60763,-1.03348 0,-0.68683 0.2169,-1.16419 0.78941,-1.73661 0.83263,-0.83262 1.43563,-0.95683 2.56359,-0.52798 1.07613,0.40914 0.62788,1.06432 -0.6142,0.89773 -1.15115,-0.15438 -1.56252,0.1834 -1.82576,1.49965 l -0.17033,0.85196 h 1.24904 c 1.06898,0 1.24901,0.0778 1.24901,0.5401 0,0.46011 -0.1799,0.54014 -1.21526,0.54014 h -1.21526 v 3.78079 c 0,3.1807 -0.0644,3.7808 -0.40509,3.7808 -0.34069,0 -0.40509,-0.59803 -0.40509,-3.76201 z m 6.21131,-0.5787 c 0,-3.98812 0.0383,-4.33344 0.47262,-4.25111 0.29089,0.0552 0.50661,0.38623 0.56099,0.8605 l 0.0884,0.77088 0.72178,-0.68641 c 0.39699,-0.37753 1.05597,-0.769 1.46444,-0.86998 0.6334,-0.15661 0.74265,-0.0998 0.74265,0.38585 0,0.39839 -0.17033,0.56939 -0.56712,0.56939 -0.31195,0 -0.98031,0.41318 -1.4853,0.91817 l -0.91821,0.91821 v 2.86262 c 0,2.68256 -0.0338,2.86259 -0.5401,2.86259 -0.51771,0 -0.54014,-0.1799 -0.54014,-4.34071 z m -71.56524,-6.31102 v -1.2308 h 1.23079 1.23076 l -0.0829,1.14774 c -0.0826,1.14218 -0.0887,1.14815 -1.23079,1.23079 l -1.14774,0.0829 z m -8.25267,-8.13742 C 93.676846,157.37132 86.430009,144.6524 85.722256,130.74314 l -0.166819,-3.27964 10.569885,-7.05006 c 5.813468,-3.87751 10.660218,-7.05004 10.770608,-7.05004 0.11036,0 4.92107,3.12931 10.69049,6.954 l 10.48979,6.95396 -0.13907,3.51076 c -0.39899,10.08292 -4.34858,19.62656 -11.083,26.78048 -3.29862,3.5041 -8.56158,7.3818 -10.01884,7.3818 -0.3145,0 -1.29392,-0.4344 -2.17637,-0.96535 z m 5.61654,-21.3027 5.78107,-5.79459 -1.57509,-1.55862 -1.57508,-1.55863 -4.18129,4.17475 -4.18129,4.17475 -1.89179,-1.8773 -1.89178,-1.87728 -1.623316,1.60638 -1.623312,1.60637 3.441708,3.44936 c 1.89293,1.89715 3.46361,3.44936 3.49041,3.44936 0.0255,0 2.65019,-2.60754 5.82976,-5.79455 z"
       id="path1206"
       sodipodi:nodetypes="cscccsccsccssscccccccssccsscccssscccccccsscscccscsscscscsccccccscccsccscscscscsccccsccsssssscccccssscscssscsssscscsccccscscssscscccccsscccscccsccsssssscccccssscscsssscsscscccscccsccsssssccsssccsccccsscsssssccccccsscssscccccccccccccccccccccscccscscccccssccscscccssssssccssscssccssscssccscscssssscssssccccccccccccssccssccscccccccccsss" />
  </g>
</svg>
