<?xml version="1.0" encoding="UTF-8"?>
<!DOCTYPE svg PUBLIC "-//W3C//DTD SVG 1.1//EN" "http://www.w3.org/Graphics/SVG/1.1/DTD/svg11.dtd">
<svg xmlns="http://www.w3.org/2000/svg" version="1.1" width="224px" height="248px" style="shape-rendering:geometricPrecision; text-rendering:geometricPrecision; image-rendering:optimizeQuality; fill-rule:evenodd; clip-rule:evenodd" xmlns:xlink="http://www.w3.org/1999/xlink">
<g><path style="opacity:1" fill="#223b55" d="M 158.5,48.5 C 158.539,49.5832 158.873,50.5832 159.5,51.5C 161.585,52.5414 163.252,54.0414 164.5,56C 169.152,59.3295 174.152,62.1629 179.5,64.5C 180.771,66.8287 182.771,67.9953 185.5,68C 186.337,69.0113 186.67,70.1779 186.5,71.5C 178.763,72.8727 178.596,75.2061 186,78.5C 186.5,78 187,77.5 187.5,77C 187.384,75.7318 187.051,74.3985 186.5,73C 187.333,72.8333 188.167,72.6667 189,72.5C 191.937,74.4091 194.937,76.4091 198,78.5C 198.167,81.3333 198.333,84.1667 198.5,87C 197.143,100.98 195.476,114.814 193.5,128.5C 182.877,170.602 159.877,204.102 124.5,229C 119.195,233.331 113.195,235.331 106.5,235C 74.9294,217.599 51.9294,192.432 37.5,159.5C 38.6772,157.897 38.5106,156.564 37,155.5C 36.502,152.518 36.3354,149.518 36.5,146.5C 35.1779,146.67 34.0113,146.337 33,145.5C 30.156,138.108 28.4894,130.442 28,122.5C 27.2504,118.581 25.917,114.915 24,111.5C 23.6667,106.167 23.3333,100.833 23,95.5C 22.8171,98.3647 22.3171,101.031 21.5,103.5C 21.5,102.167 21.5,100.833 21.5,99.5C 21.3337,92.4921 21.5004,85.4921 22,78.5C 24.3169,76.684 26.4835,74.684 28.5,72.5C 30.8948,73.5225 31.8948,72.5225 31.5,69.5C 52.5943,54.7755 73.9277,40.2755 95.5,26C 100.395,22.9285 105.395,20.0951 110.5,17.5C 126.494,27.8237 142.494,38.1571 158.5,48.5 Z M 138.5,127.5 C 135.833,129.5 133.5,131.833 131.5,134.5C 130.5,134.833 129.833,135.5 129.5,136.5C 123.833,141.5 118.5,146.833 113.5,152.5C 109.731,156.771 105.731,160.938 101.5,165C 100.5,165.667 99.5,165.667 98.5,165C 89.3333,155.833 80.1667,146.667 71,137.5C 70.3333,136.833 70.3333,136.167 71,135.5C 75.0539,130.943 79.5539,126.943 84.5,123.5C 89.8333,128.5 95.1667,133.5 100.5,138.5C 111.822,126.345 123.655,114.679 136,103.5C 140.547,107.711 144.714,112.211 148.5,117C 145.313,120.686 141.979,124.186 138.5,127.5 Z"/></g>
<g><path style="opacity:1" fill="#2b3e52" d="M 158.5,48.5 C 171.347,57.1706 184.347,65.6706 197.5,74C 198.743,75.1545 199.743,76.4878 200.5,78C 200.001,95.1706 197.667,112.004 193.5,128.5C 195.476,114.814 197.143,100.98 198.5,87C 198.333,84.1667 198.167,81.3333 198,78.5C 194.937,76.4091 191.937,74.4091 189,72.5C 188.167,72.6667 187.333,72.8333 186.5,73C 187.051,74.3985 187.384,75.7318 187.5,77C 187,77.5 186.5,78 186,78.5C 178.596,75.2061 178.763,72.8727 186.5,71.5C 186.67,70.1779 186.337,69.0113 185.5,68C 182.771,67.9953 180.771,66.8287 179.5,64.5C 174.152,62.1629 169.152,59.3295 164.5,56C 163.252,54.0414 161.585,52.5414 159.5,51.5C 158.873,50.5832 158.539,49.5832 158.5,48.5 Z"/></g>
<g><path style="opacity:1" fill="#435261" d="M 31.5,69.5 C 31.8948,72.5225 30.8948,73.5225 28.5,72.5C 26.4835,74.684 24.3169,76.684 22,78.5C 21.5004,85.4921 21.3337,92.4921 21.5,99.5C 20.44,91.9943 19.94,84.3277 20,76.5C 23.7364,73.9141 27.5697,71.5808 31.5,69.5 Z"/></g>
<g><path style="opacity:1" fill="#364659" d="M 37.5,159.5 C 29.1641,141.81 23.8308,123.144 21.5,103.5C 22.3171,101.031 22.8171,98.3647 23,95.5C 23.3333,100.833 23.6667,106.167 24,111.5C 25.917,114.915 27.2504,118.581 28,122.5C 28.4894,130.442 30.156,138.108 33,145.5C 34.0113,146.337 35.1779,146.67 36.5,146.5C 36.3354,149.518 36.502,152.518 37,155.5C 38.5106,156.564 38.6772,157.897 37.5,159.5 Z"/></g>
<g><path style="opacity:0.561" fill="#6d7680" d="M 138.5,127.5 C 137.307,130.938 134.974,133.271 131.5,134.5C 133.5,131.833 135.833,129.5 138.5,127.5 Z"/></g>
<g><path style="opacity:1" fill="#4b586a" d="M 129.5,136.5 C 128.781,138.764 128.448,141.097 128.5,143.5C 125.509,143.33 123.509,144.663 122.5,147.5C 119.196,148.846 116.196,150.513 113.5,152.5C 118.5,146.833 123.833,141.5 129.5,136.5 Z"/></g>
</svg>
