<?xml version="1.0" encoding="UTF-8"?>
<!DOCTYPE svg PUBLIC "-//W3C//DTD SVG 1.1//EN" "http://www.w3.org/Graphics/SVG/1.1/DTD/svg11.dtd">
<svg xmlns="http://www.w3.org/2000/svg" version="1.1" width="737px" height="339px" style="shape-rendering:geometricPrecision; text-rendering:geometricPrecision; image-rendering:optimizeQuality; fill-rule:evenodd; clip-rule:evenodd" xmlns:xlink="http://www.w3.org/1999/xlink">
<g><path style="opacity:1" fill="#fefefe" d="M -0.5,-0.5 C 245.167,-0.5 490.833,-0.5 736.5,-0.5C 736.5,112.5 736.5,225.5 736.5,338.5C 490.833,338.5 245.167,338.5 -0.5,338.5C -0.5,225.5 -0.5,112.5 -0.5,-0.5 Z"/></g>
<g><path style="opacity:1" fill="#213b55" d="M 369.5,21.5 C 371.336,23.588 373.669,24.9213 376.5,25.5C 389.645,35.2426 403.311,44.2426 417.5,52.5C 421.976,56.5746 426.976,59.9079 432.5,62.5C 440.536,68.5248 448.87,74.1915 457.5,79.5C 458.284,145.435 431.951,197.269 378.5,235C 375.029,237.072 371.362,238.572 367.5,239.5C 364.07,238.286 360.736,236.786 357.5,235C 353.266,231.918 348.933,229.084 344.5,226.5C 299.821,188.372 277.988,139.705 279,80.5C 304.414,63.2095 329.914,46.0428 355.5,29C 360.102,26.1963 364.768,23.6963 369.5,21.5 Z"/></g>
<g><path style="opacity:1" fill="#babcbe" d="M 376.5,25.5 C 377.873,25.3433 379.207,25.51 380.5,26C 392.712,35.0522 405.046,43.8855 417.5,52.5C 403.311,44.2426 389.645,35.2426 376.5,25.5 Z"/></g>
<g><path style="opacity:1" fill="#babcbe" d="M 432.5,62.5 C 441.712,67.3875 450.379,73.0542 458.5,79.5C 458.167,79.5 457.833,79.5 457.5,79.5C 448.87,74.1915 440.536,68.5248 432.5,62.5 Z"/></g>
<g><path style="opacity:1" fill="#86888b" d="M 394.5,108.5 C 385.091,119.413 375.091,129.913 364.5,140C 363.207,140.49 361.873,140.657 360.5,140.5C 370.965,129.535 381.631,118.702 392.5,108C 393.437,107.308 394.103,107.475 394.5,108.5 Z"/></g>
<g><path style="opacity:1" fill="#b6b6b6" d="M 458.5,79.5 C 460.017,79.5106 461.184,80.1772 462,81.5C 462.667,89.1667 462.667,96.8333 462,104.5C 460.503,110.552 459.337,116.552 458.5,122.5C 459.166,112.837 459.833,103.171 460.5,93.5C 460.698,88.6064 460.031,83.9397 458.5,79.5 Z"/></g>
<g><path style="opacity:1" fill="#fcfcfc" d="M 405.5,122.5 C 391.167,137.5 376.5,152.167 361.5,166.5C 360.761,166.631 360.094,166.464 359.5,166C 352.357,159.189 345.524,152.022 339,144.5C 338.516,139.127 341.016,135.793 346.5,134.5C 350.678,138.179 354.678,142.012 358.5,146C 360.902,146.814 363.235,146.647 365.5,145.5C 375.319,135.181 385.319,125.014 395.5,115C 396.944,114.219 398.277,114.386 399.5,115.5C 402.213,117.214 404.213,119.547 405.5,122.5 Z"/></g>
<g><path style="opacity:1" fill="#c7c7c7" d="M 396.5,110.5 C 397.5,110.833 398.167,111.5 398.5,112.5C 397.448,112.351 396.448,112.517 395.5,113C 385.167,123.333 374.833,133.667 364.5,144C 362.326,144.877 360.659,144.377 359.5,142.5C 361.199,142.66 362.866,142.494 364.5,142C 375.062,131.271 385.728,120.771 396.5,110.5 Z"/></g>
<g><path style="opacity:1" fill="#a5a5a5" d="M 394.5,108.5 C 395.5,108.833 396.167,109.5 396.5,110.5C 385.728,120.771 375.062,131.271 364.5,142C 362.866,142.494 361.199,142.66 359.5,142.5C 359.167,142.5 358.833,142.5 358.5,142.5C 358.833,141.5 359.5,140.833 360.5,140.5C 361.873,140.657 363.207,140.49 364.5,140C 375.091,129.913 385.091,119.413 394.5,108.5 Z"/></g>
<g><path style="opacity:1" fill="#8b8c8d" d="M 343.5,128.5 C 340.615,131.891 337.448,135.224 334,138.5C 333.243,140.315 332.41,141.981 331.5,143.5C 329.554,142.746 328.721,141.412 329,139.5C 333.333,135.167 337.667,130.833 342,126.5C 342.717,127.044 343.217,127.711 343.5,128.5 Z"/></g>
<g><path style="opacity:1" fill="#e6e6e6" d="M 369.5,21.5 C 375.256,22.0853 380.589,23.9187 385.5,27C 410.948,43.6068 436.282,60.4401 461.5,77.5C 462.083,79.0016 462.916,80.3349 464,81.5C 466.548,121.173 456.881,157.506 435,190.5C 432.724,191.762 430.891,193.429 429.5,195.5C 431.586,189.66 434.919,184.66 439.5,180.5C 442.251,175.209 444.585,169.876 446.5,164.5C 446.5,163.167 446.5,161.833 446.5,160.5C 452.65,148.708 456.65,136.041 458.5,122.5C 459.337,116.552 460.503,110.552 462,104.5C 462.667,96.8333 462.667,89.1667 462,81.5C 461.184,80.1772 460.017,79.5106 458.5,79.5C 450.379,73.0542 441.712,67.3875 432.5,62.5C 426.976,59.9079 421.976,56.5746 417.5,52.5C 405.046,43.8855 392.712,35.0522 380.5,26C 379.207,25.51 377.873,25.3433 376.5,25.5C 373.669,24.9213 371.336,23.588 369.5,21.5 Z"/></g>
<g><path style="opacity:1" fill="#babbbb" d="M 343.5,128.5 C 345.167,129.5 346.5,130.833 347.5,132.5C 342.424,134.053 338.257,137.053 335,141.5C 334.333,142.5 334.333,143.5 335,144.5C 343.391,152.396 351.891,160.063 360.5,167.5C 359.878,168.627 359.045,169.627 358,170.5C 348.964,161.632 340.131,152.632 331.5,143.5C 332.41,141.981 333.243,140.315 334,138.5C 337.448,135.224 340.615,131.891 343.5,128.5 Z"/></g>
<g><path style="opacity:1" fill="#ebebeb" d="M 398.5,112.5 C 401.631,115.129 404.631,117.962 407.5,121C 406.956,121.717 406.289,122.217 405.5,122.5C 404.213,119.547 402.213,117.214 399.5,115.5C 398.277,114.386 396.944,114.219 395.5,115C 385.319,125.014 375.319,135.181 365.5,145.5C 363.235,146.647 360.902,146.814 358.5,146C 354.678,142.012 350.678,138.179 346.5,134.5C 341.016,135.793 338.516,139.127 339,144.5C 345.524,152.022 352.357,159.189 359.5,166C 360.094,166.464 360.761,166.631 361.5,166.5C 361.5,167.167 361.167,167.5 360.5,167.5C 351.891,160.063 343.391,152.396 335,144.5C 334.333,143.5 334.333,142.5 335,141.5C 338.257,137.053 342.424,134.053 347.5,132.5C 351.167,135.833 354.833,139.167 358.5,142.5C 358.833,142.5 359.167,142.5 359.5,142.5C 360.659,144.377 362.326,144.877 364.5,144C 374.833,133.667 385.167,123.333 395.5,113C 396.448,112.517 397.448,112.351 398.5,112.5 Z"/></g>
<g><path style="opacity:1" fill="#a7a7a7" d="M 446.5,160.5 C 446.5,161.833 446.5,163.167 446.5,164.5C 443.202,169.08 440.368,174.08 438,179.5C 433.335,186.325 428.502,192.991 423.5,199.5C 430.808,186.214 438.475,173.214 446.5,160.5 Z"/></g>
<g><path style="opacity:1" fill="#cacaca" d="M 446.5,164.5 C 444.585,169.876 442.251,175.209 439.5,180.5C 434.919,184.66 431.586,189.66 429.5,195.5C 420.097,206.407 410.097,216.907 399.5,227C 392.351,231.325 385.351,235.825 378.5,240.5C 379.29,239.206 380.29,238.039 381.5,237C 397.852,227.148 411.852,214.648 423.5,199.5C 428.502,192.991 433.335,186.325 438,179.5C 440.368,174.08 443.202,169.08 446.5,164.5 Z"/></g>
<g><path style="opacity:1" fill="#8e8f91" d="M 457.5,79.5 C 457.833,79.5 458.167,79.5 458.5,79.5C 460.031,83.9397 460.698,88.6064 460.5,93.5C 459.833,103.171 459.166,112.837 458.5,122.5C 456.65,136.041 452.65,148.708 446.5,160.5C 438.475,173.214 430.808,186.214 423.5,199.5C 411.852,214.648 397.852,227.148 381.5,237C 380.29,238.039 379.29,239.206 378.5,240.5C 374.629,240.815 370.962,240.482 367.5,239.5C 371.362,238.572 375.029,237.072 378.5,235C 431.951,197.269 458.284,145.435 457.5,79.5 Z"/></g>
<g><path style="opacity:1" fill="#e7e7e8" d="M 429.5,195.5 C 429.108,197.179 428.608,198.846 428,200.5C 419.219,208.95 410.719,217.784 402.5,227C 394.686,233.489 386.353,239.155 377.5,244C 373.074,244.791 368.741,244.457 364.5,243C 358.663,239.582 352.996,235.916 347.5,232C 345.393,230.736 344.393,228.903 344.5,226.5C 348.933,229.084 353.266,231.918 357.5,235C 360.736,236.786 364.07,238.286 367.5,239.5C 370.962,240.482 374.629,240.815 378.5,240.5C 385.351,235.825 392.351,231.325 399.5,227C 410.097,216.907 420.097,206.407 429.5,195.5 Z"/></g>
<g><path style="opacity:1" fill="#b3b4b6" d="M 687.5,266.5 C 689.703,267.052 690.536,268.385 690,270.5C 687.48,271.207 684.98,272.04 682.5,273C 680.771,274.789 680.104,276.956 680.5,279.5C 678.5,279.5 676.5,279.5 674.5,279.5C 674.865,276.375 675.698,273.375 677,270.5C 680.688,269.29 684.188,267.957 687.5,266.5 Z"/></g>
<g><path style="opacity:1" fill="#263a51" d="M 403.5,265.5 C 403.664,268.187 403.497,270.854 403,273.5C 400.393,274.123 397.893,274.79 395.5,275.5C 395.167,275.5 394.833,275.5 394.5,275.5C 394.5,272.167 394.5,268.833 394.5,265.5C 397.5,265.5 400.5,265.5 403.5,265.5 Z"/></g>
<g><path style="opacity:1" fill="#243b55" d="M 153.5,266.5 C 156.341,267.669 159.341,268.669 162.5,269.5C 165.306,271.475 167.639,273.975 169.5,277C 167.266,278.75 164.932,280.25 162.5,281.5C 161.833,281.167 161.167,280.833 160.5,280.5C 159.564,279.026 158.23,278.026 156.5,277.5C 144.35,273.611 137.683,278.278 136.5,291.5C 136.489,295.485 137.822,298.818 140.5,301.5C 143.865,307.152 148.532,308.819 154.5,306.5C 155.492,306.672 156.158,306.338 156.5,305.5C 159.225,304.287 161.559,302.454 163.5,300C 161.038,298.784 158.371,298.118 155.5,298C 153.845,296.556 153.178,294.722 153.5,292.5C 158.975,291.511 164.642,291.178 170.5,291.5C 170.5,299.5 170.5,307.5 170.5,315.5C 169.833,315.5 169.167,315.5 168.5,315.5C 167.167,315.5 165.833,315.5 164.5,315.5C 164.029,314.099 163.362,312.766 162.5,311.5C 157.436,315.091 151.769,316.424 145.5,315.5C 141.713,314.706 138.38,313.039 135.5,310.5C 126.178,300.101 125.012,288.768 132,276.5C 137.335,269.249 144.502,265.916 153.5,266.5 Z"/></g>
<g><path style="opacity:1" fill="#ebebeb" d="M 64.5,267.5 C 66.6282,266.371 68.9615,266.204 71.5,267C 72.6667,267.5 73.5,268.333 74,269.5C 74.6667,285.5 74.6667,301.5 74,317.5C 72.2805,320.617 69.7805,321.283 66.5,319.5C 65.6143,318.675 65.281,317.675 65.5,316.5C 67.1417,318.081 69.1417,318.747 71.5,318.5C 72.6213,302.532 72.7879,286.532 72,270.5C 70.5557,268.845 68.7224,268.178 66.5,268.5C 66.1583,267.662 65.4916,267.328 64.5,267.5 Z"/></g>
<g><path style="opacity:1" fill="#6e7b89" d="M 370.5,268.5 C 367.833,268.5 365.167,268.5 362.5,268.5C 362.813,272.042 362.479,275.375 361.5,278.5C 361.5,274.833 361.5,271.167 361.5,267.5C 364.713,267.19 367.713,267.523 370.5,268.5 Z"/></g>
<g><path style="opacity:1" fill="#9d9e9f" d="M 488.5,267.5 C 493.701,268.701 496.034,272.034 495.5,277.5C 497.654,283.246 499.654,289.079 501.5,295C 502.371,296.364 503.371,297.53 504.5,298.5C 504.821,304.12 506.154,309.454 508.5,314.5C 508.288,316.888 506.955,317.888 504.5,317.5C 502.645,317.66 501.312,316.993 500.5,315.5C 502.167,315.5 503.833,315.5 505.5,315.5C 500.23,299.356 494.563,283.356 488.5,267.5 Z"/></g>
<g><path style="opacity:1" fill="#a2a3a4" d="M 578.5,269.5 C 580.39,269.297 581.89,269.963 583,271.5C 583.272,274.254 583.772,276.921 584.5,279.5C 582.5,279.5 580.5,279.5 578.5,279.5C 578.5,276.167 578.5,272.833 578.5,269.5 Z"/></g>
<g><path style="opacity:1" fill="#dfdfe0" d="M 23.5,266.5 C 27.287,265.814 30.4537,266.814 33,269.5C 37.6907,278.233 42.8574,286.566 48.5,294.5C 47.8333,295.833 47.1667,297.167 46.5,298.5C 43.8561,293.919 40.6894,289.586 37,285.5C 35.3333,281.833 33.6667,278.167 32,274.5C 30.549,272.536 28.7157,271.203 26.5,270.5C 25.5,269.167 24.5,267.833 23.5,266.5 Z"/></g>
<g><path style="opacity:1" fill="#abacac" d="M 162.5,269.5 C 167.091,271.091 170.425,274.091 172.5,278.5C 170.436,283.849 167.102,284.849 162.5,281.5C 164.932,280.25 167.266,278.75 169.5,277C 167.639,273.975 165.306,271.475 162.5,269.5 Z"/></g>
<g><path style="opacity:1" fill="#9da0a3" d="M 370.5,268.5 C 370.833,268.5 371.167,268.5 371.5,268.5C 372.688,269.364 373.855,270.364 375,271.5C 375.272,274.254 375.772,276.921 376.5,279.5C 374.5,279.5 372.5,279.5 370.5,279.5C 370.5,275.833 370.5,272.167 370.5,268.5 Z"/></g>
<g><path style="opacity:1" fill="#a5a6a7" d="M 403.5,265.5 C 404.167,265.5 404.5,265.833 404.5,266.5C 407.387,268.718 408.221,271.718 407,275.5C 403.213,278.105 399.38,278.105 395.5,275.5C 397.893,274.79 400.393,274.123 403,273.5C 403.497,270.854 403.664,268.187 403.5,265.5 Z"/></g>
<g><path style="opacity:1" fill="#d7d8d9" d="M 232.5,279.5 C 237.689,278.298 243.023,278.298 248.5,279.5C 246.487,281.497 244.154,283.164 241.5,284.5C 240.548,282.955 240.215,281.288 240.5,279.5C 237.833,279.5 235.167,279.5 232.5,279.5 Z"/></g>
<g><path style="opacity:1" fill="#e9eaea" d="M 611.5,279.5 C 632.801,275.626 642.634,284.626 641,306.5C 640,308.5 639,310.5 638,312.5C 635.022,314.311 632.522,316.644 630.5,319.5C 628.044,320.948 625.378,321.614 622.5,321.5C 617.781,320.987 613.114,320.154 608.5,319C 604.988,316.096 602.321,312.596 600.5,308.5C 603.429,311.636 606.762,314.303 610.5,316.5C 611.842,317.793 613.509,318.626 615.5,319C 619.833,319.667 624.167,319.667 628.5,319C 631.667,315.833 634.833,312.667 638,309.5C 639.456,303.903 639.789,298.237 639,292.5C 638.292,291.619 637.458,290.953 636.5,290.5C 634.431,287.427 631.764,285.094 628.5,283.5C 623.426,280.015 617.76,278.682 611.5,279.5 Z"/></g>
<g><path style="opacity:1" fill="#aaaaab" d="M 66.5,269.5 C 68.1703,269.751 69.6703,270.418 71,271.5C 71.6667,285.5 71.6667,299.5 71,313.5C 69.951,315.107 68.451,315.773 66.5,315.5C 67.8333,300.167 67.8333,284.833 66.5,269.5 Z"/></g>
<g><path style="opacity:1" fill="#243b53" d="M 232.5,279.5 C 235.167,279.5 237.833,279.5 240.5,279.5C 240.215,281.288 240.548,282.955 241.5,284.5C 244.154,283.164 246.487,281.497 248.5,279.5C 248.833,279.5 249.167,279.5 249.5,279.5C 250.5,279.5 251.5,279.5 252.5,279.5C 253.234,280.708 253.567,282.041 253.5,283.5C 253.703,285.39 253.037,286.89 251.5,288C 248.027,288.319 245.194,289.819 243,292.5C 241.689,300.105 241.189,307.772 241.5,315.5C 240.167,315.5 238.833,315.5 237.5,315.5C 237.167,315.5 236.833,315.5 236.5,315.5C 235.167,315.5 233.833,315.5 232.5,315.5C 232.5,303.5 232.5,291.5 232.5,279.5 Z"/></g>
<g><path style="opacity:1" fill="#223a55" d="M 394.5,279.5 C 397.5,279.5 400.5,279.5 403.5,279.5C 403.5,291.5 403.5,303.5 403.5,315.5C 401.833,315.5 400.167,315.5 398.5,315.5C 397.167,315.5 395.833,315.5 394.5,315.5C 394.5,303.5 394.5,291.5 394.5,279.5 Z"/></g>
<g><path style="opacity:1" fill="#233b55" d="M 526.5,279.5 C 526.5,280.167 526.5,280.833 526.5,281.5C 526.225,289.553 526.725,297.553 528,305.5C 528.708,306.381 529.542,307.047 530.5,307.5C 532.334,308.494 534.001,308.494 535.5,307.5C 538.822,306.342 540.988,304.008 542,300.5C 542.5,293.508 542.666,286.508 542.5,279.5C 545.167,279.5 547.833,279.5 550.5,279.5C 550.059,290.254 550.725,300.921 552.5,311.5C 552.408,313.258 552.075,314.924 551.5,316.5C 550.5,316.5 549.5,316.5 548.5,316.5C 547.391,316.443 546.391,316.11 545.5,315.5C 544.524,314.185 543.524,312.852 542.5,311.5C 537.674,314.708 532.341,316.375 526.5,316.5C 525.391,316.443 524.391,316.11 523.5,315.5C 521.292,314.106 519.792,312.106 519,309.5C 518.5,299.506 518.334,289.506 518.5,279.5C 521.167,279.5 523.833,279.5 526.5,279.5 Z"/></g>
<g><path style="opacity:1" fill="#cfcfcf" d="M 404.5,266.5 C 407.95,266.573 409.283,268.406 408.5,272C 408.919,274.981 407.919,277.314 405.5,279C 406.667,280.167 407.833,281.333 409,282.5C 409.667,293.5 409.667,304.5 409,315.5C 408.626,316.416 408.126,317.25 407.5,318C 404.633,318.801 401.966,318.634 399.5,317.5C 402.119,317.768 404.619,317.435 407,316.5C 407.667,305.167 407.667,293.833 407,282.5C 405.641,281.635 404.474,280.635 403.5,279.5C 400.5,279.5 397.5,279.5 394.5,279.5C 395.091,278.849 395.757,278.182 396.5,277.5C 395.757,276.818 395.091,276.151 394.5,275.5C 394.833,275.5 395.167,275.5 395.5,275.5C 399.38,278.105 403.213,278.105 407,275.5C 408.221,271.718 407.387,268.718 404.5,266.5 Z"/></g>
<g><path style="opacity:1" fill="#b8b9ba" d="M 105.5,285.5 C 102.133,285.457 98.7992,285.79 95.5,286.5C 93.9704,286.36 92.9704,285.693 92.5,284.5C 94.1175,283.028 96.1175,282.361 98.5,282.5C 101.501,282.172 103.834,283.172 105.5,285.5 Z"/></g>
<g><path style="opacity:1" fill="#eaeaea" d="M 153.5,266.5 C 160.304,266.419 166.638,268.252 172.5,272C 176.963,277.385 176.296,282.052 170.5,286C 165.318,287.529 161.318,286.029 158.5,281.5C 154.461,279.717 150.961,280.384 148,283.5C 142.841,291.386 143.675,298.552 150.5,305C 152.473,305.495 154.473,305.662 156.5,305.5C 156.158,306.338 155.492,306.672 154.5,306.5C 152.396,306.799 150.396,306.466 148.5,305.5C 140.171,296.633 140.504,288.133 149.5,280C 153.221,279.322 156.888,279.489 160.5,280.5C 161.167,280.833 161.833,281.167 162.5,281.5C 167.102,284.849 170.436,283.849 172.5,278.5C 170.425,274.091 167.091,271.091 162.5,269.5C 159.341,268.669 156.341,267.669 153.5,266.5 Z"/></g>
<g><path style="opacity:1" fill="#8e8f91" d="M 550.5,279.5 C 551.167,279.5 551.5,279.833 551.5,280.5C 551.5,280.833 551.5,281.167 551.5,281.5C 553.094,293.421 554.427,305.421 555.5,317.5C 553.901,317.768 552.568,317.434 551.5,316.5C 552.075,314.924 552.408,313.258 552.5,311.5C 550.725,300.921 550.059,290.254 550.5,279.5 Z"/></g>
<g><path style="opacity:1" fill="#d4d4d4" d="M 495.5,277.5 C 497.385,280.498 499.552,283.498 502,286.5C 502.557,290.594 503.39,294.594 504.5,298.5C 503.371,297.53 502.371,296.364 501.5,295C 499.654,289.079 497.654,283.246 495.5,277.5 Z"/></g>
<g><path style="opacity:1" fill="#8d8f91" d="M 156.5,277.5 C 149.775,277.707 144.609,280.707 141,286.5C 140.501,291.489 140.334,296.489 140.5,301.5C 137.822,298.818 136.489,295.485 136.5,291.5C 137.683,278.278 144.35,273.611 156.5,277.5 Z"/></g>
<g><path style="opacity:1" fill="#a3a4a6" d="M 204.5,288.5 C 199.749,289.195 195.083,289.195 190.5,288.5C 192.779,286.737 195.445,285.737 198.5,285.5C 201.102,285.467 203.102,286.467 204.5,288.5 Z"/></g>
<g><path style="opacity:1" fill="#989b9d" d="M 285.5,288.5 C 280.401,288.966 275.401,288.966 270.5,288.5C 275.635,284.793 280.635,284.793 285.5,288.5 Z"/></g>
<g><path style="opacity:1" fill="#263d56" d="M 370.5,268.5 C 370.5,272.167 370.5,275.833 370.5,279.5C 372.5,279.5 374.5,279.5 376.5,279.5C 376.833,279.5 377.167,279.5 377.5,279.5C 378.11,280.391 378.443,281.391 378.5,282.5C 378.5,283.833 378.5,285.167 378.5,286.5C 375.833,286.5 373.167,286.5 370.5,286.5C 370.334,292.176 370.501,297.843 371,303.5C 371.112,306.447 372.612,307.78 375.5,307.5C 376.833,307.5 378.167,307.5 379.5,307.5C 380.714,309.808 380.714,312.141 379.5,314.5C 376.292,315.802 372.959,316.469 369.5,316.5C 368.391,316.443 367.391,316.11 366.5,315.5C 363.438,313.377 361.938,310.377 362,306.5C 361.667,300.167 361.333,293.833 361,287.5C 359.989,286.663 358.822,286.33 357.5,286.5C 357.5,284.167 357.5,281.833 357.5,279.5C 359.099,279.768 360.432,279.434 361.5,278.5C 362.479,275.375 362.813,272.042 362.5,268.5C 365.167,268.5 367.833,268.5 370.5,268.5 Z"/></g>
<g><path style="opacity:1" fill="#8d9093" d="M 403.5,279.5 C 404.474,280.635 405.641,281.635 407,282.5C 407.667,293.833 407.667,305.167 407,316.5C 404.619,317.435 402.119,317.768 399.5,317.5C 399.167,316.833 398.833,316.167 398.5,315.5C 400.167,315.5 401.833,315.5 403.5,315.5C 403.5,303.5 403.5,291.5 403.5,279.5 Z"/></g>
<g><path style="opacity:1" fill="#929394" d="M 526.5,281.5 C 527.15,281.804 527.817,282.137 528.5,282.5C 529.425,290.817 530.092,299.151 530.5,307.5C 529.542,307.047 528.708,306.381 528,305.5C 526.725,297.553 526.225,289.553 526.5,281.5 Z"/></g>
<g><path style="opacity:1" fill="#263c55" d="M 578.5,267.5 C 578.5,268.167 578.5,268.833 578.5,269.5C 578.5,272.833 578.5,276.167 578.5,279.5C 580.5,279.5 582.5,279.5 584.5,279.5C 585.906,279.973 586.573,280.973 586.5,282.5C 586.5,283.833 586.5,285.167 586.5,286.5C 583.833,286.5 581.167,286.5 578.5,286.5C 578.334,292.509 578.501,298.509 579,304.5C 579.422,306.426 580.589,307.426 582.5,307.5C 585.32,307.087 587.32,308.087 588.5,310.5C 588.703,312.39 588.037,313.89 586.5,315C 583.568,315.953 580.568,316.453 577.5,316.5C 575.216,316.025 573.216,315.025 571.5,313.5C 570.852,311.914 570.352,310.247 570,308.5C 569.667,301.5 569.333,294.5 569,287.5C 567.989,286.663 566.822,286.33 565.5,286.5C 565.5,284.167 565.5,281.833 565.5,279.5C 566.822,279.67 567.989,279.337 569,278.5C 569.499,274.848 569.665,271.182 569.5,267.5C 572.5,267.5 575.5,267.5 578.5,267.5 Z"/></g>
<g><path style="opacity:1" fill="#959698" d="M 213.5,285.5 C 216.367,285.369 218.033,286.703 218.5,289.5C 219.387,298.81 220.054,308.144 220.5,317.5C 218.901,317.768 217.568,317.434 216.5,316.5C 217.075,314.924 217.408,313.258 217.5,311.5C 216.211,302.808 214.878,294.141 213.5,285.5 Z"/></g>
<g><path style="opacity:1" fill="#253c55" d="M 447.5,283.5 C 451.47,288.446 453.47,294.113 453.5,300.5C 444.827,300.334 436.16,300.5 427.5,301C 426.285,304.733 427.618,307.233 431.5,308.5C 433.402,309.511 435.402,309.678 437.5,309C 440.018,307.801 442.518,306.635 445,305.5C 447.399,305.613 449.232,306.613 450.5,308.5C 445.775,314.64 439.442,317.307 431.5,316.5C 429.046,315.773 426.713,314.773 424.5,313.5C 415.243,305.287 414.077,295.954 421,285.5C 427.075,279.332 434.242,277.832 442.5,281C 444.193,281.847 445.86,282.68 447.5,283.5 Z"/></g>
<g><path style="opacity:1" fill="#b7b8b8" d="M 439.5,287.5 C 440.5,287.833 441.167,288.5 441.5,289.5C 436.83,288.415 433.83,290.082 432.5,294.5C 431.5,294.5 430.5,294.5 429.5,294.5C 430.638,289.249 433.972,286.916 439.5,287.5 Z"/></g>
<g><path style="opacity:1" fill="#898c8e" d="M 439.5,287.5 C 433.972,286.916 430.638,289.249 429.5,294.5C 428.022,294.762 426.689,294.429 425.5,293.5C 428.334,286.401 433,284.401 439.5,287.5 Z"/></g>
<g><path style="opacity:1" fill="#e8e8e8" d="M 680.5,264.5 C 683.64,263.359 686.973,263.192 690.5,264C 694.444,265.965 695.444,268.965 693.5,273C 690.623,274.127 687.623,274.794 684.5,275C 684.043,275.414 683.709,275.914 683.5,276.5C 689.733,277.215 692.233,280.548 691,286.5C 688.2,288.495 685.033,289.495 681.5,289.5C 681.666,298.839 681.5,308.173 681,317.5C 677.268,320.518 674.435,319.851 672.5,315.5C 674.176,314.817 674.843,313.483 674.5,311.5C 675.859,312.007 676.859,313.007 677.5,314.5C 678.086,314.291 678.586,313.957 679,313.5C 679.333,304.833 679.667,296.167 680,287.5C 682.481,285.686 685.315,285.02 688.5,285.5C 688.657,282.656 687.324,280.989 684.5,280.5C 683.432,279.566 682.099,279.232 680.5,279.5C 680.104,276.956 680.771,274.789 682.5,273C 684.98,272.04 687.48,271.207 690,270.5C 690.536,268.385 689.703,267.052 687.5,266.5C 685.412,265.061 683.079,264.394 680.5,264.5 Z"/></g>
<g><path style="opacity:1" fill="#77838e" d="M 170.5,290.5 C 170.5,290.833 170.5,291.167 170.5,291.5C 164.642,291.178 158.975,291.511 153.5,292.5C 152.957,292.44 152.624,292.107 152.5,291.5C 158.463,290.504 164.463,290.171 170.5,290.5 Z"/></g>
<g><path style="opacity:1" fill="#909293" d="M 253.5,283.5 C 254.496,283.414 255.329,283.748 256,284.5C 256.667,286.167 256.667,287.833 256,289.5C 252.562,290.42 249.562,292.087 247,294.5C 245.827,301.437 245.16,308.437 245,315.5C 242.379,318.14 239.879,318.14 237.5,315.5C 238.833,315.5 240.167,315.5 241.5,315.5C 241.189,307.772 241.689,300.105 243,292.5C 245.194,289.819 248.027,288.319 251.5,288C 253.037,286.89 253.703,285.39 253.5,283.5 Z"/></g>
<g><path style="opacity:1" fill="#253c56" d="M 319.5,279.5 C 319.5,280.833 319.5,282.167 319.5,283.5C 322.241,283.293 324.574,282.293 326.5,280.5C 327.833,280.167 329.167,279.833 330.5,279.5C 334.372,279.242 338.039,279.909 341.5,281.5C 342.11,282.391 342.443,283.391 342.5,284.5C 344.128,294.717 344.795,305.05 344.5,315.5C 342.833,315.5 341.167,315.5 339.5,315.5C 339.167,315.5 338.833,315.5 338.5,315.5C 337.5,315.5 336.5,315.5 335.5,315.5C 335.767,307.778 335.434,300.111 334.5,292.5C 334.5,291.833 334.5,291.167 334.5,290.5C 330.493,286.439 326.66,286.772 323,291.5C 321.565,299.389 321.065,307.389 321.5,315.5C 319.833,315.5 318.167,315.5 316.5,315.5C 315.833,315.5 315.167,315.5 314.5,315.5C 313.5,315.5 312.5,315.5 311.5,315.5C 311.5,303.5 311.5,291.5 311.5,279.5C 314.167,279.5 316.833,279.5 319.5,279.5 Z"/></g>
<g><path style="opacity:1" fill="#babcbf" d="M 319.5,279.5 C 321.764,280.219 324.097,280.552 326.5,280.5C 324.574,282.293 322.241,283.293 319.5,283.5C 319.5,282.167 319.5,280.833 319.5,279.5 Z"/></g>
<g><path style="opacity:1" fill="#98999a" d="M 586.5,282.5 C 589.513,283.356 590.18,285.189 588.5,288C 586.273,288.121 584.44,288.954 583,290.5C 582.501,296.157 582.334,301.824 582.5,307.5C 580.589,307.426 579.422,306.426 579,304.5C 578.501,298.509 578.334,292.509 578.5,286.5C 581.167,286.5 583.833,286.5 586.5,286.5C 586.5,285.167 586.5,283.833 586.5,282.5 Z"/></g>
<g><path style="opacity:1" fill="#2a3f56" d="M 23.5,266.5 C 24.5,267.833 25.5,269.167 26.5,270.5C 32.1101,280.767 38.1101,290.767 44.5,300.5C 45.5223,300.145 46.189,299.478 46.5,298.5C 47.1667,297.167 47.8333,295.833 48.5,294.5C 53.5814,285.335 58.9148,276.335 64.5,267.5C 65.4916,267.328 66.1583,267.662 66.5,268.5C 66.5,268.833 66.5,269.167 66.5,269.5C 67.8333,284.833 67.8333,300.167 66.5,315.5C 65.8333,315.5 65.1667,315.5 64.5,315.5C 63.6345,305.527 63.3012,295.527 63.5,285.5C 63.6646,282.482 63.498,279.482 63,276.5C 57.3333,285.833 51.6667,295.167 46,304.5C 45.3292,305.252 44.4959,305.586 43.5,305.5C 39.7709,300.433 36.4376,295.099 33.5,289.5C 32.8333,288.167 32.1667,286.833 31.5,285.5C 29.6778,282.528 27.8445,279.528 26,276.5C 25.7038,288.85 25.2038,301.184 24.5,313.5C 24.5,314.833 23.8333,315.5 22.5,315.5C 21.3386,299.672 21.1719,283.672 22,267.5C 22.3826,266.944 22.8826,266.611 23.5,266.5 Z"/></g>
<g><path style="opacity:1" fill="#a7a7a8" d="M 31.5,285.5 C 29.5257,295.111 28.859,305.111 29.5,315.5C 27.4458,315.635 25.7791,314.968 24.5,313.5C 25.2038,301.184 25.7038,288.85 26,276.5C 27.8445,279.528 29.6778,282.528 31.5,285.5 Z"/></g>
<g><path style="opacity:1" fill="#b4b5b6" d="M 63.5,285.5 C 60.4053,292.467 56.572,299.134 52,305.5C 49.1265,308.086 46.2932,308.086 43.5,305.5C 44.4959,305.586 45.3292,305.252 46,304.5C 51.6667,295.167 57.3333,285.833 63,276.5C 63.498,279.482 63.6646,282.482 63.5,285.5 Z"/></g>
<g><path style="opacity:1" fill="#e3e4e5" d="M 186.5,287.5 C 187.708,288.234 189.041,288.567 190.5,288.5C 195.083,289.195 199.749,289.195 204.5,288.5C 205.931,289.78 206.598,291.447 206.5,293.5C 201.138,293.472 195.805,293.806 190.5,294.5C 188.295,292.637 186.961,290.303 186.5,287.5 Z"/></g>
<g><path style="opacity:1" fill="#e4e4e5" d="M 266.5,287.5 C 267.708,288.234 269.041,288.567 270.5,288.5C 275.401,288.966 280.401,288.966 285.5,288.5C 286.301,290.042 286.634,291.708 286.5,293.5C 281.138,293.472 275.805,293.806 270.5,294.5C 268.396,292.628 267.063,290.295 266.5,287.5 Z"/></g>
<g><path style="opacity:1" fill="#e7e8e9" d="M 441.5,289.5 C 443.22,290.751 443.553,292.251 442.5,294C 439.183,294.498 435.85,294.665 432.5,294.5C 433.83,290.082 436.83,288.415 441.5,289.5 Z"/></g>
<g><path style="opacity:1" fill="#2d4056" d="M 680.5,264.5 C 683.079,264.394 685.412,265.061 687.5,266.5C 684.188,267.957 680.688,269.29 677,270.5C 675.698,273.375 674.865,276.375 674.5,279.5C 676.5,279.5 678.5,279.5 680.5,279.5C 682.099,279.232 683.432,279.566 684.5,280.5C 684.5,281.5 684.5,282.5 684.5,283.5C 681.167,283.5 677.833,283.5 674.5,283.5C 674.5,292.833 674.5,302.167 674.5,311.5C 674.843,313.483 674.176,314.817 672.5,315.5C 672.87,305.111 672.37,294.777 671,284.5C 665.065,282.39 665.065,280.39 671,278.5C 671.224,271.785 674.391,267.119 680.5,264.5 Z"/></g>
<g><path style="opacity:1" fill="#a9abac" d="M 26.5,270.5 C 28.7157,271.203 30.549,272.536 32,274.5C 33.6667,278.167 35.3333,281.833 37,285.5C 40.6894,289.586 43.8561,293.919 46.5,298.5C 46.189,299.478 45.5223,300.145 44.5,300.5C 38.1101,290.767 32.1101,280.767 26.5,270.5 Z"/></g>
<g><path style="opacity:1" fill="#e9e9e9" d="M 103.5,279.5 C 109.768,280.282 114.601,283.282 118,288.5C 120.319,298.426 120.819,308.426 119.5,318.5C 116.952,320.185 114.952,319.852 113.5,317.5C 115.167,317.5 116.833,317.5 118.5,317.5C 118.083,307.741 116.916,298.074 115,288.5C 113.809,285.466 111.642,283.799 108.5,283.5C 107.016,281.926 105.349,280.593 103.5,279.5 Z"/></g>
<g><path style="opacity:1" fill="#8a8b8c" d="M 342.5,284.5 C 344.776,284.756 345.943,286.09 346,288.5C 346.167,293 346.333,297.5 346.5,302C 346.493,306.886 345.826,311.386 344.5,315.5C 344.795,305.05 344.128,294.717 342.5,284.5 Z"/></g>
<g><path style="opacity:1" fill="#bfbfc0" d="M 156.5,277.5 C 158.23,278.026 159.564,279.026 160.5,280.5C 156.888,279.489 153.221,279.322 149.5,280C 140.504,288.133 140.171,296.633 148.5,305.5C 150.396,306.466 152.396,306.799 154.5,306.5C 148.532,308.819 143.865,307.152 140.5,301.5C 140.334,296.489 140.501,291.489 141,286.5C 144.609,280.707 149.775,277.707 156.5,277.5 Z"/></g>
<g><path style="opacity:1" fill="#c1c1c1" d="M 377.5,279.5 C 383.201,280.476 384.868,283.643 382.5,289C 380.236,289.236 378.069,289.736 376,290.5C 375.501,295.489 375.334,300.489 375.5,305.5C 374.349,300.35 374.183,295.016 375,289.5C 377.382,288.446 379.882,287.779 382.5,287.5C 382.817,284.454 381.484,282.787 378.5,282.5C 378.443,281.391 378.11,280.391 377.5,279.5 Z"/></g>
<g><path style="opacity:1" fill="#243c55" d="M 488.5,267.5 C 494.563,283.356 500.23,299.356 505.5,315.5C 503.833,315.5 502.167,315.5 500.5,315.5C 499.833,315.5 499.167,315.5 498.5,315.5C 496.478,314.493 495.145,312.826 494.5,310.5C 494.167,309.167 493.833,307.833 493.5,306.5C 493.672,305.508 493.338,304.842 492.5,304.5C 487.015,303.348 481.349,303.182 475.5,304C 474.538,307.216 473.372,310.382 472,313.5C 471.005,314.066 470.172,314.733 469.5,315.5C 468.833,315.5 468.167,315.5 467.5,315.5C 465.585,315.784 463.919,315.451 462.5,314.5C 467.766,299.036 473.433,283.703 479.5,268.5C 482.572,266.934 485.572,266.601 488.5,267.5 Z"/></g>
<g><path style="opacity:1" fill="#dcdedf" d="M 487.5,287.5 C 488.487,290.146 489.487,292.812 490.5,295.5C 487.914,296.48 485.247,296.813 482.5,296.5C 482.386,292.386 484.052,289.386 487.5,287.5 Z"/></g>
<g><path style="opacity:1" fill="#909293" d="M 487.5,287.5 C 484.052,289.386 482.386,292.386 482.5,296.5C 480.712,296.785 479.045,296.452 477.5,295.5C 479.503,290.49 481.503,285.49 483.5,280.5C 485.576,282.381 486.91,284.715 487.5,287.5 Z"/></g>
<g><path style="opacity:1" fill="#b4b4b5" d="M 171.5,292.5 C 173.017,292.511 174.184,293.177 175,294.5C 175.667,301.833 175.667,309.167 175,316.5C 172.448,318.02 170.282,317.687 168.5,315.5C 169.167,315.5 169.833,315.5 170.5,315.5C 171.5,315.5 172.5,315.5 173.5,315.5C 174.02,307.631 173.353,299.964 171.5,292.5 Z"/></g>
<g><path style="opacity:1" fill="#253c55" d="M 288.5,280.5 C 289.29,281.401 290.29,282.068 291.5,282.5C 292.907,284.308 294.074,286.308 295,288.5C 294.845,296.294 296.012,303.794 298.5,311C 298.242,313.009 297.575,314.843 296.5,316.5C 295.167,316.5 293.833,316.5 292.5,316.5C 290.548,315.215 288.882,313.549 287.5,311.5C 283.424,314.874 278.757,316.54 273.5,316.5C 264.772,313.711 261.939,308.044 265,299.5C 266.73,297.598 268.563,295.931 270.5,294.5C 275.805,293.806 281.138,293.472 286.5,293.5C 286.634,291.708 286.301,290.042 285.5,288.5C 280.635,284.793 275.635,284.793 270.5,288.5C 269.041,288.567 267.708,288.234 266.5,287.5C 265.972,286.153 265.805,284.819 266,283.5C 273.062,279.481 280.562,278.481 288.5,280.5 Z"/></g>
<g><path style="opacity:1" fill="#e0e0e0" d="M 330.5,279.5 C 334.981,278.352 339.648,278.185 344.5,279C 345.931,279.465 347.097,280.299 348,281.5C 350.396,293.054 351.062,304.721 350,316.5C 348.872,318.99 346.872,319.99 344,319.5C 340.814,319.763 338.981,318.43 338.5,315.5C 338.833,315.5 339.167,315.5 339.5,315.5C 341.675,318.562 344.509,319.228 348,317.5C 348.667,308.5 348.667,299.5 348,290.5C 347.758,285.987 345.592,282.987 341.5,281.5C 338.039,279.909 334.372,279.242 330.5,279.5 Z"/></g>
<g><path style="opacity:1" fill="#2c3f54" d="M 714.5,279.5 C 714.5,279.833 714.5,280.167 714.5,280.5C 714.5,281.5 714.5,282.5 714.5,283.5C 709.736,284.139 705.903,286.472 703,290.5C 702.771,298.547 702.271,306.547 701.5,314.5C 701.158,315.338 700.492,315.672 699.5,315.5C 698.356,303.909 698.189,292.243 699,280.5C 699.667,279.167 700.333,279.167 701,280.5C 701.973,282.392 702.64,284.392 703,286.5C 706.184,282.996 710.018,280.663 714.5,279.5 Z"/></g>
<g><path style="opacity:1" fill="#acadad" d="M 714.5,280.5 C 716.042,281.301 717.708,281.634 719.5,281.5C 720.126,285.375 718.459,287.209 714.5,287C 712.295,289.54 709.795,291.707 707,293.5C 706.5,300.492 706.334,307.492 706.5,314.5C 704.833,314.5 703.167,314.5 701.5,314.5C 702.271,306.547 702.771,298.547 703,290.5C 705.903,286.472 709.736,284.139 714.5,283.5C 714.5,282.5 714.5,281.5 714.5,280.5 Z"/></g>
<g><path style="opacity:1" fill="#e4e4e4" d="M 714.5,280.5 C 714.5,280.167 714.5,279.833 714.5,279.5C 716.861,279.674 719.194,280.007 721.5,280.5C 722.62,286.211 720.287,289.044 714.5,289C 713,290.5 711.5,292 710,293.5C 709.667,301.5 709.333,309.5 709,317.5C 704.768,321.817 701.601,321.15 699.5,315.5C 700.492,315.672 701.158,315.338 701.5,314.5C 703.167,314.5 704.833,314.5 706.5,314.5C 706.334,307.492 706.5,300.492 707,293.5C 709.795,291.707 712.295,289.54 714.5,287C 718.459,287.209 720.126,285.375 719.5,281.5C 717.708,281.634 716.042,281.301 714.5,280.5 Z"/></g>
<g><path style="opacity:1" fill="#cccccc" d="M 66.5,269.5 C 66.5,269.167 66.5,268.833 66.5,268.5C 68.7224,268.178 70.5557,268.845 72,270.5C 72.7879,286.532 72.6213,302.532 71.5,318.5C 69.1417,318.747 67.1417,318.081 65.5,316.5C 64.8333,316.5 64.5,316.167 64.5,315.5C 65.1667,315.5 65.8333,315.5 66.5,315.5C 68.451,315.773 69.951,315.107 71,313.5C 71.6667,299.5 71.6667,285.5 71,271.5C 69.6703,270.418 68.1703,269.751 66.5,269.5 Z"/></g>
<g><path style="opacity:1" fill="#adadad" d="M 341.5,281.5 C 345.592,282.987 347.758,285.987 348,290.5C 348.667,299.5 348.667,308.5 348,317.5C 344.509,319.228 341.675,318.562 339.5,315.5C 341.167,315.5 342.833,315.5 344.5,315.5C 345.826,311.386 346.493,306.886 346.5,302C 346.333,297.5 346.167,293 346,288.5C 345.943,286.09 344.776,284.756 342.5,284.5C 342.443,283.391 342.11,282.391 341.5,281.5 Z"/></g>
<g><path style="opacity:1" fill="#898b8e" d="M 170.5,291.5 C 171.167,291.5 171.5,291.833 171.5,292.5C 173.353,299.964 174.02,307.631 173.5,315.5C 172.5,315.5 171.5,315.5 170.5,315.5C 170.5,307.5 170.5,299.5 170.5,291.5 Z"/></g>
<g><path style="opacity:1" fill="#9b9b9c" d="M 334.5,290.5 C 332.801,290.34 331.134,290.506 329.5,291C 328.696,292.771 327.529,294.271 326,295.5C 325.667,302.5 325.333,309.5 325,316.5C 323.769,317.108 322.436,317.441 321,317.5C 318.992,317.693 317.492,317.026 316.5,315.5C 318.167,315.5 319.833,315.5 321.5,315.5C 321.065,307.389 321.565,299.389 323,291.5C 326.66,286.772 330.493,286.439 334.5,290.5 Z"/></g>
<g><path style="opacity:1" fill="#bcbdbe" d="M 684.5,280.5 C 687.324,280.989 688.657,282.656 688.5,285.5C 685.315,285.02 682.481,285.686 680,287.5C 679.667,296.167 679.333,304.833 679,313.5C 678.586,313.957 678.086,314.291 677.5,314.5C 676.859,313.007 675.859,312.007 674.5,311.5C 674.5,302.167 674.5,292.833 674.5,283.5C 677.833,283.5 681.167,283.5 684.5,283.5C 684.5,282.5 684.5,281.5 684.5,280.5 Z"/></g>
<g><path style="opacity:1" fill="#253c56" d="M 197.5,279.5 C 204.192,278.19 209.526,280.19 213.5,285.5C 214.878,294.141 216.211,302.808 217.5,311.5C 217.408,313.258 217.075,314.924 216.5,316.5C 215.167,316.5 213.833,316.5 212.5,316.5C 211.167,315.833 209.833,315.167 208.5,314.5C 208.539,313.244 208.039,312.244 207,311.5C 203.17,314.999 198.67,316.666 193.5,316.5C 191.716,316.107 190.05,315.441 188.5,314.5C 181.416,307.16 182.083,300.493 190.5,294.5C 195.805,293.806 201.138,293.472 206.5,293.5C 206.598,291.447 205.931,289.78 204.5,288.5C 203.102,286.467 201.102,285.467 198.5,285.5C 195.445,285.737 192.779,286.737 190.5,288.5C 189.041,288.567 187.708,288.234 186.5,287.5C 185.032,285.389 185.365,283.556 187.5,282C 190.72,280.648 194.053,279.814 197.5,279.5 Z"/></g>
<g><path style="opacity:1" fill="#b3b3b4" d="M 551.5,281.5 C 553.017,281.511 554.184,282.177 555,283.5C 555.025,293.454 555.858,303.287 557.5,313C 557.456,314.764 557.122,316.431 556.5,318C 554.167,318.667 551.833,318.667 549.5,318C 548.944,317.617 548.611,317.117 548.5,316.5C 549.5,316.5 550.5,316.5 551.5,316.5C 552.568,317.434 553.901,317.768 555.5,317.5C 554.427,305.421 553.094,293.421 551.5,281.5 Z"/></g>
<g><path style="opacity:1" fill="#d9d9d9" d="M 334.5,290.5 C 334.5,291.167 334.5,291.833 334.5,292.5C 331.324,292.84 329.157,294.506 328,297.5C 327.831,304.191 327.331,310.858 326.5,317.5C 322.991,319.564 319.324,319.897 315.5,318.5C 314.873,317.583 314.539,316.583 314.5,315.5C 315.167,315.5 315.833,315.5 316.5,315.5C 317.492,317.026 318.992,317.693 321,317.5C 322.436,317.441 323.769,317.108 325,316.5C 325.333,309.5 325.667,302.5 326,295.5C 327.529,294.271 328.696,292.771 329.5,291C 331.134,290.506 332.801,290.34 334.5,290.5 Z"/></g>
<g><path style="opacity:1" fill="#959698" d="M 378.5,282.5 C 381.484,282.787 382.817,284.454 382.5,287.5C 379.882,287.779 377.382,288.446 375,289.5C 374.183,295.016 374.349,300.35 375.5,305.5C 375.5,306.167 375.5,306.833 375.5,307.5C 372.612,307.78 371.112,306.447 371,303.5C 370.501,297.843 370.334,292.176 370.5,286.5C 373.167,286.5 375.833,286.5 378.5,286.5C 378.5,285.167 378.5,283.833 378.5,282.5 Z"/></g>
<g><path style="opacity:1" fill="#a3a3a5" d="M 447.5,283.5 C 450.093,284.754 452.427,286.42 454.5,288.5C 455.896,291.691 456.896,295.024 457.5,298.5C 457.43,299.772 457.097,300.938 456.5,302C 448.833,302.333 441.167,302.667 433.5,303C 431.845,304.444 431.178,306.278 431.5,308.5C 427.618,307.233 426.285,304.733 427.5,301C 436.16,300.5 444.827,300.334 453.5,300.5C 453.47,294.113 451.47,288.446 447.5,283.5 Z"/></g>
<g><path style="opacity:1" fill="#dddddd" d="M 551.5,281.5 C 551.5,281.167 551.5,280.833 551.5,280.5C 553.484,280.383 555.15,281.05 556.5,282.5C 556.995,292.914 557.995,303.248 559.5,313.5C 559.5,318.167 557.167,320.5 552.5,320.5C 549.71,320.187 547.21,319.187 545,317.5C 540.902,318.811 536.735,319.811 532.5,320.5C 528.376,320.61 525.376,318.943 523.5,315.5C 524.391,316.11 525.391,316.443 526.5,316.5C 526.611,317.117 526.944,317.617 527.5,318C 533.842,319.048 539.842,318.215 545.5,315.5C 546.391,316.11 547.391,316.443 548.5,316.5C 548.611,317.117 548.944,317.617 549.5,318C 551.833,318.667 554.167,318.667 556.5,318C 557.122,316.431 557.456,314.764 557.5,313C 555.858,303.287 555.025,293.454 555,283.5C 554.184,282.177 553.017,281.511 551.5,281.5 Z"/></g>
<g><path style="opacity:1" fill="#aeafb0" d="M 108.5,283.5 C 111.642,283.799 113.809,285.466 115,288.5C 116.916,298.074 118.083,307.741 118.5,317.5C 116.833,317.5 115.167,317.5 113.5,317.5C 113.5,316.833 113.5,316.167 113.5,315.5C 114.465,314.279 114.298,312.946 113,311.5C 113.112,301.842 111.612,292.509 108.5,283.5 Z"/></g>
<g><path style="opacity:1" fill="#dfe0e1" d="M 205.5,300.5 C 206.694,306.335 204.027,309.335 197.5,309.5C 195.477,302.697 198.144,299.697 205.5,300.5 Z"/></g>
<g><path style="opacity:1" fill="#9fa1a3" d="M 286.5,304.5 C 285.848,303.275 284.681,302.608 283,302.5C 278.914,302.42 277.081,304.42 277.5,308.5C 278.833,308.5 280.167,308.5 281.5,308.5C 276.721,310.693 273.721,309.193 272.5,304C 273.244,300.28 275.577,298.447 279.5,298.5C 282.471,298.525 284.971,299.525 287,301.5C 287.74,302.749 287.573,303.749 286.5,304.5 Z"/></g>
<g><path style="opacity:1" fill="#96989a" d="M 205.5,300.5 C 198.144,299.697 195.477,302.697 197.5,309.5C 192.551,308.594 191.051,305.927 193,301.5C 197.024,298.052 201.191,297.718 205.5,300.5 Z"/></g>
<g><path style="opacity:1" fill="#edeeee" d="M 286.5,304.5 C 285.415,306.587 283.749,307.92 281.5,308.5C 280.167,308.5 278.833,308.5 277.5,308.5C 277.081,304.42 278.914,302.42 283,302.5C 284.681,302.608 285.848,303.275 286.5,304.5 Z"/></g>
<g><path style="opacity:1" fill="#d7d7d8" d="M 454.5,288.5 C 458.087,292.349 459.254,297.016 458,302.5C 456.693,303.772 455.193,304.772 453.5,305.5C 456.628,310.023 455.961,313.857 451.5,317C 449.5,318 447.5,319 445.5,320C 440.167,320.667 434.833,320.667 429.5,320C 425.717,319.391 424.05,317.224 424.5,313.5C 426.713,314.773 429.046,315.773 431.5,316.5C 431.611,317.117 431.944,317.617 432.5,318C 440.181,320.001 446.681,318.167 452,312.5C 452.484,310.807 451.984,309.473 450.5,308.5C 449.232,306.613 447.399,305.613 445,305.5C 442.518,306.635 440.018,307.801 437.5,309C 435.402,309.678 433.402,309.511 431.5,308.5C 431.178,306.278 431.845,304.444 433.5,303C 441.167,302.667 448.833,302.333 456.5,302C 457.097,300.938 457.43,299.772 457.5,298.5C 456.896,295.024 455.896,291.691 454.5,288.5 Z"/></g>
<g><path style="opacity:1" fill="#a8a9a9" d="M 492.5,304.5 C 493.338,304.842 493.672,305.508 493.5,306.5C 489.154,306.334 484.821,306.501 480.5,307C 478.237,310.196 476.237,313.53 474.5,317C 473.333,317.167 472.167,317.333 471,317.5C 469.319,317.392 468.152,316.725 467.5,315.5C 468.167,315.5 468.833,315.5 469.5,315.5C 471.199,315.66 472.866,315.494 474.5,315C 476.687,305.529 482.687,302.029 492.5,304.5 Z"/></g>
<g><path style="opacity:1" fill="#b3b4b5" d="M 526.5,279.5 C 528.229,280.117 529.729,281.117 531,282.5C 531.136,290.562 531.803,298.562 533,306.5C 533.671,307.252 534.504,307.586 535.5,307.5C 534.001,308.494 532.334,308.494 530.5,307.5C 530.092,299.151 529.425,290.817 528.5,282.5C 527.817,282.137 527.15,281.804 526.5,281.5C 526.5,280.833 526.5,280.167 526.5,279.5 Z"/></g>
<g><path style="opacity:1" fill="#e9e9e9" d="M 371.5,268.5 C 376.994,268.93 378.994,271.93 377.5,277.5C 385.443,278.366 387.776,282.366 384.5,289.5C 382.271,290.577 379.937,291.244 377.5,291.5C 377.173,296.214 377.507,300.88 378.5,305.5C 386.48,305.783 389.314,309.783 387,317.5C 381.91,322.23 376.077,323.396 369.5,321C 368.242,319.259 367.242,317.426 366.5,315.5C 367.391,316.11 368.391,316.443 369.5,316.5C 369.918,317.222 370.584,317.722 371.5,318C 375.5,318.667 379.5,318.667 383.5,318C 387.052,312.559 385.718,309.059 379.5,307.5C 378.167,307.5 376.833,307.5 375.5,307.5C 375.5,306.833 375.5,306.167 375.5,305.5C 375.334,300.489 375.501,295.489 376,290.5C 378.069,289.736 380.236,289.236 382.5,289C 384.868,283.643 383.201,280.476 377.5,279.5C 377.167,279.5 376.833,279.5 376.5,279.5C 375.772,276.921 375.272,274.254 375,271.5C 373.855,270.364 372.688,269.364 371.5,268.5 Z"/></g>
<g><path style="opacity:1" fill="#dfdfdf" d="M 578.5,267.5 C 584.505,267.949 586.838,271.282 585.5,277.5C 587.5,277.833 589.5,278.167 591.5,278.5C 592.312,280.743 592.979,283.076 593.5,285.5C 593.367,290.584 590.701,292.917 585.5,292.5C 585.334,296.846 585.501,301.179 586,305.5C 588.899,305.977 591.566,306.977 594,308.5C 594.837,312.295 594.504,315.961 593,319.5C 592.25,320.126 591.416,320.626 590.5,321C 586.167,321.667 581.833,321.667 577.5,321C 574.183,319.52 572.183,317.02 571.5,313.5C 573.216,315.025 575.216,316.025 577.5,316.5C 577.611,317.117 577.944,317.617 578.5,318C 581.833,318.667 585.167,318.667 588.5,318C 591.006,316.484 591.84,314.318 591,311.5C 590.329,310.748 589.496,310.414 588.5,310.5C 587.32,308.087 585.32,307.087 582.5,307.5C 582.334,301.824 582.501,296.157 583,290.5C 584.44,288.954 586.273,288.121 588.5,288C 590.18,285.189 589.513,283.356 586.5,282.5C 586.573,280.973 585.906,279.973 584.5,279.5C 583.772,276.921 583.272,274.254 583,271.5C 581.89,269.963 580.39,269.297 578.5,269.5C 578.5,268.833 578.5,268.167 578.5,267.5 Z"/></g>
<g><path style="opacity:1" fill="#ececec" d="M 249.5,279.5 C 259.532,276.538 262.865,280.205 259.5,290.5C 256.528,292.306 253.695,294.306 251,296.5C 249.781,303.421 249.114,310.421 249,317.5C 248.626,318.416 248.126,319.25 247.5,320C 243.5,320.667 239.5,320.667 235.5,320C 234.117,318.729 233.117,317.229 232.5,315.5C 233.833,315.5 235.167,315.5 236.5,315.5C 236.33,316.822 236.663,317.989 237.5,319C 240.993,320.004 244.159,319.504 247,317.5C 247.333,310.167 247.667,302.833 248,295.5C 250.295,293.062 253.128,291.562 256.5,291C 258.393,288.083 258.893,284.916 258,281.5C 256.556,279.845 254.722,279.178 252.5,279.5C 251.5,279.5 250.5,279.5 249.5,279.5 Z"/></g>
<g><path style="opacity:1" fill="#828589" d="M 492.5,304.5 C 482.687,302.029 476.687,305.529 474.5,315C 472.866,315.494 471.199,315.66 469.5,315.5C 470.172,314.733 471.005,314.066 472,313.5C 473.372,310.382 474.538,307.216 475.5,304C 481.349,303.182 487.015,303.348 492.5,304.5 Z"/></g>
<g><path style="opacity:1" fill="#969798" d="M 291.5,282.5 C 295.099,284.263 297.932,286.93 300,290.5C 300.5,299.494 300.666,308.494 300.5,317.5C 298.901,317.768 297.568,317.434 296.5,316.5C 297.575,314.843 298.242,313.009 298.5,311C 296.012,303.794 294.845,296.294 295,288.5C 294.074,286.308 292.907,284.308 291.5,282.5 Z"/></g>
<g><path style="opacity:1" fill="#243c55" d="M 611.5,279.5 C 617.76,278.682 623.426,280.015 628.5,283.5C 637.799,296.806 635.466,307.64 621.5,316C 618.854,316.497 616.187,316.664 613.5,316.5C 612.5,316.5 611.5,316.5 610.5,316.5C 606.762,314.303 603.429,311.636 600.5,308.5C 595.727,299.082 597.06,290.582 604.5,283C 606.577,281.295 608.91,280.128 611.5,279.5 Z"/></g>
<g><path style="opacity:1" fill="#b8babb" d="M 621.5,289.5 C 622.167,289.5 622.5,289.833 622.5,290.5C 613.808,290.701 610.641,295.035 613,303.5C 613.875,306.215 615.708,307.548 618.5,307.5C 616.611,308.742 614.611,308.742 612.5,307.5C 610.112,302.934 609.945,298.267 612,293.5C 614.483,290.511 617.65,289.178 621.5,289.5 Z"/></g>
<g><path style="opacity:1" fill="#939495" d="M 621.5,289.5 C 617.65,289.178 614.483,290.511 612,293.5C 609.945,298.267 610.112,302.934 612.5,307.5C 607.693,304.103 606.193,299.436 608,293.5C 611.267,287.44 615.767,286.107 621.5,289.5 Z"/></g>
<g><path style="opacity:1" fill="#f5f5f5" d="M 622.5,290.5 C 624.506,294.198 625.006,298.198 624,302.5C 622.924,305.079 621.091,306.746 618.5,307.5C 615.708,307.548 613.875,306.215 613,303.5C 610.641,295.035 613.808,290.701 622.5,290.5 Z"/></g>
<g><path style="opacity:1" fill="#c2c2c3" d="M 218.5,289.5 C 219.268,290.263 219.768,291.263 220,292.5C 220.453,300.991 221.12,309.324 222,317.5C 218.511,320.282 215.344,319.949 212.5,316.5C 213.833,316.5 215.167,316.5 216.5,316.5C 217.568,317.434 218.901,317.768 220.5,317.5C 220.054,308.144 219.387,298.81 218.5,289.5 Z"/></g>
<g><path style="opacity:1" fill="#e5e6e6" d="M 493.5,306.5 C 493.833,307.833 494.167,309.167 494.5,310.5C 490.922,309.411 487.255,309.245 483.5,310C 481.683,311.8 480.516,313.966 480,316.5C 475.909,320.305 471.076,321.472 465.5,320C 464.284,318.406 462.951,316.906 461.5,315.5C 461.624,314.893 461.957,314.56 462.5,314.5C 463.919,315.451 465.585,315.784 467.5,315.5C 468.152,316.725 469.319,317.392 471,317.5C 472.167,317.333 473.333,317.167 474.5,317C 476.237,313.53 478.237,310.196 480.5,307C 484.821,306.501 489.154,306.334 493.5,306.5 Z"/></g>
<g><path style="opacity:1" fill="#373f49" d="M 650.5,310.5 C 651.649,310.791 652.316,311.624 652.5,313C 652.167,313.833 651.833,314.667 651.5,315.5C 650.548,313.955 650.215,312.288 650.5,310.5 Z"/></g>
<g><path style="opacity:1" fill="#939596" d="M 628.5,283.5 C 631.764,285.094 634.431,287.427 636.5,290.5C 637.574,293.393 638.24,296.393 638.5,299.5C 637.321,303.541 635.821,307.541 634,311.5C 629.888,314.474 625.388,316.807 620.5,318.5C 617.971,318.071 615.638,317.404 613.5,316.5C 616.187,316.664 618.854,316.497 621.5,316C 635.466,307.64 637.799,296.806 628.5,283.5 Z"/></g>
<g><path style="opacity:1" fill="#334357" d="M 103.5,279.5 C 105.349,280.593 107.016,281.926 108.5,283.5C 111.612,292.509 113.112,301.842 113,311.5C 114.298,312.946 114.465,314.279 113.5,315.5C 112.833,315.5 112.167,315.5 111.5,315.5C 110.524,314.185 109.524,312.852 108.5,311.5C 102.357,316.6 95.6899,317.6 88.5,314.5C 86.8267,313.657 85.66,312.324 85,310.5C 82.7804,303.563 84.947,298.73 91.5,296C 97.5498,294.06 103.55,294.227 109.5,296.5C 110.091,292.036 108.758,288.369 105.5,285.5C 103.834,283.172 101.501,282.172 98.5,282.5C 96.1175,282.361 94.1175,283.028 92.5,284.5C 84.9002,285.69 84.5668,284.523 91.5,281C 95.3951,279.734 99.3951,279.234 103.5,279.5 Z"/></g>
<g><path style="opacity:1" fill="#f4f4f5" d="M 108.5,306.5 C 105.538,311.843 100.871,314.177 94.5,313.5C 91.3643,309.011 92.031,305.178 96.5,302C 100.486,301.501 104.486,301.334 108.5,301.5C 108.5,303.167 108.5,304.833 108.5,306.5 Z"/></g>
<g><path style="opacity:1" fill="#bcbdbe" d="M 108.5,306.5 C 108.5,304.833 108.5,303.167 108.5,301.5C 104.486,301.334 100.486,301.501 96.5,302C 92.031,305.178 91.3643,309.011 94.5,313.5C 90.8767,311.877 88.21,309.21 86.5,305.5C 88.944,300.192 93.1106,297.525 99,297.5C 101.898,297.637 104.731,298.137 107.5,299C 109.646,301.357 109.979,303.857 108.5,306.5 Z"/></g>
<g><path style="opacity:1" fill="#9b9c9e" d="M 208.5,314.5 C 203.869,318.734 198.869,319.401 193.5,316.5C 198.67,316.666 203.17,314.999 207,311.5C 208.039,312.244 208.539,313.244 208.5,314.5 Z"/></g>
<g><path style="opacity:1" fill="#9e9fa1" d="M 545.5,315.5 C 539.842,318.215 533.842,319.048 527.5,318C 526.944,317.617 526.611,317.117 526.5,316.5C 532.341,316.375 537.674,314.708 542.5,311.5C 543.524,312.852 544.524,314.185 545.5,315.5 Z"/></g>
<g><path style="opacity:1" fill="#c6c6c6" d="M 636.5,290.5 C 637.458,290.953 638.292,291.619 639,292.5C 639.789,298.237 639.456,303.903 638,309.5C 634.833,312.667 631.667,315.833 628.5,319C 624.167,319.667 619.833,319.667 615.5,319C 613.509,318.626 611.842,317.793 610.5,316.5C 611.5,316.5 612.5,316.5 613.5,316.5C 615.638,317.404 617.971,318.071 620.5,318.5C 625.388,316.807 629.888,314.474 634,311.5C 635.821,307.541 637.321,303.541 638.5,299.5C 638.24,296.393 637.574,293.393 636.5,290.5 Z"/></g>
<g><path style="opacity:1" fill="#bdbebf" d="M 111.5,315.5 C 104.425,318.867 97.0913,319.367 89.5,317C 88.7476,316.329 88.4142,315.496 88.5,314.5C 95.6899,317.6 102.357,316.6 108.5,311.5C 109.524,312.852 110.524,314.185 111.5,315.5 Z"/></g>
<g><path style="opacity:1" fill="#d4d4d4" d="M 288.5,280.5 C 290.199,280.34 291.866,280.506 293.5,281C 295.043,282.878 296.876,284.378 299,285.5C 299.29,287.044 299.956,288.377 301,289.5C 302.738,299.095 303.405,308.761 303,318.5C 299.291,321.323 295.791,321.157 292.5,318C 291.207,317.51 289.873,317.343 288.5,317.5C 289.568,316.566 290.901,316.232 292.5,316.5C 293.833,316.5 295.167,316.5 296.5,316.5C 297.568,317.434 298.901,317.768 300.5,317.5C 300.666,308.494 300.5,299.494 300,290.5C 297.932,286.93 295.099,284.263 291.5,282.5C 290.29,282.068 289.29,281.401 288.5,280.5 Z"/></g>
<g><path style="opacity:1" fill="#a1a1a2" d="M 450.5,308.5 C 451.984,309.473 452.484,310.807 452,312.5C 446.681,318.167 440.181,320.001 432.5,318C 431.944,317.617 431.611,317.117 431.5,316.5C 439.442,317.307 445.775,314.64 450.5,308.5 Z"/></g>
<g><path style="opacity:1" fill="#a7a8aa" d="M 292.5,316.5 C 290.901,316.232 289.568,316.566 288.5,317.5C 286.051,318.042 283.551,318.375 281,318.5C 278.134,318.7 275.634,318.033 273.5,316.5C 278.757,316.54 283.424,314.874 287.5,311.5C 288.882,313.549 290.548,315.215 292.5,316.5 Z"/></g>
<g><path style="opacity:1" fill="#aeafaf" d="M 379.5,307.5 C 385.718,309.059 387.052,312.559 383.5,318C 379.5,318.667 375.5,318.667 371.5,318C 370.584,317.722 369.918,317.222 369.5,316.5C 372.959,316.469 376.292,315.802 379.5,314.5C 380.714,312.141 380.714,309.808 379.5,307.5 Z"/></g>
<g><path style="opacity:1" fill="#d0d0d0" d="M 504.5,298.5 C 508.667,304.347 510.667,311.014 510.5,318.5C 507.15,318.665 503.817,318.498 500.5,318C 499.619,317.292 498.953,316.458 498.5,315.5C 499.167,315.5 499.833,315.5 500.5,315.5C 501.312,316.993 502.645,317.66 504.5,317.5C 506.955,317.888 508.288,316.888 508.5,314.5C 506.154,309.454 504.821,304.12 504.5,298.5 Z"/></g>
<g><path style="opacity:1" fill="#a7a8a9" d="M 588.5,310.5 C 589.496,310.414 590.329,310.748 591,311.5C 591.84,314.318 591.006,316.484 588.5,318C 585.167,318.667 581.833,318.667 578.5,318C 577.944,317.617 577.611,317.117 577.5,316.5C 580.568,316.453 583.568,315.953 586.5,315C 588.037,313.89 588.703,312.39 588.5,310.5 Z"/></g>
<g><path style="opacity:1" fill="#dfdfdf" d="M 31.5,285.5 C 32.1667,286.833 32.8333,288.167 33.5,289.5C 32.8826,289.611 32.3826,289.944 32,290.5C 31.8321,299.851 31.3321,309.184 30.5,318.5C 28.2534,319.374 25.9201,319.708 23.5,319.5C 23.5674,318.041 23.2341,316.708 22.5,315.5C 23.8333,315.5 24.5,314.833 24.5,313.5C 25.7791,314.968 27.4458,315.635 29.5,315.5C 28.859,305.111 29.5257,295.111 31.5,285.5 Z"/></g>
<g><path style="opacity:1" fill="#dddddd" d="M 170.5,291.5 C 170.5,291.167 170.5,290.833 170.5,290.5C 173.195,290.933 175.362,292.266 177,294.5C 177.667,301.833 177.667,309.167 177,316.5C 176.626,317.416 176.126,318.25 175.5,319C 172.131,319.663 168.797,319.496 165.5,318.5C 155.265,321.9 145.599,320.733 136.5,315C 135.62,313.644 135.286,312.144 135.5,310.5C 138.38,313.039 141.713,314.706 145.5,315.5C 145.611,316.117 145.944,316.617 146.5,317C 152.616,317.732 158.616,317.232 164.5,315.5C 165.833,315.5 167.167,315.5 168.5,315.5C 170.282,317.687 172.448,318.02 175,316.5C 175.667,309.167 175.667,301.833 175,294.5C 174.184,293.177 173.017,292.511 171.5,292.5C 171.5,291.833 171.167,291.5 170.5,291.5 Z"/></g>
<g><path style="opacity:1" fill="#95979a" d="M 164.5,315.5 C 158.616,317.232 152.616,317.732 146.5,317C 145.944,316.617 145.611,316.117 145.5,315.5C 151.769,316.424 157.436,315.091 162.5,311.5C 163.362,312.766 164.029,314.099 164.5,315.5 Z"/></g>
<g><path style="opacity:1" fill="#cecece" d="M 252.5,279.5 C 254.722,279.178 256.556,279.845 258,281.5C 258.893,284.916 258.393,288.083 256.5,291C 253.128,291.562 250.295,293.062 248,295.5C 247.667,302.833 247.333,310.167 247,317.5C 244.159,319.504 240.993,320.004 237.5,319C 236.663,317.989 236.33,316.822 236.5,315.5C 236.833,315.5 237.167,315.5 237.5,315.5C 239.879,318.14 242.379,318.14 245,315.5C 245.16,308.437 245.827,301.437 247,294.5C 249.562,292.087 252.562,290.42 256,289.5C 256.667,287.833 256.667,286.167 256,284.5C 255.329,283.748 254.496,283.414 253.5,283.5C 253.567,282.041 253.234,280.708 252.5,279.5 Z"/></g>
<g><path style="opacity:1" fill="#e6e6e6" d="M 197.5,279.5 C 202.316,278.35 207.316,278.184 212.5,279C 219.344,281.842 222.844,287.008 223,294.5C 223.999,302.486 224.333,310.486 224,318.5C 219.447,320.794 214.614,321.127 209.5,319.5C 202.722,322.502 196.222,322.168 190,318.5C 189.209,317.255 188.709,315.922 188.5,314.5C 190.05,315.441 191.716,316.107 193.5,316.5C 198.869,319.401 203.869,318.734 208.5,314.5C 209.833,315.167 211.167,315.833 212.5,316.5C 215.344,319.949 218.511,320.282 222,317.5C 221.12,309.324 220.453,300.991 220,292.5C 219.768,291.263 219.268,290.263 218.5,289.5C 218.033,286.703 216.367,285.369 213.5,285.5C 209.526,280.19 204.192,278.19 197.5,279.5 Z"/></g>
</svg>
