<?xml version="1.0" encoding="UTF-8"?>
<!DOCTYPE svg PUBLIC "-//W3C//DTD SVG 1.1//EN" "http://www.w3.org/Graphics/SVG/1.1/DTD/svg11.dtd">
<svg xmlns="http://www.w3.org/2000/svg" version="1.1" width="497px" height="512px" style="shape-rendering:geometricPrecision; text-rendering:geometricPrecision; image-rendering:optimizeQuality; fill-rule:evenodd; clip-rule:evenodd" xmlns:xlink="http://www.w3.org/1999/xlink">
<g><path style="opacity:0.992" fill="#f15a24" d="M 234.5,-0.5 C 251.167,-0.5 267.833,-0.5 284.5,-0.5C 372.813,11.6622 436.647,57.6622 476,137.5C 486.002,160.998 492.835,185.332 496.5,210.5C 496.5,227.167 496.5,243.833 496.5,260.5C 486.322,338.43 448.322,398.263 382.5,440C 307.798,481.243 231.464,484.243 153.5,449C 143.464,443.654 133.797,437.821 124.5,431.5C 169.256,396.763 212.589,360.096 254.5,321.5C 280.877,296.065 302.377,267.065 319,234.5C 322.757,224.377 325.757,214.044 328,203.5C 329.394,196.123 329.894,188.79 329.5,181.5C 356.256,196.648 381.089,193.981 404,173.5C 416.638,158.882 421.638,141.882 419,122.5C 411.538,96.3518 394.371,81.1851 367.5,77C 341.982,75.176 322.815,85.3426 310,107.5C 302.312,125.734 302.812,143.734 311.5,161.5C 288.313,158.84 266.646,163.674 246.5,176C 219.305,194.511 194.471,216.011 172,240.5C 147.571,269.686 122.904,298.686 98,327.5C 97.5172,328.448 97.3505,329.448 97.5,330.5C 121.617,326.138 145.617,321.138 169.5,315.5C 170.167,315.833 170.833,316.167 171.5,316.5C 150.481,337.352 129.981,358.685 110,380.5C 103.244,387.761 96.0775,394.428 88.5,400.5C 36.878,344.16 15.7113,277.493 25,200.5C 40.0633,117.462 85.23,57.2955 160.5,20C 184.378,10.0324 209.045,3.19905 234.5,-0.5 Z"/></g>
<g><path style="opacity:0.954" fill="#f9f2ef" d="M 124.5,431.5 C 112.58,440.047 100.08,447.713 87,454.5C 86.9486,458.157 87.282,461.823 88,465.5C 91.5025,480.176 95.0025,494.843 98.5,509.5C 98.1373,510.183 97.8039,510.85 97.5,511.5C 95.8333,511.5 94.1667,511.5 92.5,511.5C 88.7234,506.935 84.7234,502.602 80.5,498.5C 75.4298,491.924 69.7631,485.757 63.5,480C 55.6092,472.604 47.6092,465.437 39.5,458.5C 38.645,457.469 37.9783,456.303 37.5,455C 38.6512,453.177 39.8179,451.344 41,449.5C 57.2998,433.518 73.1331,417.185 88.5,400.5C 96.0775,394.428 103.244,387.761 110,380.5C 129.981,358.685 150.481,337.352 171.5,316.5C 170.833,316.167 170.167,315.833 169.5,315.5C 145.617,321.138 121.617,326.138 97.5,330.5C 97.3505,329.448 97.5172,328.448 98,327.5C 122.904,298.686 147.571,269.686 172,240.5C 194.471,216.011 219.305,194.511 246.5,176C 266.646,163.674 288.313,158.84 311.5,161.5C 302.812,143.734 302.312,125.734 310,107.5C 322.815,85.3426 341.982,75.176 367.5,77C 394.371,81.1851 411.538,96.3518 419,122.5C 421.638,141.882 416.638,158.882 404,173.5C 381.089,193.981 356.256,196.648 329.5,181.5C 329.894,188.79 329.394,196.123 328,203.5C 325.757,214.044 322.757,224.377 319,234.5C 302.377,267.065 280.877,296.065 254.5,321.5C 212.589,360.096 169.256,396.763 124.5,431.5 Z"/></g>
<g><path style="opacity:1" fill="#9a9a9a" d="M 350.5,80.5 C 364.345,78.7124 377.345,81.2124 389.5,88C 391.585,89.0414 393.252,90.5414 394.5,92.5C 377.687,108.145 361.021,123.979 344.5,140C 357.12,154.289 370.12,168.289 383.5,182C 348.554,194.115 324.054,182.948 310,148.5C 304.265,114.124 317.765,91.4569 350.5,80.5 Z"/></g>
<g><path style="opacity:1" fill="#686868" d="M 397.5,95.5 C 400.263,95.7438 402.429,97.0771 404,99.5C 418.334,120.176 419.334,141.51 407,163.5C 401.898,170.605 395.564,176.272 388,180.5C 374.688,167.687 361.855,154.354 349.5,140.5C 365.52,125.478 381.52,110.478 397.5,95.5 Z"/></g>
<g><path style="opacity:1" fill="#f1f1f1" d="M 396.5,125.5 C 397.978,125.238 399.311,125.571 400.5,126.5C 402.277,134.403 401.611,142.07 398.5,149.5C 397.675,150.386 396.675,150.719 395.5,150.5C 395.198,142.082 395.531,133.748 396.5,125.5 Z"/></g>
<g><path style="opacity:1" fill="#ff9420" d="M 286.5,164.5 C 296.692,163.673 306.526,165.006 316,168.5C 316.667,169.167 316.667,169.833 316,170.5C 271.055,216.445 225.722,262.112 180,307.5C 169.333,297.5 158.667,287.5 148,277.5C 147.333,276.5 147.333,275.5 148,274.5C 170.428,246.071 195.595,220.238 223.5,197C 235.843,186.827 249.177,178.16 263.5,171C 271.19,168.504 278.857,166.338 286.5,164.5 Z"/></g>
<g><path style="opacity:1" fill="#676767" d="M 322.5,207.5 C 318.248,213.599 313.748,219.599 309,225.5C 280.602,253.397 252.769,281.73 225.5,310.5C 218.702,316.797 212.035,323.297 205.5,330C 204.833,330.667 204.167,330.667 203.5,330C 196.959,323.291 190.292,316.791 183.5,310.5C 189.184,304.65 194.684,298.65 200,292.5C 239.528,253.306 278.695,213.806 317.5,174C 320.28,173.731 322.446,174.898 324,177.5C 327.444,187.681 326.944,197.681 322.5,207.5 Z"/></g>
<g><path style="opacity:1" fill="#9a9a9a" d="M 321.5,214.5 C 315.096,235.641 305.263,254.975 292,272.5C 271.447,300.055 247.78,324.722 221,346.5C 216.5,342 212,337.5 207.5,333C 214.578,325.486 221.578,317.986 228.5,310.5C 257.106,282.727 285.272,254.394 313,225.5C 315.333,221.833 317.667,218.167 320,214.5C 320.69,213.262 321.19,213.262 321.5,214.5 Z"/></g>
<g><path style="opacity:1" fill="#ededed" d="M 322.5,207.5 C 323.708,210.072 323.375,212.406 321.5,214.5C 321.19,213.262 320.69,213.262 320,214.5C 317.667,218.167 315.333,221.833 313,225.5C 285.272,254.394 257.106,282.727 228.5,310.5C 227.5,310.5 226.5,310.5 225.5,310.5C 252.769,281.73 280.602,253.397 309,225.5C 313.748,219.599 318.248,213.599 322.5,207.5 Z"/></g>
<g><path style="opacity:1" fill="#f15d28" d="M 142.5,280.5 C 143.552,280.351 144.552,280.517 145.5,281C 155.348,290.681 165.014,300.514 174.5,310.5C 151.517,315.796 128.517,320.629 105.5,325C 118.422,310.585 130.755,295.752 142.5,280.5 Z"/></g>
<g><path style="opacity:1" fill="#696969" d="M 179.5,313.5 C 187.118,319.782 194.452,326.448 201.5,333.5C 185.175,336.837 168.841,339.671 152.5,342C 161.339,332.328 170.339,322.828 179.5,313.5 Z"/></g>
<g><path style="opacity:1" fill="#9a9a9a" d="M 199.5,337.5 C 201.199,337.34 202.866,337.506 204.5,338C 208.015,341.682 211.682,345.182 215.5,348.5C 216.833,349.5 216.833,350.5 215.5,351.5C 192.871,371.475 169.871,390.975 146.5,410C 125.774,425.785 103.941,439.952 81,452.5C 84.3179,468.114 87.8179,483.781 91.5,499.5C 91.2668,500.932 90.6001,501.432 89.5,501C 74.3333,485.833 59.1667,470.667 44,455.5C 43.3333,454.833 43.3333,454.167 44,453.5C 77.831,418.002 111.998,382.836 146.5,348C 164.257,344.488 181.924,340.988 199.5,337.5 Z"/></g>
<g><path style="opacity:0.931" fill="#f15a24" d="M 39.5,458.5 C 47.6092,465.437 55.6092,472.604 63.5,480C 69.7631,485.757 75.4298,491.924 80.5,498.5C 53.5102,499.75 26.5102,500.75 -0.5,501.5C -0.5,500.5 -0.5,499.5 -0.5,498.5C 12.8397,485.135 26.173,471.802 39.5,458.5 Z"/></g>
</svg>
